{
.appVersion = "1356";
classes = (
{
automatic = 1;

glyphs = (
{
glyphname = A;
lastChange = "2021-05-03 01:08:30 +0000";
layers = (
{
anchors = (
{
name = bottom;
position = "{588, 0}";
},
{
name = ogonek;
position = "{1128, 0}";
},
{
name = top;
position = "{588, 1474}";
}
);
guideLines = (
{
angle = 67.5;
position = "{-80, -200}";
}
);
layerId = "AB099EFE-E788-4EFC-8633-CF147CB782A6";
paths = (
{
closed = 1;
nodes = (
"48 0 LINE",
"114 0 LINE",
"282 496 LINE",
"292 518 LINE",
"584 1386 LINE",
"592 1386 LINE",
"884 518 LINE",
"894 496 LINE",
"1062 0 LINE",
"1128 0 LINE",
"614 1474 LINE",
"562 1474 LINE"
);
},
{
closed = 1;
nodes = (
"252 476 LINE",
"924 476 LINE",
"924 536 LINE",
"252 536 LINE"
);
}
);
width = 1176;
},
{
anchors = (
{
name = bottom;
position = "{660, 0}";
},
{
name = ogonek;
position = "{1336, 0}";
},
{
name = top;
position = "{660, 1474}";
}
);
guideLines = (
{
angle = 67.5;
position = "{-98, -200}";
}
);
layerId = "2D8F7115-C311-411E-929D-56333CF7FFB2";
paths = (
{
closed = 1;
nodes = (
"-16 0 LINE",
"376 0 LINE",
"480 360 LINE",
"506 504 LINE",
"656 1052 LINE",
"662 1052 LINE",
"814 504 LINE",
"840 360 LINE",
"942 0 LINE",
"1336 0 LINE",
"816 1474 LINE",
"504 1474 LINE"
);
},
{
closed = 1;
nodes = (
"312 270 LINE",
"1006 270 LINE",
"1006 570 LINE",
"312 570 LINE"
);
}
);
width = 1320;
},
{
anchors = (
{
name = bottom;
position = "{612, 0}";
},
{
name = ogonek;
position = "{1204, 0}";
},
{
name = top;
position = "{612, 1474}";
}
);
layerId = "FD1CEFBD-BAB1-4C2A-A598-30E93F9A29F6";
paths = (
{
closed = 1;
nodes = (
"18 0 LINE",
"208 0 LINE",
"356 440 LINE",
"376 504 LINE",
"608 1228 LINE",
"614 1228 LINE",
"846 504 LINE",
"868 440 LINE",
"1016 0 LINE",
"1204 0 LINE",
"686 1474 LINE",
"536 1474 LINE"
);
},
{
closed = 1;
nodes = (
"270 386 LINE",
"952 386 LINE",
"952 550 LINE",
"270 550 LINE"
);
}
);
width = 1222;
}
);
leftKerningGroup = LAT_A_UC;
rightKerningGroup = LAT_A_UC;
unicode = 0041;
},
{
glyphname = AE;
lastChange = "2021-05-03 01:08:30 +0000";
layers = (
{
anchors = (
{
name = bottom;
position = "{956, 0}";
},
{
name = top;
position = "{984, 1474}";
}
);
layerId = "AB099EFE-E788-4EFC-8633-CF147CB782A6";
paths = (
{
closed = 1;
nodes = (
"24 0 LINE",
"92 0 LINE",
"330 496 LINE",
"750 1390 LINE",
"794 1390 LINE",
"784 1474 LINE",
"732 1474 LINE"
);
},
{
closed = 1;
nodes = (
"302 476 LINE",
"844 476 LINE",
"844 536 LINE",
"302 536 LINE"
);
},
{
closed = 1;
nodes = (
"810 1414 LINE",
"1468 1414 LINE",
"1468 1474 LINE",
"746 1474 LINE",
"818 500 LINE",
"856 0 LINE",
"1468 0 LINE",
"1468 60 LINE",
"910 60 LINE"
);
},
{
closed = 1;
nodes = (
"1384 726 LINE",
"1384 786 LINE",
"842 786 LINE",
"850 726 LINE"
);
}
);
width = 1594;
},
{
anchors = (
{
name = bottom;
position = "{960, 0}";
},
{
name = top;
position = "{952, 1474}";
}
);
background = {
components = (
{
name = A;
transform = "{1, 0, 0.03492, 1, -8, 0}";
}
);
};
layerId = "2D8F7115-C311-411E-929D-56333CF7FFB2";
paths = (
{
closed = 1;
nodes = (
"-12 0 LINE",
"372 0 LINE",
"534 480 LINE",
"728 1156 LINE",
"760 1156 LINE",
"746 1474 LINE",
"538 1474 LINE"
);
},
{
closed = 1;
nodes = (
"352 270 LINE",
"962 270 LINE",
"962 570 LINE",
"352 570 LINE"
);
},
{
closed = 1;
nodes = (
"1072 1146 LINE",
"1488 1146 LINE",
"1488 1474 LINE",
"738 1474 LINE",
"770 450 LINE",
"786 0 LINE",
"1488 0 LINE",
"1488 328 LINE",
"1102 328 LINE"
);
},
{
closed = 1;
nodes = (
"1416 586 LINE",
"1416 902 LINE",
"1052 902 LINE",
"1072 586 LINE"
);
}
);
width = 1556;
},
{
anchors = (
{
name = bottom;
position = "{958, 0}";
},
{
name = top;
position = "{974, 1474}";
}
);
layerId = "FD1CEFBD-BAB1-4C2A-A598-30E93F9A29F6";
paths = (
{
closed = 1;
nodes = (
"12 0 LINE",
"200 0 LINE",
"408 492 LINE",
"746 1302 LINE",
"782 1302 LINE",
"772 1474 LINE",
"660 1474 LINE"
);
},
{
closed = 1;
nodes = (
"322 386 LINE",
"900 386 LINE",
"900 550 LINE",
"322 550 LINE"
);
},
{
closed = 1;
nodes = (
"912 1310 LINE",
"1476 1310 LINE",
"1476 1474 LINE",
"746 1474 LINE",
"802 484 LINE",
"828 0 LINE",
"1476 0 LINE",
"1476 164 LINE",
"982 164 LINE"
);
},
{
closed = 1;
nodes = (
"1400 668 LINE",
"1400 832 LINE",
"924 832 LINE",
"938 668 LINE"
);
}
);
width = 1580;
}
);
leftKerningGroup = LAT_AE_UC;
rightKerningGroup = LAT_E_UC;
rightMetricsKey = E;
unicode = 00C6;
},
{
glyphname = B;
lastChange = "2021-05-03 01:08:30 +0000";
layers = (
{
anchors = (
{
name = bottom;
position = "{512, 0}";
},
{
name = center;
position = "{216, 422}";
},
{
name = top;
position = "{508, 1474}";
}
);
layerId = "AB099EFE-E788-4EFC-8633-CF147CB782A6";
paths = (
{
closed = 1;
nodes = (
"534 0 LINE SMOOTH",
"774 0 OFFCURVE",
"930 156 OFFCURVE",
"930 394 CURVE SMOOTH",
"930 600 OFFCURVE",
"816 740 OFFCURVE",
"644 774 CURVE",
"644 762 LINE",
"756 820 OFFCURVE",
"830 946 OFFCURVE",
"830 1098 CURVE SMOOTH",
"830 1324 OFFCURVE",
"692 1474 OFFCURVE",
"494 1474 CURVE SMOOTH",
"204 1474 LINE",
"204 1414 LINE",
"494 1414 LINE SMOOTH",
"652 1414 OFFCURVE",
"766 1290 OFFCURVE",
"766 1098 CURVE SMOOTH",
"766 914 OFFCURVE",
"650 786 OFFCURVE",
"496 786 CURVE SMOOTH",
"204 786 LINE",
"204 726 LINE",
"532 726 LINE SMOOTH",
"738 726 OFFCURVE",
"866 598 OFFCURVE",
"866 394 CURVE SMOOTH",
"866 188 OFFCURVE",
"738 60 OFFCURVE",
"534 60 CURVE SMOOTH",
"234 60 LINE",
"234 0 LINE"
);
},
{
closed = 1;
nodes = (
"242 0 LINE",
"242 1474 LINE",
"178 1474 LINE",
"178 0 LINE"
);
}
);
width = 1050;
},
{
anchors = (
{
name = bottom;
position = "{614, 0}";
},
{
name = center;
position = "{286, 462}";
},
{
name = top;
position = "{536, 1474}";
}
);
layerId = "2D8F7115-C311-411E-929D-56333CF7FFB2";
paths = (
{
closed = 1;
nodes = (
"712 0 LINE SMOOTH",
"950 0 OFFCURVE",
"1132 176 OFFCURVE",
"1132 434 CURVE SMOOTH",
"1132 678 OFFCURVE",
"962 778 OFFCURVE",
"804 806 CURVE",
"792 716 LINE",
"918 766 OFFCURVE",
"1030 922 OFFCURVE",
"1030 1098 CURVE SMOOTH",
"1030 1312 OFFCURVE",
"872 1474 OFFCURVE",
"578 1474 CURVE SMOOTH",
"448 1474 LINE",
"448 1154 LINE",
"576 1154 LINE SMOOTH",
"636 1154 OFFCURVE",
"678 1114 OFFCURVE",
"678 1020 CURVE SMOOTH",
"678 944 OFFCURVE",
"654 880 OFFCURVE",
"602 880 CURVE SMOOTH",
"448 880 LINE",
"448 610 LINE",
"674 610 LINE SMOOTH",
"724 610 OFFCURVE",
"770 558 OFFCURVE",
"770 472 CURVE SMOOTH",
"770 380 OFFCURVE",
"728 320 OFFCURVE",
"684 320 CURVE SMOOTH",
"442 320 LINE",
"442 0 LINE"
);
},
{
closed = 1;
nodes = (
"468 0 LINE",
"468 1474 LINE",
"100 1474 LINE",
"100 0 LINE"
);
}
);
width = 1160;
},
{
anchors = (
{
name = bottom;
position = "{544, 0}";
},
{
name = center;
position = "{236, 426}";
},
{
name = top;
position = "{530, 1474}";
}
);
hints = (
{
horizontal = 1;
origin = "{0, 22}";
type = Delta;
settings = {
deltaV = {
"{100, 370, 0, 0, 0, 0}" = {
"12" = -1;
};
};
};
},
{
horizontal = 1;
origin = "{0, 23}";
type = Delta;
settings = {
deltaV = {
"{100, 370, 0, 0, 0, 0}" = {
"12" = -1;
};
};
};
},
{
horizontal = 1;
origin = "{0, 24}";
type = Delta;
settings = {
deltaV = {
"{100, 370, 0, 0, 0, 0}" = {
"12" = -1;
};
};
};
},
{
horizontal = 1;
origin = "{0, 25}";
type = Delta;
settings = {
deltaV = {
"{100, 370, 0, 0, 0, 0}" = {
"12" = -1;
};
};
};
},
{
horizontal = 1;
origin = "{0, 23, 1, 1}";
type = Delta;
settings = {
deltaV = {
"{100, 370, 0, 0, 0, 0}" = {
"12" = -1;
};
};
};
},
{
horizontal = 1;
origin = "{0, 25, 1, 1}";
type = Delta;
settings = {
deltaV = {
"{100, 370, 0, 0, 0, 0}" = {
"12" = -1;
};
};
};
}
);
layerId = "FD1CEFBD-BAB1-4C2A-A598-30E93F9A29F6";
paths = (
{
closed = 1;
nodes = (
"576 0 LINE SMOOTH",
"826 0 OFFCURVE",
"990 168 OFFCURVE",
"990 406 CURVE SMOOTH",
"990 610 OFFCURVE",
"874 746 OFFCURVE",
"698 794 CURVE",
"698 750 LINE",
"808 796 OFFCURVE",
"898 942 OFFCURVE",
"898 1102 CURVE SMOOTH",
"898 1320 OFFCURVE",
"740 1474 OFFCURVE",
"492 1474 CURVE SMOOTH",
"292 1474 LINE",
"292 1310 LINE",
"498 1310 LINE SMOOTH",
"632 1310 OFFCURVE",
"720 1230 OFFCURVE",
"720 1078 CURVE SMOOTH",
"720 934 OFFCURVE",
"638 830 OFFCURVE",
"510 830 CURVE SMOOTH",
"292 830 LINE",
"292 670 LINE",
"562 670 LINE SMOOTH",
"714 670 OFFCURVE",
"810 578 OFFCURVE",
"810 418 CURVE SMOOTH",
"810 258 OFFCURVE",
"720 164 OFFCURVE",
"582 164 CURVE SMOOTH",
"310 164 LINE",
"310 0 LINE"
);
},
{
closed = 1;
nodes = (
"326 0 LINE",
"326 1474 LINE",
"148 1474 LINE",
"148 0 LINE"
);
}
);
width = 1080;
}
);
leftKerningGroup = LAT_H_UC;
leftMetricsKey = H;
rightKerningGroup = LAT_B_UC;
unicode = 0042;
},
{
glyphname = C;
lastChange = "2021-05-03 01:08:30 +0000";
layers = (
{
anchors = (
{
name = base;
position = "{744, 0}";
},
{
name = bottom;
position = "{710, 0}";
},
{
name = cedilla;
position = "{712, 0}";
},
{
name = top;
position = "{710, 1474}";
}
);
guideLines = (
{
angle = 67.5;
position = "{508, 360}";
},
{
angle = 112.5;
position = "{512, 360}";
}
);
layerId = "AB099EFE-E788-4EFC-8633-CF147CB782A6";
paths = (
{
closed = 1;
nodes = (
"854 -16 OFFCURVE",
"1008 50 OFFCURVE",
"1104 156 CURVE",
"1076 220 LINE",
"1014 134 OFFCURVE",
"866 44 OFFCURVE",
"712 44 CURVE SMOOTH",
"438 44 OFFCURVE",
"172 320 OFFCURVE",
"172 736 CURVE SMOOTH",
"172 1146 OFFCURVE",
"436 1430 OFFCURVE",
"720 1430 CURVE SMOOTH",
"844 1430 OFFCURVE",
"988 1374 OFFCURVE",
"1074 1272 CURVE",
"1100 1336 LINE",
"1008 1426 OFFCURVE",
"864 1490 OFFCURVE",
"720 1490 CURVE SMOOTH",
"396 1490 OFFCURVE",
"108 1178 OFFCURVE",
"108 738 CURVE SMOOTH",
"108 324 OFFCURVE",
"374 -16 OFFCURVE",
"710 -16 CURVE SMOOTH"
);
}
);
width = 1186;
},
{
anchors = (
{
name = base;
position = "{704, 0}";
},
{
name = bottom;
position = "{700, 0}";
},
{
name = cedilla;
position = "{724, 0}";
},
{
name = top;
position = "{688, 1474}";
}
);
layerId = "2D8F7115-C311-411E-929D-56333CF7FFB2";
paths = (
{
closed = 1;
nodes = (
"848 -16 OFFCURVE",
"982 16 OFFCURVE",
"1100 94 CURVE",
"960 422 LINE",
"904 348 OFFCURVE",
"804 320 OFFCURVE",
"736 320 CURVE SMOOTH",
"542 320 OFFCURVE",
"386 494 OFFCURVE",
"386 740 CURVE SMOOTH",
"386 988 OFFCURVE",
"542 1154 OFFCURVE",
"722 1154 CURVE SMOOTH",
"822 1154 OFFCURVE",
"906 1108 OFFCURVE",
"956 1044 CURVE",
"1096 1372 LINE",
"974 1454 OFFCURVE",
"836 1490 OFFCURVE",
"718 1490 CURVE SMOOTH",
"328 1490 OFFCURVE",
"18 1170 OFFCURVE",
"18 740 CURVE SMOOTH",
"18 310 OFFCURVE",
"338 -16 OFFCURVE",
"734 -16 CURVE SMOOTH"
);
}
);
width = 1136;
},
{
anchors = (
{
name = base;
position = "{728, 0}";
},
{
name = bottom;
position = "{704, 0}";
},
{
name = cedilla;
position = "{716, 0}";
},
{
name = top;
position = "{702, 1474}";
}
);
layerId = "FD1CEFBD-BAB1-4C2A-A598-30E93F9A29F6";
paths = (
{
closed = 1;
nodes = (
"856 -16 OFFCURVE",
"1002 42 OFFCURVE",
"1104 136 CURVE",
"1038 294 LINE",
"968 206 OFFCURVE",
"842 148 OFFCURVE",
"724 148 CURVE SMOOTH",
"468 148 OFFCURVE",
"256 406 OFFCURVE",
"256 742 CURVE SMOOTH",
"256 1090 OFFCURVE",
"484 1326 OFFCURVE",
"722 1326 CURVE SMOOTH",
"842 1326 OFFCURVE",
"960 1278 OFFCURVE",
"1034 1192 CURVE",
"1100 1352 LINE",
"998 1438 OFFCURVE",
"856 1490 OFFCURVE",
"718 1490 CURVE SMOOTH",
"374 1490 OFFCURVE",
"76 1180 OFFCURVE",
"76 738 CURVE SMOOTH",
"76 304 OFFCURVE",
"370 -16 OFFCURVE",
"718 -16 CURVE SMOOTH"
);
}
);
width = 1168;
}
);
leftKerningGroup = LAT_O_UC;
leftMetricsKey = O;
rightKerningGroup = LAT_C_UC;
unicode = 0043;
},
{
glyphname = D;
lastChange = "2021-05-03 01:08:30 +0000";
layers = (
{
anchors = (
{
name = bottom;
position = "{604, 0}";
},
{
name = center;
position = "{208, 758}";
},
{
name = top;
position = "{602, 1474}";
}
);
layerId = "AB099EFE-E788-4EFC-8633-CF147CB782A6";
paths = (
{
closed = 1;
nodes = (
"178 0 LINE",
"568 0 LINE SMOOTH",
"894 0 OFFCURVE",
"1112 286 OFFCURVE",
"1112 752 CURVE SMOOTH",
"1112 1178 OFFCURVE",
"914 1474 OFFCURVE",
"568 1474 CURVE SMOOTH",
"178 1474 LINE"
);
},
{
closed = 1;
nodes = (
"242 60 LINE",
"242 1414 LINE",
"562 1414 LINE SMOOTH",
"844 1414 OFFCURVE",
"1048 1166 OFFCURVE",
"1048 752 CURVE SMOOTH",
"1048 356 OFFCURVE",
"866 60 OFFCURVE",
"562 60 CURVE SMOOTH"
);
}
);
width = 1220;
},
{
anchors = (
{
name = bottom;
position = "{586, 0}";
},
{
name = center;
position = "{300, 738}";
},
{
name = top;
position = "{590, 1474}";
}
);
layerId = "2D8F7115-C311-411E-929D-56333CF7FFB2";
paths = (
{
closed = 1;
nodes = (
"100 0 LINE",
"576 0 LINE SMOOTH",
"862 0 OFFCURVE",
"1216 238 OFFCURVE",
"1216 746 CURVE SMOOTH",
"1216 1250 OFFCURVE",
"860 1474 OFFCURVE",
"546 1474 CURVE SMOOTH",
"100 1474 LINE"
);
},
{
closed = 1;
nodes = (
"468 328 LINE",
"468 1146 LINE",
"590 1146 LINE SMOOTH",
"652 1146 OFFCURVE",
"848 1062 OFFCURVE",
"848 746 CURVE SMOOTH",
"848 426 OFFCURVE",
"650 328 OFFCURVE",
"590 328 CURVE SMOOTH"
);
}
);
width = 1234;
},
{
anchors = (
{
name = bottom;
position = "{596, 0}";
},
{
name = center;
position = "{240, 750}";
},
{
name = top;
position = "{596, 1474}";
}
);
layerId = "FD1CEFBD-BAB1-4C2A-A598-30E93F9A29F6";
paths = (
{
closed = 1;
nodes = (
"148 0 LINE",
"570 0 LINE SMOOTH",
"892 0 OFFCURVE",
"1154 288 OFFCURVE",
"1154 750 CURVE SMOOTH",
"1154 1200 OFFCURVE",
"892 1476 OFFCURVE",
"558 1476 CURVE SMOOTH",
"148 1476 LINE"
);
},
{
closed = 1;
nodes = (
"328 164 LINE",
"328 1312 LINE",
"572 1312 LINE SMOOTH",
"786 1312 OFFCURVE",
"974 1102 OFFCURVE",
"974 750 CURVE SMOOTH",
"974 390 OFFCURVE",
"786 164 OFFCURVE",
"572 164 CURVE SMOOTH"
);
}
);
width = 1230;
}
);
leftKerningGroup = LAT_H_UC;
leftMetricsKey = H;
rightKerningGroup = LAT_O_UC;
rightMetricsKey = O;
unicode = 0044;
},
{
glyphname = E;
lastChange = "2021-05-03 01:08:30 +0000";
layers = (
{
anchors = (
{
name = bottom;
position = "{514, 0}";
},
{
name = cedilla;
position = "{504, 0}";
},
{
name = ogonek;
position = "{830, 0}";
},
{
name = top;
position = "{504, 1474}";
},
{
name = topleft;
position = "{40, 1474}";
}
);
hints = (
{
horizontal = 1;
origin = "{0, 0}";
target = "{0, 3}";
type = TTStem;
options = 4;
},
{
horizontal = 1;
origin = "{0, 4}";
target = "{0, 7}";
type = TTStem;
options = 1;
},
{
horizontal = 1;
origin = "{0, 11}";
target = "{0, 8}";
type = TTStem;
options = 4;
},
{
horizontal = 1;
origin = "{0, 5}";
type = Anchor;
options = 1;
},
{
horizontal = 1;
origin = "{0, 4}";
type = Anchor;
options = 1;
},
{
horizontal = 1;
origin = "{0, 5}";
type = Anchor;
options = 1;
},
{
horizontal = 1;
origin = "{0, 6}";
type = Anchor;
options = 1;
},
{
horizontal = 1;
origin = "{0, 7}";
type = Anchor;
options = 1;
}
);
layerId = "AB099EFE-E788-4EFC-8633-CF147CB782A6";
paths = (
{
closed = 1;
nodes = (
"178 0 LINE",
"830 0 LINE",
"830 60 LINE",
"242 60 LINE",
"242 726 LINE",
"746 726 LINE",
"746 786 LINE",
"242 786 LINE",
"242 1414 LINE",
"830 1414 LINE",
"830 1474 LINE",
"178 1474 LINE"
);
}
);
width = 956;
},
{
anchors = (
{
name = bottom;
position = "{498, 0}";
},
{
name = cedilla;
position = "{498, 0}";
},
{
name = ogonek;
position = "{864, 0}";
},
{
name = top;
position = "{498, 1474}";
},
{
name = topleft;
position = "{20, 1474}";
}
);
hints = (
{
horizontal = 1;
origin = "{0, 0}";
target = "{0, 3}";
type = TTStem;
options = 4;
},
{
horizontal = 1;
origin = "{0, 4}";
target = "{0, 7}";
type = TTStem;
options = 1;
},
{
horizontal = 1;
origin = "{0, 11}";
target = "{0, 8}";
type = TTStem;
options = 4;
},
{
horizontal = 1;
origin = "{0, 5}";
type = Anchor;
options = 1;
},
{
horizontal = 1;
origin = "{0, 4}";
type = Anchor;
options = 1;
},
{
horizontal = 1;
origin = "{0, 5}";
type = Anchor;
options = 1;
},
{
horizontal = 1;
origin = "{0, 6}";
type = Anchor;
options = 1;
},
{
horizontal = 1;
origin = "{0, 7}";
type = Anchor;
options = 1;
}
);
layerId = "2D8F7115-C311-411E-929D-56333CF7FFB2";
paths = (
{
closed = 1;
nodes = (
"100 0 LINE",
"868 0 LINE",
"868 328 LINE",
"468 328 LINE",
"468 586 LINE",
"792 586 LINE",
"792 902 LINE",
"468 902 LINE",
"468 1146 LINE",
"868 1146 LINE",
"868 1474 LINE",
"100 1474 LINE"
);
}
);
width = 936;
},
{
anchors = (
{
name = bottom;
position = "{508, 0}";
},
{
name = cedilla;
position = "{500, 0}";
},
{
name = ogonek;
position = "{840, 0}";
},
{
name = top;
position = "{500, 1474}";
},
{
name = topleft;
position = "{32, 1474}";
}
);
hints = (
{
horizontal = 1;
origin = "{0, 0}";
target = "{0, 3}";
type = TTStem;
options = 4;
},
{
horizontal = 1;
origin = "{0, 4}";
target = "{0, 7}";
type = TTStem;
options = 1;
},
{
horizontal = 1;
origin = "{0, 11}";
target = "{0, 8}";
type = TTStem;
options = 4;
},
{
horizontal = 1;
origin = "{0, 5}";
type = Anchor;
options = 1;
},
{
horizontal = 1;
origin = "{0, 4}";
type = Anchor;
options = 1;
},
{
horizontal = 1;
origin = "{0, 5}";
type = Anchor;
options = 1;
},
{
horizontal = 1;
origin = "{0, 6}";
type = Anchor;
options = 1;
},
{
horizontal = 1;
origin = "{0, 7}";
type = Anchor;
options = 1;
}
);
layerId = "FD1CEFBD-BAB1-4C2A-A598-30E93F9A29F6";
paths = (
{
closed = 1;
nodes = (
"148 0 LINE",
"844 0 LINE",
"844 164 LINE",
"328 164 LINE",
"328 668 LINE",
"762 668 LINE",
"762 832 LINE",
"328 832 LINE",
"328 1310 LINE",
"844 1310 LINE",
"844 1474 LINE",
"148 1474 LINE"
);
}
);
width = 948;
}
);
leftKerningGroup = LAT_H_UC;
leftMetricsKey = H;
rightKerningGroup = LAT_E_UC;
unicode = 0045;
},
{
glyphname = F;
lastChange = "2021-05-03 01:08:30 +0000";
layers = (
{
anchors = (
{
name = bottom;
position = "{210, 0}";
},
{
name = center;
position = "{210, 376}";
},
{
name = top;
position = "{522, 1474}";
}
);
layerId = "AB099EFE-E788-4EFC-8633-CF147CB782A6";
paths = (
{
closed = 1;
nodes = (
"178 0 LINE",
"242 0 LINE",
"242 726 LINE",
"740 726 LINE",
"740 786 LINE",
"242 786 LINE",
"242 1414 LINE",
"808 1414 LINE",
"808 1474 LINE",
"178 1474 LINE"
);
}
);
width = 884;
},
{
anchors = (
{
name = bottom;
position = "{286, 0}";
},
{
name = center;
position = "{286, 290}";
},
{
name = top;
position = "{544, 1474}";
}
);
layerId = "2D8F7115-C311-411E-929D-56333CF7FFB2";
paths = (
{
closed = 1;
nodes = (
"100 0 LINE",
"468 0 LINE",
"468 524 LINE",
"794 524 LINE",
"794 852 LINE",
"468 852 LINE",
"468 1146 LINE",
"872 1146 LINE",
"872 1474 LINE",
"100 1474 LINE"
);
}
);
width = 906;
},
{
anchors = (
{
name = bottom;
position = "{238, 0}";
},
{
name = center;
position = "{238, 344}";
},
{
name = top;
position = "{530, 1474}";
}
);
layerId = "FD1CEFBD-BAB1-4C2A-A598-30E93F9A29F6";
paths = (
{
closed = 1;
nodes = (
"148 0 LINE",
"328 0 LINE",
"328 646 LINE",
"758 646 LINE",
"758 810 LINE",
"328 810 LINE",
"328 1310 LINE",
"832 1310 LINE",
"832 1474 LINE",
"148 1474 LINE"
);
}
);
width = 892;
}
);
leftKerningGroup = LAT_H_UC;
leftMetricsKey = H;
rightKerningGroup = LAT_F_UC;
unicode = 0046;
},
{
glyphname = G;
lastChange = "2021-05-03 01:08:30 +0000";
layers = (
{
anchors = (
{
name = bottom;
position = "{680, 0}";
},
{
name = hook;
position = "{1100, 1336}";
},
{
name = top;
position = "{678, 1474}";
}
);
layerId = "AB099EFE-E788-4EFC-8633-CF147CB782A6";
paths = (
{
closed = 1;
nodes = (
"1018 -16 OFFCURVE",
"1218 270 OFFCURVE",
"1218 704 CURVE SMOOTH",
"1218 758 LINE",
"660 758 LINE",
"660 698 LINE",
"1156 698 LINE",
"1156 342 OFFCURVE",
"1000 44 OFFCURVE",
"702 44 CURVE SMOOTH",
"408 44 OFFCURVE",
"172 330 OFFCURVE",
"172 736 CURVE SMOOTH",
"172 1130 OFFCURVE",
"398 1430 OFFCURVE",
"710 1430 CURVE SMOOTH",
"850 1430 OFFCURVE",
"988 1374 OFFCURVE",
"1072 1272 CURVE",
"1100 1336 LINE",
"1016 1418 OFFCURVE",
"872 1490 OFFCURVE",
"708 1490 CURVE SMOOTH",
"354 1490 OFFCURVE",
"108 1172 OFFCURVE",
"108 738 CURVE SMOOTH",
"108 310 OFFCURVE",
"364 -16 OFFCURVE",
"702 -16 CURVE SMOOTH"
);
}
);
width = 1326;
},
{
anchors = (
{
name = bottom;
position = "{678, 0}";
},
{
name = hook;
position = "{1100, 1372}";
},
{
name = top;
position = "{680, 1474}";
}
);
layerId = "2D8F7115-C311-411E-929D-56333CF7FFB2";
paths = (
{
closed = 1;
nodes = (
"1052 -16 OFFCURVE",
"1288 246 OFFCURVE",
"1288 598 CURVE SMOOTH",
"1288 864 LINE",
"664 864 LINE",
"664 562 LINE",
"944 562 LINE",
"948 418 OFFCURVE",
"830 312 OFFCURVE",
"704 312 CURVE SMOOTH",
"518 312 OFFCURVE",
"386 490 OFFCURVE",
"386 738 CURVE SMOOTH",
"386 1000 OFFCURVE",
"540 1154 OFFCURVE",
"716 1154 CURVE SMOOTH",
"820 1154 OFFCURVE",
"906 1110 OFFCURVE",
"956 1044 CURVE",
"1096 1372 LINE",
"972 1454 OFFCURVE",
"842 1490 OFFCURVE",
"718 1490 CURVE SMOOTH",
"288 1486 OFFCURVE",
"18 1136 OFFCURVE",
"18 730 CURVE SMOOTH",
"18 304 OFFCURVE",
"298 -16 OFFCURVE",
"698 -16 CURVE SMOOTH"
);
}
);
width = 1334;
},
{
anchors = (
{
name = bottom;
position = "{684, 0}";
},
{
name = hook;
position = "{1100, 1352}";
},
{
name = top;
position = "{674, 1474}";
}
);
layerId = "FD1CEFBD-BAB1-4C2A-A598-30E93F9A29F6";
paths = (
{
closed = 1;
nodes = (
"1028 -16 OFFCURVE",
"1240 274 OFFCURVE",
"1240 672 CURVE SMOOTH",
"1240 802 LINE",
"656 802 LINE",
"656 638 LINE",
"1064 638 LINE",
"1064 370 OFFCURVE",
"924 148 OFFCURVE",
"694 148 CURVE SMOOTH",
"448 148 OFFCURVE",
"256 390 OFFCURVE",
"256 742 CURVE SMOOTH",
"256 1082 OFFCURVE",
"444 1326 OFFCURVE",
"706 1326 CURVE SMOOTH",
"842 1326 OFFCURVE",
"960 1270 OFFCURVE",
"1030 1184 CURVE",
"1100 1352 LINE",
"998 1434 OFFCURVE",
"860 1490 OFFCURVE",
"706 1490 CURVE SMOOTH",
"336 1490 OFFCURVE",
"76 1172 OFFCURVE",
"76 738 CURVE SMOOTH",
"76 292 OFFCURVE",
"344 -16 OFFCURVE",
"694 -16 CURVE SMOOTH"
);
}
);
width = 1320;
}
);
leftKerningGroup = LAT_O_UC;
leftMetricsKey = O;
rightKerningGroup = LAT_G_UC;
unicode = 0047;
},
{
glyphname = H;
lastChange = "2021-05-03 01:08:30 +0000";
layers = (
{
anchors = (
{
name = bottom;
position = "{614, 0}";
},
{
name = center;
position = "{614, 1086}";
},
{
name = top;
position = "{614, 1474}";
}
);
layerId = "AB099EFE-E788-4EFC-8633-CF147CB782A6";
paths = (
{
closed = 1;
nodes = (
"178 0 LINE",
"242 0 LINE",
"242 726 LINE",
"988 726 LINE",
"988 0 LINE",
"1052 0 LINE",
"1052 1474 LINE",
"988 1474 LINE",
"988 786 LINE",
"242 786 LINE",
"242 1474 LINE",
"178 1474 LINE"
);
}
);
width = 1230;
},
{
anchors = (
{
name = bottom;
position = "{666, 0}";
},
{
name = center;
position = "{666, 1184}";
},
{
name = top;
position = "{666, 1474}";
}
);
layerId = "2D8F7115-C311-411E-929D-56333CF7FFB2";
paths = (
{
closed = 1;
nodes = (
"100 0 LINE",
"468 0 LINE",
"468 578 LINE",
"864 578 LINE",
"864 0 LINE",
"1232 0 LINE",
"1232 1474 LINE",
"864 1474 LINE",
"864 906 LINE",
"468 906 LINE",
"468 1474 LINE",
"100 1474 LINE"
);
}
);
width = 1332;
},
{
anchors = (
{
name = bottom;
position = "{640, 0}";
},
{
name = center;
position = "{640, 1122}";
},
{
name = top;
position = "{640, 1474}";
}
);
layerId = "FD1CEFBD-BAB1-4C2A-A598-30E93F9A29F6";
paths = (
{
closed = 1;
nodes = (
"148 0 LINE",
"328 0 LINE",
"328 672 LINE",
"944 672 LINE",
"944 0 LINE",
"1124 0 LINE",
"1124 1474 LINE",
"944 1474 LINE",
"944 836 LINE",
"328 836 LINE",
"328 1474 LINE",
"148 1474 LINE"
);
}
);
width = 1272;
}
);
leftKerningGroup = LAT_H_UC;
rightKerningGroup = LAT_H_UC;
unicode = 0048;
},
{
glyphname = I;
lastChange = "2021-05-03 01:08:30 +0000";
layers = (
{
anchors = (
{
name = bottom;
position = "{218, 0}";
},
{
name = ogonek;
position = "{250, 0}";
},
{
name = top;
position = "{218, 1474}";
}
);
layerId = "AB099EFE-E788-4EFC-8633-CF147CB782A6";
paths = (
{
closed = 1;
nodes = (
"186 0 LINE",
"250 0 LINE",
"250 1474 LINE",
"186 1474 LINE"
);
}
);
width = 438;
},
{
anchors = (
{
name = bottom;
position = "{306, 0}";
},
{
name = ogonek;
position = "{490, 0}";
},
{
name = top;
position = "{306, 1474}";
}
);
layerId = "2D8F7115-C311-411E-929D-56333CF7FFB2";
paths = (
{
closed = 1;
nodes = (
"122 0 LINE",
"490 0 LINE",
"490 1474 LINE",
"122 1474 LINE"
);
}
);
width = 612;
},
{
anchors = (
{
name = bottom;
position = "{252, 0}";
},
{
name = ogonek;
position = "{342, 0}";
},
{
name = top;
position = "{252, 1474}";
}
);
layerId = "FD1CEFBD-BAB1-4C2A-A598-30E93F9A29F6";
paths = (
{
closed = 1;
nodes = (
"162 0 LINE",
"342 0 LINE",
"342 1474 LINE",
"162 1474 LINE"
);
}
);
width = 506;
}
);
leftKerningGroup = LAT_H_UC;
rightKerningGroup = LAT_H_UC;
unicode = 0049;
},
{
color = 10;
glyphname = I.ss03;
lastChange = "2021-05-03 01:08:30 +0000";
layers = (
{
anchors = (
{
name = bottom;
position = "{330, 0}";
},
{
name = ogonek;
position = "{518, 0}";
},
{
name = top;
position = "{330, 1474}";
}
);
layerId = "AB099EFE-E788-4EFC-8633-CF147CB782A6";
paths = (
{
closed = 1;
nodes = (
"300 0 LINE",
"364 0 LINE",
"364 1474 LINE",
"300 1474 LINE"
);
},
{
closed = 1;
nodes = (
"146 1416 LINE",
"518 1416 LINE",
"518 1474 LINE",
"146 1474 LINE"
);
},
{
closed = 1;
nodes = (
"146 0 LINE",
"518 0 LINE",
"518 60 LINE",
"146 60 LINE"
);
}
);
width = 664;
},
{
anchors = (
{
name = bottom;
position = "{448, 0}";
},
{
name = ogonek;
position = "{796, 0}";
},
{
name = top;
position = "{448, 1474}";
}
);
layerId = "2D8F7115-C311-411E-929D-56333CF7FFB2";
paths = (
{
closed = 1;
nodes = (
"264 0 LINE",
"632 0 LINE",
"632 1474 LINE",
"264 1474 LINE"
);
},
{
closed = 1;
nodes = (
"96 1156 LINE",
"796 1156 LINE",
"796 1474 LINE",
"96 1474 LINE"
);
},
{
closed = 1;
nodes = (
"96 0 LINE",
"796 0 LINE",
"796 320 LINE",
"96 320 LINE"
);
}
);
width = 894;
},
{
anchors = (
{
name = bottom;
position = "{374, 0}";
},
{
name = ogonek;
position = "{626, 0}";
},
{
name = top;
position = "{374, 1474}";
}
);
layerId = "FD1CEFBD-BAB1-4C2A-A598-30E93F9A29F6";
paths = (
{
closed = 1;
nodes = (
"284 0 LINE",
"464 0 LINE",
"464 1474 LINE",
"284 1474 LINE"
);
},
{
closed = 1;
nodes = (
"124 1314 LINE",
"626 1314 LINE",
"626 1474 LINE",
"124 1474 LINE"
);
},
{
closed = 1;
nodes = (
"124 0 LINE",
"626 0 LINE",
"626 160 LINE",
"124 160 LINE"
);
}
);
width = 750;
}
);
leftKerningGroup = LAT_ISS03_UC;
rightKerningGroup = LAT_ISS03_UC;
},
{
glyphname = J;
lastChange = "2021-05-03 01:08:30 +0000";
layers = (
{
anchors = (
{
name = bottom;
position = "{376, 0}";
},
{
name = top;
position = "{594, 1474}";
}
);
layerId = "AB099EFE-E788-4EFC-8633-CF147CB782A6";
paths = (
{
closed = 1;
nodes = (
"574 152 OFFCURVE",
"464 44 OFFCURVE",
"336 44 CURVE SMOOTH",
"204 44 OFFCURVE",
"112 166 OFFCURVE",
"110 346 CURVE",
"48 346 LINE",
"52 136 OFFCURVE",
"164 -16 OFFCURVE",
"338 -16 CURVE SMOOTH",
"506 -16 OFFCURVE",
"638 124 OFFCURVE",
"638 434 CURVE SMOOTH",
"638 1474 LINE",
"574 1474 LINE",
"574 430 LINE SMOOTH"
);
}
);
width = 816;
},
{
anchors = (
{
name = bottom;
position = "{506, 0}";
},
{
name = top;
position = "{702, 1474}";
}
);
layerId = "2D8F7115-C311-411E-929D-56333CF7FFB2";
paths = (
{
closed = 1;
nodes = (
"524 374 OFFCURVE",
"494 312 OFFCURVE",
"442 312 CURVE SMOOTH",
"388 312 OFFCURVE",
"350 382 OFFCURVE",
"350 496 CURVE",
"8 496 LINE",
"6 184 OFFCURVE",
"180 -16 OFFCURVE",
"450 -16 CURVE SMOOTH",
"722 -16 OFFCURVE",
"894 172 OFFCURVE",
"894 466 CURVE SMOOTH",
"894 1474 LINE",
"524 1474 LINE",
"524 462 LINE SMOOTH"
);
}
);
width = 994;
},
{
anchors = (
{
name = bottom;
position = "{412, 0}";
},
{
name = top;
position = "{638, 1474}";
}
);
layerId = "FD1CEFBD-BAB1-4C2A-A598-30E93F9A29F6";
paths = (
{
closed = 1;
nodes = (
"554 238 OFFCURVE",
"478 148 OFFCURVE",
"376 148 CURVE SMOOTH",
"274 148 OFFCURVE",
"210 250 OFFCURVE",
"208 406 CURVE",
"32 406 LINE",
"36 156 OFFCURVE",
"170 -16 OFFCURVE",
"382 -16 CURVE SMOOTH",
"584 -16 OFFCURVE",
"734 138 OFFCURVE",
"734 446 CURVE SMOOTH",
"734 1474 LINE",
"554 1474 LINE",
"554 442 LINE SMOOTH"
);
}
);
width = 882;
}
);
leftKerningGroup = LAT_J_UC;
rightKerningGroup = LAT_U_UC;
rightMetricsKey = H;
unicode = 004A;
},
{
glyphname = K;
lastChange = "2021-05-03 01:08:30 +0000";
layers = (
{
anchors = (
{
name = bottom;
position = "{544, 0}";
},
{
name = top;
position = "{544, 1474}";
}
);
layerId = "AB099EFE-E788-4EFC-8633-CF147CB782A6";
paths = (
{
closed = 1;
nodes = (
"242 0 LINE",
"242 708 LINE",
"272 708 LINE",
"238 734 LINE",
"894 0 LINE",
"982 0 LINE",
"298 762 LINE",
"298 716 LINE",
"940 1474 LINE",
"852 1474 LINE",
"238 742 LINE",
"272 766 LINE",
"242 766 LINE",
"242 1474 LINE",
"178 1474 LINE",
"178 0 LINE"
);
}
);
width = 1050;
},
{
anchors = (
{
name = bottom;
position = "{640, 0}";
},
{
name = top;
position = "{602, 1474}";
}
);
guideLines = (
{
angle = 120;
position = "{642, 0}";
}
);
layerId = "2D8F7115-C311-411E-929D-56333CF7FFB2";
paths = (
{
closed = 1;
nodes = (
"468 0 LINE",
"468 638 LINE",
"552 638 LINE",
"438 692 LINE",
"828 0 LINE",
"1264 0 LINE",
"750 848 LINE",
"750 648 LINE",
"1254 1474 LINE",
"816 1474 LINE",
"438 774 LINE",
"552 828 LINE",
"468 828 LINE",
"468 1474 LINE",
"100 1474 LINE",
"100 0 LINE"
);
}
);
width = 1248;
},
{
anchors = (
{
name = bottom;
position = "{582, 0}";
},
{
name = top;
position = "{564, 1474}";
}
);
layerId = "FD1CEFBD-BAB1-4C2A-A598-30E93F9A29F6";
paths = (
{
closed = 1;
nodes = (
"328 0 LINE",
"328 684 LINE",
"378 684 LINE",
"306 716 LINE",
"860 0 LINE",
"1092 0 LINE",
"476 782 LINE",
"476 692 LINE",
"1060 1474 LINE",
"832 1474 LINE",
"306 754 LINE",
"378 790 LINE",
"328 790 LINE",
"328 1474 LINE",
"148 1474 LINE",
"148 0 LINE"
);
}
);
width = 1126;
}
);
leftKerningGroup = LAT_H_UC;
leftMetricsKey = H;
rightKerningGroup = LAT_K_UC;
unicode = 004B;
},
{
glyphname = L;
lastChange = "2021-05-03 01:08:30 +0000";
layers = (
{
anchors = (
{
name = bottom;
position = "{514, 0}";
},
{
name = center;
position = "{210, 738}";
},
{
name = dot;
position = "{660, 738}";
},
{
name = top;
position = "{210, 1474}";
},
{
name = topright;
position = "{656, 1474}";
}
);
layerId = "AB099EFE-E788-4EFC-8633-CF147CB782A6";
paths = (
{
closed = 1;
nodes = (
"178 0 LINE",
"826 0 LINE",
"826 60 LINE",
"242 60 LINE",
"242 1474 LINE",
"178 1474 LINE"
);
}
);
width = 878;
},
{
anchors = (
{
name = bottom;
position = "{490, 0}";
},
{
name = center;
position = "{282, 758}";
},
{
name = dot;
position = "{752, 754}";
},
{
name = top;
position = "{294, 1474}";
},
{
name = topright;
position = "{518, 1474}";
}
);
layerId = "2D8F7115-C311-411E-929D-56333CF7FFB2";
paths = (
{
closed = 1;
nodes = (
"100 0 LINE",
"864 0 LINE",
"864 328 LINE",
"468 328 LINE",
"468 1474 LINE",
"100 1474 LINE"
);
}
);
width = 870;
},
{
anchors = (
{
name = bottom;
position = "{504, 0}";
},
{
name = center;
position = "{238, 746}";
},
{
name = dot;
position = "{692, 746}";
},
{
name = top;
position = "{240, 1474}";
},
{
name = topright;
position = "{602, 1474}";
}
);
layerId = "FD1CEFBD-BAB1-4C2A-A598-30E93F9A29F6";
paths = (
{
closed = 1;
nodes = (
"148 0 LINE",
"840 0 LINE",
"840 164 LINE",
"328 164 LINE",
"328 1474 LINE",
"148 1474 LINE"
);
}
);
width = 876;
}
);
leftKerningGroup = LAT_H_UC;
leftMetricsKey = H;
rightKerningGroup = LAT_L_UC;
unicode = 004C;
},
{
glyphname = M;
lastChange = "2021-05-03 01:08:30 +0000";
layers = (
{
anchors = (
{
name = bottom;
position = "{690, 0}";
},
{
name = top;
position = "{690, 1474}";
}
);
layerId = "AB099EFE-E788-4EFC-8633-CF147CB782A6";
paths = (
{
closed = 1;
nodes = (
"178 0 LINE",
"242 0 LINE",
"242 1076 LINE",
"242 1352 LINE",
"248 1352 LINE",
"672 274 LINE",
"708 274 LINE",
"1132 1352 LINE",
"1140 1352 LINE",
"1138 1076 LINE",
"1138 0 LINE",
"1204 0 LINE",
"1204 1474 LINE",
"1128 1474 LINE",
"696 382 LINE",
"686 382 LINE",
"252 1474 LINE",
"178 1474 LINE"
);
}
);
width = 1382;
},
{
anchors = (
{
name = bottom;
position = "{794, 0}";
},
{
name = top;
position = "{794, 1474}";
}
);
layerId = "2D8F7115-C311-411E-929D-56333CF7FFB2";
paths = (
{
closed = 1;
nodes = (
"100 0 LINE",
"468 0 LINE",
"468 402 LINE",
"460 816 LINE",
"466 816 LINE",
"766 308 LINE",
"822 308 LINE",
"1122 816 LINE",
"1128 816 LINE",
"1120 402 LINE",
"1120 0 LINE",
"1488 0 LINE",
"1488 1474 LINE",
"1226 1474 LINE",
"798 820 LINE",
"792 820 LINE",
"362 1474 LINE",
"100 1474 LINE"
);
}
);
width = 1588;
},
{
anchors = (
{
name = bottom;
position = "{730, 0}";
},
{
name = top;
position = "{730, 1474}";
}
);
layerId = "FD1CEFBD-BAB1-4C2A-A598-30E93F9A29F6";
paths = (
{
closed = 1;
nodes = (
"148 0 LINE",
"328 0 LINE",
"328 798 LINE",
"324 1092 LINE",
"330 1092 LINE",
"702 286 LINE",
"758 286 LINE",
"1130 1092 LINE",
"1136 1092 LINE",
"1132 798 LINE",
"1132 0 LINE",
"1312 0 LINE",
"1312 1474 LINE",
"1168 1474 LINE",
"734 564 LINE",
"726 564 LINE",
"292 1474 LINE",
"148 1474 LINE"
);
}
);
width = 1460;
},
{
anchors = (
{
name = bottom;
position = "{876, 0}";
},
{
name = top;
position = "{876, 1474}";
}
);
associatedMasterId = "FD1CEFBD-BAB1-4C2A-A598-30E93F9A29F6";
layerId = "88B5AD2B-F3FD-4012-B339-81D79EB2E57F";
name = "140";
paths = (
{
closed = 1;
nodes = (
"148 0 LINE",
"434 0 LINE",
"434 578 LINE",
"426 938 LINE",
"434 938 LINE",
"844 300 LINE",
"910 300 LINE",
"1318 938 LINE",
"1328 938 LINE",
"1318 578 LINE",
"1318 0 LINE",
"1606 0 LINE",
"1606 1474 LINE",
"1388 1474 LINE",
"880 704 LINE",
"872 704 LINE",
"364 1474 LINE",
"148 1474 LINE"
);
}
);
width = 1754;
}
);
leftKerningGroup = LAT_H_UC;
leftMetricsKey = H;
rightKerningGroup = LAT_H_UC;
rightMetricsKey = H;
unicode = 004D;
},
{
glyphname = N;
lastChange = "2021-05-03 01:08:30 +0000";
layers = (
{
anchors = (
{
name = bottom;
position = "{608, 0}";
},
{
name = leghookright;
position = "{1028, 0}";
},
{
name = top;
position = "{620, 1474}";
}
);
layerId = "AB099EFE-E788-4EFC-8633-CF147CB782A6";
paths = (
{
closed = 1;
nodes = (
"178 0 LINE",
"242 0 LINE",
"242 970 LINE",
"242 1356 LINE",
"248 1356 LINE",
"396 1084 LINE",
"1002 0 LINE",
"1060 0 LINE",
"1060 1474 LINE",
"996 1474 LINE",
"996 512 LINE",
"996 114 LINE",
"988 114 LINE",
"842 388 LINE",
"236 1474 LINE",
"178 1474 LINE"
);
}
);
width = 1238;
},
{
anchors = (
{
name = bottom;
position = "{680, 0}";
},
{
name = leghookright;
position = "{1090, 0}";
},
{
name = top;
position = "{684, 1474}";
}
);
layerId = "2D8F7115-C311-411E-929D-56333CF7FFB2";
paths = (
{
closed = 1;
nodes = (
"100 0 LINE",
"468 0 LINE",
"468 520 LINE",
"462 848 LINE",
"468 848 LINE",
"538 712 LINE",
"998 0 LINE",
"1266 0 LINE",
"1266 1474 LINE",
"898 1474 LINE",
"898 954 LINE",
"908 648 LINE",
"900 648 LINE",
"830 778 LINE",
"366 1474 LINE",
"100 1474 LINE"
);
}
);
width = 1366;
},
{
anchors = (
{
name = bottom;
position = "{644, 0}";
},
{
name = leghookright;
position = "{1054, 0}";
},
{
name = top;
position = "{644, 1474}";
}
);
layerId = "FD1CEFBD-BAB1-4C2A-A598-30E93F9A29F6";
paths = (
{
closed = 1;
nodes = (
"148 0 LINE",
"328 0 LINE",
"328 782 LINE",
"324 1138 LINE",
"332 1138 LINE",
"446 942 LINE",
"1010 0 LINE",
"1140 0 LINE",
"1140 1474 LINE",
"960 1474 LINE",
"960 704 LINE",
"964 336 LINE",
"958 336 LINE",
"846 536 LINE",
"280 1474 LINE",
"148 1474 LINE"
);
}
);
width = 1288;
}
);
leftKerningGroup = LAT_H_UC;
leftMetricsKey = H;
rightKerningGroup = LAT_H_UC;
rightMetricsKey = H;
unicode = 004E;
},
{
glyphname = O;
lastChange = "2021-05-03 01:08:30 +0000";
layers = (
{
anchors = (
{
name = bottom;
position = "{704, 0}";
},
{
name = center;
position = "{706, 738}";
},
{
name = horn;
position = "{980, 1410}";
},
{
name = ogonek;
position = "{818, 0}";
},
{
name = top;
position = "{704, 1474}";
},
{
name = topleft;
position = "{70, 1474}";
},
{
name = topright;
position = "{1340, 1474}";
}
);
layerId = "AB099EFE-E788-4EFC-8633-CF147CB782A6";
paths = (
{
closed = 1;
nodes = (
"1044 -16 OFFCURVE",
"1304 308 OFFCURVE",
"1304 738 CURVE SMOOTH",
"1304 1168 OFFCURVE",
"1044 1490 OFFCURVE",
"704 1490 CURVE SMOOTH",
"368 1490 OFFCURVE",
"108 1168 OFFCURVE",
"108 738 CURVE SMOOTH",
"108 308 OFFCURVE",
"368 -16 OFFCURVE",
"704 -16 CURVE SMOOTH"
);
},
{
closed = 1;
nodes = (
"406 44 OFFCURVE",
"172 338 OFFCURVE",
"172 738 CURVE SMOOTH",
"172 1136 OFFCURVE",
"408 1430 OFFCURVE",
"704 1430 CURVE SMOOTH",
"1004 1430 OFFCURVE",
"1240 1136 OFFCURVE",
"1240 738 CURVE SMOOTH",
"1240 338 OFFCURVE",
"1006 44 OFFCURVE",
"704 44 CURVE SMOOTH"
);
}
);
width = 1412;
},
{
anchors = (
{
name = bottom;
position = "{686, 0}";
},
{
name = center;
position = "{686, 738}";
},
{
name = horn;
position = "{954, 1426}";
},
{
name = ogonek;
position = "{824, 0}";
},
{
name = top;
position = "{686, 1474}";
},
{
name = topleft;
position = "{-20, 1474}";
},
{
name = topright;
position = "{1394, 1474}";
}
);
layerId = "2D8F7115-C311-411E-929D-56333CF7FFB2";
paths = (
{
closed = 1;
nodes = (
"1060 -16 OFFCURVE",
"1352 318 OFFCURVE",
"1352 738 CURVE SMOOTH",
"1352 1158 OFFCURVE",
"1060 1492 OFFCURVE",
"688 1492 CURVE SMOOTH",
"322 1492 OFFCURVE",
"18 1158 OFFCURVE",
"18 738 CURVE SMOOTH",
"18 318 OFFCURVE",
"322 -16 OFFCURVE",
"688 -16 CURVE SMOOTH"
);
},
{
closed = 1;
nodes = (
"520 320 OFFCURVE",
"386 508 OFFCURVE",
"386 738 CURVE SMOOTH",
"386 972 OFFCURVE",
"520 1156 OFFCURVE",
"686 1156 CURVE SMOOTH",
"852 1156 OFFCURVE",
"984 970 OFFCURVE",
"984 738 CURVE SMOOTH",
"984 506 OFFCURVE",
"850 320 OFFCURVE",
"686 320 CURVE SMOOTH"
);
}
);
width = 1370;
},
{
anchors = (
{
name = bottom;
position = "{696, 0}";
},
{
name = center;
position = "{700, 738}";
},
{
name = horn;
position = "{964, 1422}";
},
{
name = ogonek;
position = "{816, 0}";
},
{
name = top;
position = "{696, 1474}";
},
{
name = topleft;
position = "{38, 1470}";
},
{
name = topright;
position = "{1354, 1470}";
}
);
layerId = "FD1CEFBD-BAB1-4C2A-A598-30E93F9A29F6";
paths = (
{
closed = 1;
nodes = (
"1054 -16 OFFCURVE",
"1322 304 OFFCURVE",
"1322 738 CURVE SMOOTH",
"1322 1168 OFFCURVE",
"1054 1490 OFFCURVE",
"696 1490 CURVE SMOOTH",
"344 1490 OFFCURVE",
"76 1168 OFFCURVE",
"76 738 CURVE SMOOTH",
"76 306 OFFCURVE",
"346 -16 OFFCURVE",
"696 -16 CURVE SMOOTH"
);
},
{
closed = 1;
nodes = (
"444 148 OFFCURVE",
"256 400 OFFCURVE",
"256 738 CURVE SMOOTH",
"256 1082 OFFCURVE",
"450 1326 OFFCURVE",
"696 1326 CURVE SMOOTH",
"960 1326 OFFCURVE",
"1140 1062 OFFCURVE",
"1142 738 CURVE SMOOTH",
"1144 402 OFFCURVE",
"952 148 OFFCURVE",
"696 148 CURVE SMOOTH"
);
}
);
width = 1398;
}
);
leftKerningGroup = LAT_O_UC;
rightKerningGroup = LAT_O_UC;
unicode = 004F;
},
{
glyphname = OE;
lastChange = "2021-05-03 01:08:30 +0000";
layers = (
{
anchors = (
{
name = bottom;
position = "{1016, 0}";
},
{
name = top;
position = "{1016, 1474}";
}
);
layerId = "AB099EFE-E788-4EFC-8633-CF147CB782A6";
paths = (
{
closed = 1;
nodes = (
"940 -16 OFFCURVE",
"1148 160 OFFCURVE",
"1222 456 CURVE",
"1194 456 LINE",
"1194 0 LINE",
"1842 0 LINE",
"1842 60 LINE",
"1258 60 LINE",
"1258 726 LINE",
"1760 726 LINE",
"1760 786 LINE",
"1258 786 LINE",
"1258 1414 LINE",
"1842 1414 LINE",
"1842 1474 LINE",
"1194 1474 LINE",
"1194 1018 LINE",
"1222 1018 LINE",
"1148 1316 OFFCURVE",
"940 1490 OFFCURVE",
"696 1490 CURVE SMOOTH",
"366 1490 OFFCURVE",
"108 1172 OFFCURVE",
"108 738 CURVE SMOOTH",
"108 308 OFFCURVE",
"366 -16 OFFCURVE",
"696 -16 CURVE SMOOTH"
);
},
{
closed = 1;
nodes = (
"400 44 OFFCURVE",
"172 342 OFFCURVE",
"172 740 CURVE SMOOTH",
"172 1134 OFFCURVE",
"396 1430 OFFCURVE",
"700 1430 CURVE SMOOTH",
"1004 1430 OFFCURVE",
"1202 1136 OFFCURVE",
"1202 742 CURVE SMOOTH",
"1202 338 OFFCURVE",
"996 44 OFFCURVE",
"700 44 CURVE SMOOTH"
);
}
);
width = 1968;
},
{
anchors = (
{
name = bottom;
position = "{876, 0}";
},
{
name = top;
position = "{876, 1474}";
}
);
layerId = "2D8F7115-C311-411E-929D-56333CF7FFB2";
paths = (
{
closed = 1;
nodes = (
"858 -16 OFFCURVE",
"992 102 OFFCURVE",
"1082 308 CURVE",
"948 308 LINE",
"948 0 LINE",
"1666 0 LINE",
"1666 328 LINE",
"1274 328 LINE",
"1274 586 LINE",
"1596 586 LINE",
"1596 898 LINE",
"1274 898 LINE",
"1274 1146 LINE",
"1666 1146 LINE",
"1666 1474 LINE",
"948 1474 LINE",
"948 1168 LINE",
"1082 1168 LINE",
"992 1376 OFFCURVE",
"894 1500 OFFCURVE",
"654 1500 CURVE SMOOTH",
"326 1500 OFFCURVE",
"18 1176 OFFCURVE",
"18 738 CURVE SMOOTH",
"18 300 OFFCURVE",
"326 -16 OFFCURVE",
"654 -16 CURVE SMOOTH"
);
},
{
closed = 1;
nodes = (
"516 294 OFFCURVE",
"388 486 OFFCURVE",
"388 738 CURVE SMOOTH",
"388 992 OFFCURVE",
"518 1180 OFFCURVE",
"678 1180 CURVE SMOOTH",
"850 1180 OFFCURVE",
"980 990 OFFCURVE",
"980 738 CURVE SMOOTH",
"980 484 OFFCURVE",
"850 294 OFFCURVE",
"678 294 CURVE SMOOTH"
);
}
);
width = 1734;
},
{
anchors = (
{
name = bottom;
position = "{966, 0}";
},
{
name = top;
position = "{966, 1474}";
}
);
layerId = "FD1CEFBD-BAB1-4C2A-A598-30E93F9A29F6";
paths = (
{
closed = 1;
nodes = (
"912 -16 OFFCURVE",
"1090 140 OFFCURVE",
"1172 402 CURVE",
"1102 402 LINE",
"1102 0 LINE",
"1778 0 LINE",
"1778 164 LINE",
"1266 164 LINE",
"1266 668 LINE",
"1700 668 LINE",
"1700 832 LINE",
"1266 832 LINE",
"1266 1310 LINE",
"1778 1310 LINE",
"1778 1474 LINE",
"1102 1474 LINE",
"1102 1078 LINE",
"1172 1078 LINE",
"1090 1340 OFFCURVE",
"926 1496 OFFCURVE",
"682 1496 CURVE SMOOTH",
"352 1496 OFFCURVE",
"76 1174 OFFCURVE",
"76 738 CURVE SMOOTH",
"76 306 OFFCURVE",
"352 -16 OFFCURVE",
"682 -16 CURVE SMOOTH"
);
},
{
closed = 1;
nodes = (
"446 144 OFFCURVE",
"256 396 OFFCURVE",
"256 738 CURVE SMOOTH",
"256 1084 OFFCURVE",
"446 1336 OFFCURVE",
"696 1336 CURVE SMOOTH",
"948 1336 OFFCURVE",
"1120 1084 OFFCURVE",
"1120 738 CURVE SMOOTH",
"1120 396 OFFCURVE",
"948 144 OFFCURVE",
"696 144 CURVE SMOOTH"
);
}
);
width = 1882;
}
);
leftKerningGroup = LAT_O_UC;
leftMetricsKey = O;
rightKerningGroup = LAT_E_UC;
rightMetricsKey = E;
unicode = 0152;
},
{
glyphname = P;
lastChange = "2021-05-03 01:08:30 +0000";
layers = (
{
anchors = (
{
name = bottom;
position = "{210, 0}";
},
{
name = top;
position = "{548, 1474}";
}
);
layerId = "AB099EFE-E788-4EFC-8633-CF147CB782A6";
paths = (
{
closed = 1;
nodes = (
"502 666 LINE SMOOTH",
"720 666 OFFCURVE",
"862 854 OFFCURVE",
"862 1078 CURVE SMOOTH",
"862 1320 OFFCURVE",
"704 1474 OFFCURVE",
"492 1474 CURVE SMOOTH",
"214 1474 LINE",
"214 1414 LINE",
"486 1414 LINE SMOOTH",
"670 1414 OFFCURVE",
"798 1286 OFFCURVE",
"798 1078 CURVE SMOOTH",
"798 868 OFFCURVE",
"672 726 OFFCURVE",
"492 726 CURVE SMOOTH",
"214 726 LINE",
"214 666 LINE"
);
},
{
closed = 1;
nodes = (
"242 0 LINE",
"242 1474 LINE",
"178 1474 LINE",
"178 0 LINE"
);
}
);
width = 962;
},
{
anchors = (
{
name = bottom;
position = "{286, 0}";
},
{
name = top;
position = "{582, 1474}";
}
);
layerId = "2D8F7115-C311-411E-929D-56333CF7FFB2";
paths = (
{
closed = 1;
nodes = (
"580 450 LINE SMOOTH",
"872 450 OFFCURVE",
"1076 660 OFFCURVE",
"1076 974 CURVE SMOOTH",
"1076 1278 OFFCURVE",
"892 1474 OFFCURVE",
"574 1474 CURVE SMOOTH",
"402 1474 LINE",
"402 1146 LINE",
"554 1146 LINE SMOOTH",
"652 1146 OFFCURVE",
"716 1074 OFFCURVE",
"716 962 CURVE SMOOTH",
"716 856 OFFCURVE",
"656 774 OFFCURVE",
"564 774 CURVE SMOOTH",
"402 774 LINE",
"402 450 LINE"
);
},
{
closed = 1;
nodes = (
"468 0 LINE",
"468 1474 LINE",
"100 1474 LINE",
"100 0 LINE"
);
}
);
width = 1096;
},
{
anchors = (
{
name = bottom;
position = "{238, 0}";
},
{
name = top;
position = "{560, 1474}";
}
);
layerId = "FD1CEFBD-BAB1-4C2A-A598-30E93F9A29F6";
paths = (
{
closed = 1;
nodes = (
"530 586 LINE SMOOTH",
"778 586 OFFCURVE",
"938 778 OFFCURVE",
"938 1040 CURVE SMOOTH",
"938 1304 OFFCURVE",
"774 1474 OFFCURVE",
"522 1474 CURVE SMOOTH",
"284 1474 LINE",
"284 1310 LINE",
"510 1310 LINE SMOOTH",
"662 1310 OFFCURVE",
"760 1208 OFFCURVE",
"760 1036 CURVE SMOOTH",
"760 864 OFFCURVE",
"664 750 OFFCURVE",
"520 750 CURVE SMOOTH",
"284 750 LINE",
"284 586 LINE"
);
},
{
closed = 1;
nodes = (
"328 0 LINE",
"328 1474 LINE",
"148 1474 LINE",
"148 0 LINE"
);
}
);
width = 1014;
}
);
leftKerningGroup = LAT_H_UC;
leftMetricsKey = H;
rightKerningGroup = LAT_P_UC;
unicode = 0050;
},
{
glyphname = Thorn;
lastChange = "2021-05-03 01:08:30 +0000";
layers = (
{
layerId = "AB099EFE-E788-4EFC-8633-CF147CB782A6";
paths = (
{
closed = 1;
nodes = (
"558 328 LINE SMOOTH",
"768 328 OFFCURVE",
"908 500 OFFCURVE",
"908 742 CURVE SMOOTH",
"908 984 OFFCURVE",
"768 1138 OFFCURVE",
"558 1138 CURVE SMOOTH",
"222 1138 LINE",
"222 1078 LINE",
"564 1078 LINE SMOOTH",
"732 1078 OFFCURVE",
"844 950 OFFCURVE",
"844 742 CURVE SMOOTH",
"844 532 OFFCURVE",
"732 388 OFFCURVE",
"564 388 CURVE SMOOTH",
"222 388 LINE",
"222 328 LINE"
);
},
{
closed = 1;
nodes = (
"242 0 LINE",
"242 1474 LINE",
"178 1474 LINE",
"178 0 LINE"
);
}
);
width = 1006;
},
{
layerId = "2D8F7115-C311-411E-929D-56333CF7FFB2";
paths = (
{
closed = 1;
nodes = (
"580 230 LINE SMOOTH",
"864 230 OFFCURVE",
"1054 442 OFFCURVE",
"1054 752 CURVE SMOOTH",
"1054 1060 OFFCURVE",
"868 1250 OFFCURVE",
"572 1250 CURVE SMOOTH",
"392 1250 LINE",
"392 930 LINE",
"548 930 LINE SMOOTH",
"642 930 OFFCURVE",
"704 856 OFFCURVE",
"704 742 CURVE SMOOTH",
"704 632 OFFCURVE",
"646 550 OFFCURVE",
"562 550 CURVE SMOOTH",
"392 550 LINE",
"392 230 LINE"
);
},
{
closed = 1;
nodes = (
"468 0 LINE",
"468 1474 LINE",
"100 1474 LINE",
"100 0 LINE"
);
}
);
width = 1092;
},
{
layerId = "FD1CEFBD-BAB1-4C2A-A598-30E93F9A29F6";
paths = (
{
closed = 1;
nodes = (
"568 290 LINE SMOOTH",
"810 290 OFFCURVE",
"970 480 OFFCURVE",
"970 746 CURVE SMOOTH",
"970 1016 OFFCURVE",
"806 1180 OFFCURVE",
"564 1180 CURVE SMOOTH",
"282 1180 LINE",
"282 1016 LINE",
"560 1016 LINE SMOOTH",
"706 1016 OFFCURVE",
"794 918 OFFCURVE",
"794 742 CURVE SMOOTH",
"794 570 OFFCURVE",
"706 454 OFFCURVE",
"566 454 CURVE SMOOTH",
"282 454 LINE",
"282 290 LINE"
);
},
{
closed = 1;
nodes = (
"328 0 LINE",
"328 1474 LINE",
"148 1474 LINE",
"148 0 LINE"
);
}
);
width = 1048;
}
);
leftKerningGroup = LAT_H_UC;
leftMetricsKey = H;
rightKerningGroup = LAT_P_SC;
unicode = 00DE;
},
{
glyphname = Q;
lastChange = "2021-05-03 01:08:30 +0000";
layers = (
{
anchors = (
{
name = bottom;
position = "{708, 0}";
},
{
name = top;
position = "{702, 1474}";
}
);
components = (
{
name = O;
}
);
layerId = "AB099EFE-E788-4EFC-8633-CF147CB782A6";
paths = (
{
closed = 1;
nodes = (
"1192 0 LINE",
"1084 170 LINE",
"1070 186 LINE",
"856 548 LINE",
"784 548 LINE",
"1024 150 LINE",
"1036 136 LINE",
"1120 0 LINE"
);
}
);
width = 1412;
},
{
anchors = (
{
name = bottom;
position = "{680, 0}";
},
{
name = top;
position = "{682, 1474}";
}
);
components = (
{
name = O;
}
);
layerId = "2D8F7115-C311-411E-929D-56333CF7FFB2";
paths = (
{
closed = 1;
nodes = (
"1450 0 LINE",
"1214 300 LINE",
"1006 450 LINE",
"888 630 LINE",
"490 630 LINE",
"754 320 LINE",
"932 200 LINE",
"1084 0 LINE"
);
}
);
width = 1418;
},
{
anchors = (
{
name = bottom;
position = "{698, 0}";
},
{
name = top;
position = "{698, 1474}";
}
);
components = (
{
name = O;
}
);
layerId = "FD1CEFBD-BAB1-4C2A-A598-30E93F9A29F6";
paths = (
{
closed = 1;
nodes = (
"1294 0 LINE",
"1138 226 LINE",
"1064 294 LINE",
"884 598 LINE",
"692 598 LINE",
"934 218 LINE",
"1000 160 LINE",
"1104 0 LINE"
);
}
);
width = 1398;
}
);
leftKerningGroup = LAT_O_UC;
leftMetricsKey = O;
rightKerningGroup = LAT_Q_UC;
unicode = 0051;
},
{
glyphname = R;
lastChange = "2021-05-03 01:08:30 +0000";
layers = (
{
anchors = (
{
name = bottom;
position = "{556, 0}";
},
{
name = top;
position = "{496, 1474}";
}
);
guideLines = (
{
angle = 120;
position = "{544, 0}";
},
{
angle = 67.5;
position = "{132, 2}";
}
);
layerId = "AB099EFE-E788-4EFC-8633-CF147CB782A6";
paths = (
{
closed = 1;
nodes = (
"212 1414 LINE",
"486 1414 LINE SMOOTH",
"670 1414 OFFCURVE",
"798 1286 OFFCURVE",
"798 1078 CURVE SMOOTH",
"798 868 OFFCURVE",
"672 726 OFFCURVE",
"492 726 CURVE SMOOTH",
"212 726 LINE",
"212 666 LINE",
"502 666 LINE SMOOTH",
"720 666 OFFCURVE",
"862 854 OFFCURVE",
"862 1078 CURVE SMOOTH",
"862 1320 OFFCURVE",
"704 1474 OFFCURVE",
"494 1474 CURVE SMOOTH",
"212 1474 LINE"
);
},
{
closed = 1;
nodes = (
"242 1474 LINE",
"178 1474 LINE",
"178 0 LINE",
"242 0 LINE"
);
},
{
closed = 1;
nodes = (
"496 672 LINE",
"874 0 LINE",
"946 0 LINE",
"540 716 LINE"
);
}
);
width = 1036;
},
{
anchors = (
{
name = bottom;
position = "{608, 0}";
},
{
name = top;
position = "{556, 1474}";
}
);
guideLines = (
{
angle = 120;
position = "{664, 0}";
}
);
layerId = "2D8F7115-C311-411E-929D-56333CF7FFB2";
paths = (
{
closed = 1;
nodes = (
"366 1146 LINE",
"552 1146 LINE SMOOTH",
"646 1146 OFFCURVE",
"712 1074 OFFCURVE",
"712 962 CURVE SMOOTH",
"712 856 OFFCURVE",
"650 782 OFFCURVE",
"562 782 CURVE SMOOTH",
"366 782 LINE",
"366 484 LINE",
"506 484 LINE SMOOTH",
"862 484 OFFCURVE",
"1072 714 OFFCURVE",
"1072 1012 CURVE SMOOTH",
"1072 1312 OFFCURVE",
"870 1474 OFFCURVE",
"610 1474 CURVE SMOOTH",
"366 1474 LINE"
);
},
{
closed = 1;
nodes = (
"468 1474 LINE",
"100 1474 LINE",
"100 0 LINE",
"468 0 LINE"
);
},
{
closed = 1;
nodes = (
"558 536 LINE",
"782 0 LINE",
"1194 0 LINE",
"830 754 LINE"
);
}
);
width = 1220;
},
{
anchors = (
{
name = bottom;
position = "{574, 0}";
},
{
name = top;
position = "{524, 1474}";
}
);
hints = (
{
horizontal = 1;
origin = "{0, 10}";
type = Delta;
settings = {
deltaV = {
"{100, 88, 0, 0, 0, 0}" = {
"12" = 3;
};
};
};
},
{
horizontal = 1;
origin = "{0, 9}";
type = Delta;
settings = {
deltaV = {
"{100, 88, 0, 0, 0, 0}" = {
"12" = 3;
};
};
};
},
{
horizontal = 1;
origin = "{0, 8}";
type = Delta;
settings = {
deltaV = {
"{100, 88, 0, 0, 0, 0}" = {
"12" = 3;
};
};
};
},
{
horizontal = 1;
origin = "{0, 7}";
type = Delta;
settings = {
deltaV = {
"{100, 88, 0, 0, 0, 0}" = {
"12" = 3;
};
};
};
},
{
horizontal = 1;
origin = "{0, 8, 1, 0}";
type = Delta;
settings = {
deltaV = {
"{100, 88, 0, 0, 0, 0}" = {
"12" = 3;
};
};
};
},
{
horizontal = 1;
origin = "{0, 10, 1, 0}";
type = Delta;
settings = {
deltaV = {
"{100, 88, 0, 0, 0, 0}" = {
"12" = 3;
};
};
};
},
{
horizontal = 1;
origin = "{0, 13, 2, 1}";
type = Delta;
settings = {
deltaV = {
"{100, 88, 0, 0, 0, 0}" = {
"12" = 3;
};
};
};
},
{
horizontal = 1;
origin = "{0, 13, 2, 3}";
type = Delta;
settings = {
deltaV = {
"{100, 88, 0, 0, 0, 0}" = {
"12" = 3;
};
};
};
}
);
layerId = "FD1CEFBD-BAB1-4C2A-A598-30E93F9A29F6";
paths = (
{
closed = 1;
nodes = (
"270 1310 LINE",
"510 1310 LINE SMOOTH",
"660 1310 OFFCURVE",
"762 1208 OFFCURVE",
"762 1036 CURVE SMOOTH",
"762 864 OFFCURVE",
"664 754 OFFCURVE",
"520 754 CURVE SMOOTH",
"270 754 LINE",
"270 598 LINE",
"504 598 LINE SMOOTH",
"774 598 OFFCURVE",
"940 800 OFFCURVE",
"940 1052 CURVE SMOOTH",
"940 1316 OFFCURVE",
"766 1474 OFFCURVE",
"538 1474 CURVE SMOOTH",
"270 1474 LINE"
);
},
{
closed = 1;
nodes = (
"328 1474 LINE",
"148 1474 LINE",
"148 0 LINE",
"328 0 LINE"
);
},
{
closed = 1;
nodes = (
"514 626 LINE",
"834 0 LINE",
"1040 0 LINE",
"652 734 LINE"
);
}
);
width = 1106;
}
);
leftKerningGroup = LAT_H_UC;
leftMetricsKey = H;
rightKerningGroup = LAT_R_UC;
unicode = 0052;
},
{
glyphname = S;
lastChange = "2021-05-03 01:08:30 +0000";
layers = (
{
anchors = (
{
name = bottom;
position = "{500, 0}";
},
{
name = cedilla;
position = "{484, 0}";
},
{
name = top;
position = "{476, 1474}";
}
);
layerId = "AB099EFE-E788-4EFC-8633-CF147CB782A6";
paths = (
{
closed = 1;
nodes = (
"670 -16 OFFCURVE",
"842 128 OFFCURVE",
"842 366 CURVE SMOOTH",
"842 662 OFFCURVE",
"582 746 OFFCURVE",
"470 798 CURVE SMOOTH",
"360 850 OFFCURVE",
"210 944 OFFCURVE",
"210 1144 CURVE SMOOTH",
"210 1308 OFFCURVE",
"310 1430 OFFCURVE",
"466 1430 CURVE SMOOTH",
"616 1430 OFFCURVE",
"700 1320 OFFCURVE",
"736 1234 CURVE",
"792 1258 LINE",
"748 1366 OFFCURVE",
"642 1490 OFFCURVE",
"466 1490 CURVE SMOOTH",
"276 1490 OFFCURVE",
"146 1348 OFFCURVE",
"146 1140 CURVE SMOOTH",
"146 918 OFFCURVE",
"290 818 OFFCURVE",
"476 730 CURVE SMOOTH",
"590 676 OFFCURVE",
"778 596 OFFCURVE",
"778 366 CURVE SMOOTH",
"778 168 OFFCURVE",
"640 44 OFFCURVE",
"488 44 CURVE SMOOTH",
"348 44 OFFCURVE",
"222 138 OFFCURVE",
"174 288 CURVE",
"110 262 LINE",
"162 128 OFFCURVE",
"286 -16 OFFCURVE",
"480 -16 CURVE SMOOTH"
);
}
);
userData = {
RMXScaler = {
height = 139;
width = 140;
};
};
width = 966;
},
{
anchors = (
{
name = bottom;
position = "{558, 0}";
},
{
name = cedilla;
position = "{586, 0}";
},
{
name = top;
position = "{520, 1474}";
}
);
guideLines = (
{
angle = 22.5;
position = "{308, 288}";
},
{
angle = 90;
position = "{76, -108}";
},
{
angle = 90;
position = "{528, -108}";
}
);
layerId = "2D8F7115-C311-411E-929D-56333CF7FFB2";
paths = (
{
closed = 1;
nodes = (
"800 -16 OFFCURVE",
"1002 198 OFFCURVE",
"998 454 CURVE SMOOTH",
"994 730 OFFCURVE",
"808 824 OFFCURVE",
"706 862 CURVE SMOOTH",
"658 880 OFFCURVE",
"436 938 OFFCURVE",
"436 1054 CURVE SMOOTH",
"436 1116 OFFCURVE",
"464 1164 OFFCURVE",
"520 1164 CURVE SMOOTH",
"568 1164 OFFCURVE",
"616 1094 OFFCURVE",
"636 1036 CURVE",
"972 1176 LINE",
"910 1356 OFFCURVE",
"754 1490 OFFCURVE",
"518 1490 CURVE SMOOTH",
"242 1490 OFFCURVE",
"68 1312 OFFCURVE",
"68 1062 CURVE SMOOTH",
"68 816 OFFCURVE",
"238 688 OFFCURVE",
"402 626 CURVE SMOOTH",
"498 590 OFFCURVE",
"628 558 OFFCURVE",
"628 444 CURVE SMOOTH",
"628 376 OFFCURVE",
"590 320 OFFCURVE",
"540 320 CURVE SMOOTH",
"458 320 OFFCURVE",
"402 418 OFFCURVE",
"378 504 CURVE",
"24 356 LINE",
"86 148 OFFCURVE",
"314 -16 OFFCURVE",
"530 -16 CURVE SMOOTH"
);
}
);
userData = {
RMXScaler = {
height = 137;
weight = 160;
width = 140;
};
};
width = 1036;
},
{
anchors = (
{
name = bottom;
position = "{508, 0}";
},
{
name = cedilla;
position = "{514, 0}";
},
{
name = top;
position = "{498, 1474}";
}
);
layerId = "FD1CEFBD-BAB1-4C2A-A598-30E93F9A29F6";
paths = (
{
closed = 1;
nodes = (
"720 -16 OFFCURVE",
"900 150 OFFCURVE",
"900 402 CURVE SMOOTH",
"900 700 OFFCURVE",
"650 792 OFFCURVE",
"548 836 CURVE SMOOTH",
"458 876 OFFCURVE",
"308 946 OFFCURVE",
"308 1116 CURVE SMOOTH",
"308 1252 OFFCURVE",
"396 1326 OFFCURVE",
"490 1326 CURVE SMOOTH",
"602 1326 OFFCURVE",
"674 1234 OFFCURVE",
"702 1164 CURVE",
"864 1228 LINE",
"810 1364 OFFCURVE",
"686 1490 OFFCURVE",
"490 1490 CURVE SMOOTH",
"278 1490 OFFCURVE",
"132 1344 OFFCURVE",
"132 1120 CURVE SMOOTH",
"132 882 OFFCURVE",
"284 760 OFFCURVE",
"452 692 CURVE SMOOTH",
"534 660 OFFCURVE",
"724 592 OFFCURVE",
"724 394 CURVE SMOOTH",
"724 250 OFFCURVE",
"622 148 OFFCURVE",
"508 148 CURVE SMOOTH",
"384 148 OFFCURVE",
"292 262 OFFCURVE",
"258 390 CURVE",
"90 320 LINE",
"140 148 OFFCURVE",
"308 -16 OFFCURVE",
"512 -16 CURVE SMOOTH"
);
}
);
userData = {
RMXScaler = {
height = 139;
width = 140;
};
};
width = 998;
}
);
leftKerningGroup = LAT_S_UC;
rightKerningGroup = LAT_S_UC;
unicode = 0053;
userData = {
RMXScaler = {
source = s;
};
};
},
{
glyphname = Germandbls;
lastChange = "2021-05-03 01:08:30 +0000";
layers = (
{
layerId = "AB099EFE-E788-4EFC-8633-CF147CB782A6";
paths = (
{
closed = 1;
nodes = (
"842 -16 OFFCURVE",
"1020 190 OFFCURVE",
"1020 458 CURVE SMOOTH",
"1020 714 OFFCURVE",
"862 906 OFFCURVE",
"592 892 CURVE",
"618 860 LINE",
"824 1414 LINE",
"824 1430 LINE",
"726 1476 OFFCURVE",
"606 1490 OFFCURVE",
"520 1490 CURVE SMOOTH",
"166 1490 OFFCURVE",
"166 1220 OFFCURVE",
"166 1126 CURVE SMOOTH",
"166 0 LINE",
"230 0 LINE",
"230 1132 LINE SMOOTH",
"230 1220 OFFCURVE",
"232 1430 OFFCURVE",
"508 1430 CURVE SMOOTH",
"598 1430 OFFCURVE",
"710 1412 OFFCURVE",
"764 1386 CURVE",
"760 1420 LINE",
"556 864 LINE",
"556 836 LINE",
"594 836 LINE SMOOTH",
"820 836 OFFCURVE",
"956 688 OFFCURVE",
"956 460 CURVE SMOOTH",
"956 208 OFFCURVE",
"792 44 OFFCURVE",
"610 44 CURVE SMOOTH",
"558 44 OFFCURVE",
"490 60 OFFCURVE",
"442 80 CURVE",
"442 16 LINE",
"480 -4 OFFCURVE",
"548 -16 OFFCURVE",
"604 -16 CURVE SMOOTH"
);
}
);
width = 1140;
},
{
layerId = "2D8F7115-C311-411E-929D-56333CF7FFB2";
paths = (
{
closed = 1;
nodes = (
"1056 -16 OFFCURVE",
"1248 180 OFFCURVE",
"1248 480 CURVE SMOOTH",
"1248 714 OFFCURVE",
"1144 902 OFFCURVE",
"950 934 CURVE",
"954 766 LINE",
"1166 1340 LINE",
"1166 1376 LINE",
"1074 1438 OFFCURVE",
"852 1490 OFFCURVE",
"656 1490 CURVE SMOOTH",
"340 1490 OFFCURVE",
"90 1324 OFFCURVE",
"90 1020 CURVE SMOOTH",
"90 0 LINE",
"458 0 LINE",
"458 974 LINE SMOOTH",
"458 1030 OFFCURVE",
"468 1170 OFFCURVE",
"674 1170 CURVE SMOOTH",
"748 1170 OFFCURVE",
"786 1152 OFFCURVE",
"792 1126 CURVE",
"772 1216 LINE",
"634 738 LINE",
"634 676 LINE",
"736 676 LINE SMOOTH",
"848 676 OFFCURVE",
"890 586 OFFCURVE",
"888 484 CURVE SMOOTH",
"886 370 OFFCURVE",
"834 312 OFFCURVE",
"724 312 CURVE SMOOTH",
"704 312 OFFCURVE",
"694 314 OFFCURVE",
"638 324 CURVE",
"638 -12 LINE",
"678 -12 OFFCURVE",
"696 -16 OFFCURVE",
"738 -16 CURVE SMOOTH"
);
}
);
width = 1276;
},
{
layerId = "FD1CEFBD-BAB1-4C2A-A598-30E93F9A29F6";
paths = (
{
closed = 1;
nodes = (
"920 -16 OFFCURVE",
"1108 176 OFFCURVE",
"1108 466 CURVE SMOOTH",
"1108 714 OFFCURVE",
"972 902 OFFCURVE",
"730 910 CURVE",
"754 828 LINE",
"960 1384 LINE",
"960 1410 LINE",
"858 1462 OFFCURVE",
"702 1490 OFFCURVE",
"570 1490 CURVE SMOOTH",
"298 1490 OFFCURVE",
"140 1352 OFFCURVE",
"140 1086 CURVE SMOOTH",
"140 0 LINE",
"320 0 LINE",
"320 1074 LINE SMOOTH",
"320 1222 OFFCURVE",
"382 1326 OFFCURVE",
"578 1326 CURVE SMOOTH",
"662 1326 OFFCURVE",
"748 1304 OFFCURVE",
"776 1282 CURVE",
"766 1344 LINE",
"588 820 LINE",
"588 774 LINE",
"650 774 LINE SMOOTH",
"830 774 OFFCURVE",
"928 656 OFFCURVE",
"928 472 CURVE SMOOTH",
"928 284 OFFCURVE",
"820 148 OFFCURVE",
"656 148 CURVE SMOOTH",
"624 148 OFFCURVE",
"590 152 OFFCURVE",
"520 176 CURVE",
"520 8 LINE",
"556 -8 OFFCURVE",
"610 -16 OFFCURVE",
"660 -16 CURVE SMOOTH"
);
}
);
width = 1198;
}
);
leftKerningGroup = LAT_GERMANDBLS_UC;
rightKerningGroup = LAT_GERMANDBLS_UC;
rightMetricsKey = B;
unicode = 1E9E;
},
{
glyphname = Schwa;
lastChange = "2021-05-03 01:08:30 +0000";
layers = (
{
anchors = (
{
name = bottom;
position = "{650, 0}";
},
{
name = top;
position = "{650, 1474}";
}
);
layerId = "AB099EFE-E788-4EFC-8633-CF147CB782A6";
paths = (
{
closed = 1;
nodes = (
"962 -16 OFFCURVE",
"1218 308 OFFCURVE",
"1218 738 CURVE SMOOTH",
"1218 1172 OFFCURVE",
"976 1490 OFFCURVE",
"620 1490 CURVE SMOOTH",
"450 1490 OFFCURVE",
"314 1418 OFFCURVE",
"228 1336 CURVE",
"254 1272 LINE",
"336 1370 OFFCURVE",
"474 1430 OFFCURVE",
"618 1430 CURVE SMOOTH",
"930 1430 OFFCURVE",
"1156 1130 OFFCURVE",
"1156 736 CURVE SMOOTH",
"1156 330 OFFCURVE",
"918 44 OFFCURVE",
"626 44 CURVE SMOOTH",
"328 44 OFFCURVE",
"172 340 OFFCURVE",
"172 698 CURVE",
"1190 698 LINE",
"1190 758 LINE",
"108 758 LINE",
"108 704 LINE SMOOTH",
"108 270 OFFCURVE",
"308 -16 OFFCURVE",
"626 -16 CURVE SMOOTH"
);
}
);
width = 1326;
},
{
anchors = (
{
name = bottom;
position = "{644, 0}";
},
{
name = top;
position = "{650, 1474}";
}
);
layerId = "2D8F7115-C311-411E-929D-56333CF7FFB2";
paths = (
{
closed = 1;
nodes = (
"1046 -16 OFFCURVE",
"1326 304 OFFCURVE",
"1326 730 CURVE SMOOTH",
"1326 1188 OFFCURVE",
"988 1490 OFFCURVE",
"626 1490 CURVE SMOOTH",
"510 1490 OFFCURVE",
"372 1454 OFFCURVE",
"246 1372 CURVE",
"386 1044 LINE",
"436 1106 OFFCURVE",
"522 1156 OFFCURVE",
"622 1156 CURVE SMOOTH",
"810 1156 OFFCURVE",
"946 996 OFFCURVE",
"946 738 CURVE SMOOTH",
"946 496 OFFCURVE",
"834 312 OFFCURVE",
"638 312 CURVE SMOOTH",
"520 312 OFFCURVE",
"398 414 OFFCURVE",
"402 562 CURVE",
"966 562 LINE",
"966 866 LINE",
"56 866 LINE",
"56 638 LINE SMOOTH",
"56 246 OFFCURVE",
"294 -16 OFFCURVE",
"648 -16 CURVE SMOOTH"
);
}
);
width = 1344;
},
{
anchors = (
{
name = bottom;
position = "{634, 0}";
},
{
name = top;
position = "{648, 1474}";
}
);
layerId = "FD1CEFBD-BAB1-4C2A-A598-30E93F9A29F6";
paths = (
{
closed = 1;
nodes = (
"976 -16 OFFCURVE",
"1246 288 OFFCURVE",
"1246 736 CURVE SMOOTH",
"1246 1134 OFFCURVE",
"1010 1490 OFFCURVE",
"612 1490 CURVE SMOOTH",
"452 1490 OFFCURVE",
"322 1430 OFFCURVE",
"222 1352 CURVE",
"292 1184 LINE",
"362 1270 OFFCURVE",
"482 1326 OFFCURVE",
"616 1326 CURVE SMOOTH",
"880 1326 OFFCURVE",
"1066 1080 OFFCURVE",
"1066 742 CURVE SMOOTH",
"1066 390 OFFCURVE",
"876 148 OFFCURVE",
"628 148 CURVE SMOOTH",
"396 148 OFFCURVE",
"258 374 OFFCURVE",
"260 638 CURVE",
"1114 638 LINE",
"1114 802 LINE",
"82 802 LINE",
"82 672 LINE SMOOTH",
"82 282 OFFCURVE",
"290 -16 OFFCURVE",
"628 -16 CURVE SMOOTH"
);
}
);
width = 1322;
}
);
leftKerningGroup = LAT_SCHWA_UC;
rightKerningGroup = LAT_O_UC;
rightMetricsKey = O;
unicode = 018F;
},
{
glyphname = T;
lastChange = "2021-05-03 01:08:30 +0000";
layers = (
{
anchors = (
{
name = bottom;
position = "{456, 0}";
},
{
name = cedilla;
position = "{456, 0}";
},
{
name = center;
position = "{456, 738}";
},
{
name = top;
position = "{456, 1474}";
}
);
layerId = "AB099EFE-E788-4EFC-8633-CF147CB782A6";
paths = (
{
closed = 1;
nodes = (
"488 0 LINE",
"488 1432 LINE",
"424 1432 LINE",
"424 0 LINE"
);
},
{
closed = 1;
nodes = (
"842 1414 LINE",
"842 1474 LINE",
"70 1474 LINE",
"70 1414 LINE"
);
}
);
width = 912;
},
{
anchors = (
{
name = bottom;
position = "{492, 0}";
},
{
name = cedilla;
position = "{494, 0}";
},
{
name = center;
position = "{492, 672}";
},
{
name = top;
position = "{492, 1474}";
}
);
layerId = "2D8F7115-C311-411E-929D-56333CF7FFB2";
paths = (
{
closed = 1;
nodes = (
"676 0 LINE",
"676 1196 LINE",
"308 1196 LINE",
"308 0 LINE"
);
},
{
closed = 1;
nodes = (
"960 1146 LINE",
"960 1474 LINE",
"26 1474 LINE",
"26 1146 LINE"
);
}
);
width = 986;
},
{
anchors = (
{
name = bottom;
position = "{472, 0}";
},
{
name = cedilla;
position = "{468, 0}";
},
{
name = center;
position = "{472, 712}";
},
{
name = top;
position = "{472, 1474}";
}
);
layerId = "FD1CEFBD-BAB1-4C2A-A598-30E93F9A29F6";
paths = (
{
closed = 1;
nodes = (
"562 0 LINE",
"562 1344 LINE",
"382 1344 LINE",
"382 0 LINE"
);
},
{
closed = 1;
nodes = (
"892 1310 LINE",
"892 1474 LINE",
"56 1474 LINE",
"56 1310 LINE"
);
}
);
width = 948;
}
);
leftKerningGroup = LAT_T_UC;
rightKerningGroup = LAT_T_UC;
unicode = 0054;
},
{
glyphname = U;
lastChange = "2021-05-03 01:08:30 +0000";
layers = (
{
anchors = (
{
name = bottom;
position = "{594, 0}";
},
{
name = horn;
position = "{976, 1474}";
},
{
name = ogonek;
position = "{706, 0}";
},
{
name = top;
position = "{594, 1474}";
}
);
layerId = "AB099EFE-E788-4EFC-8633-CF147CB782A6";
paths = (
{
closed = 1;
nodes = (
"178 178 OFFCURVE",
"344 -16 OFFCURVE",
"594 -16 CURVE SMOOTH",
"844 -16 OFFCURVE",
"1006 176 OFFCURVE",
"1006 476 CURVE SMOOTH",
"1006 1474 LINE",
"942 1474 LINE",
"942 492 LINE SMOOTH",
"942 220 OFFCURVE",
"806 44 OFFCURVE",
"594 44 CURVE SMOOTH",
"384 44 OFFCURVE",
"242 218 OFFCURVE",
"242 492 CURVE SMOOTH",
"242 1474 LINE",
"178 1474 LINE",
"178 476 LINE SMOOTH"
);
}
);
width = 1184;
},
{
anchors = (
{
name = bottom;
position = "{628, 0}";
},
{
name = horn;
position = "{1072, 1474}";
},
{
name = ogonek;
position = "{750, 0}";
},
{
name = top;
position = "{628, 1474}";
}
);
layerId = "2D8F7115-C311-411E-929D-56333CF7FFB2";
paths = (
{
closed = 1;
nodes = (
"100 224 OFFCURVE",
"306 -16 OFFCURVE",
"628 -16 CURVE SMOOTH",
"952 -16 OFFCURVE",
"1158 222 OFFCURVE",
"1158 586 CURVE SMOOTH",
"1158 1474 LINE",
"790 1474 LINE",
"790 552 LINE SMOOTH",
"790 406 OFFCURVE",
"726 312 OFFCURVE",
"628 312 CURVE SMOOTH",
"538 312 OFFCURVE",
"468 402 OFFCURVE",
"468 552 CURVE SMOOTH",
"468 1474 LINE",
"100 1474 LINE",
"100 586 LINE SMOOTH"
);
}
);
width = 1258;
},
{
anchors = (
{
name = bottom;
position = "{606, 0}";
},
{
name = horn;
position = "{1014, 1474}";
},
{
name = ogonek;
position = "{724, 0}";
},
{
name = top;
position = "{606, 1474}";
}
);
layerId = "FD1CEFBD-BAB1-4C2A-A598-30E93F9A29F6";
paths = (
{
closed = 1;
nodes = (
"148 194 OFFCURVE",
"330 -16 OFFCURVE",
"606 -16 CURVE SMOOTH",
"888 -16 OFFCURVE",
"1066 194 OFFCURVE",
"1066 516 CURVE SMOOTH",
"1066 1474 LINE",
"886 1474 LINE",
"886 516 LINE SMOOTH",
"886 296 OFFCURVE",
"778 148 OFFCURVE",
"606 148 CURVE SMOOTH",
"442 148 OFFCURVE",
"328 296 OFFCURVE",
"328 516 CURVE SMOOTH",
"328 1474 LINE",
"148 1474 LINE",
"148 516 LINE SMOOTH"
);
}
);
width = 1214;
}
);
leftKerningGroup = LAT_U_UC;
leftMetricsKey = H;
rightKerningGroup = LAT_U_UC;
rightMetricsKey = H;
unicode = 0055;
},
{
glyphname = V;
lastChange = "2021-05-03 01:08:30 +0000";
layers = (
{
anchors = (
{
name = bottom;
position = "{606, 0}";
},
{
name = top;
position = "{600, 1474}";
}
);
layerId = "AB099EFE-E788-4EFC-8633-CF147CB782A6";
paths = (
{
closed = 1;
nodes = (
"630 0 LINE",
"1146 1474 LINE",
"1074 1474 LINE",
"780 600 LINE",
"606 78 LINE",
"600 78 LINE",
"426 600 LINE",
"132 1474 LINE",
"60 1474 LINE",
"576 0 LINE"
);
}
);
width = 1206;
},
{
anchors = (
{
name = bottom;
position = "{652, 0}";
},
{
name = top;
position = "{650, 1474}";
}
);
layerId = "2D8F7115-C311-411E-929D-56333CF7FFB2";
paths = (
{
closed = 1;
nodes = (
"810 0 LINE",
"1316 1474 LINE",
"908 1474 LINE",
"750 898 LINE",
"652 496 LINE",
"646 496 LINE",
"540 898 LINE",
"384 1474 LINE",
"-18 1474 LINE",
"496 0 LINE"
);
}
);
width = 1296;
},
{
anchors = (
{
name = bottom;
position = "{616, 0}";
},
{
name = top;
position = "{610, 1474}";
}
);
layerId = "FD1CEFBD-BAB1-4C2A-A598-30E93F9A29F6";
paths = (
{
closed = 1;
nodes = (
"684 0 LINE",
"1200 1474 LINE",
"1004 1474 LINE",
"766 712 LINE",
"616 258 LINE",
"608 258 LINE",
"456 712 LINE",
"220 1474 LINE",
"22 1474 LINE",
"540 0 LINE"
);
}
);
width = 1224;
}
);
leftKerningGroup = LAT_V_UC;
rightKerningGroup = LAT_V_UC;
unicode = 0056;
},
{
glyphname = W;
lastChange = "2021-05-03 01:08:30 +0000";
layers = (
{
anchors = (
{
name = bottom;
position = "{794, 0}";
},
{
name = top;
position = "{794, 1474}";
}
);
layerId = "AB099EFE-E788-4EFC-8633-CF147CB782A6";
paths = (
{
closed = 1;
nodes = (
"404 0 LINE",
"480 0 LINE",
"790 1248 LINE",
"796 1248 LINE",
"1108 0 LINE",
"1182 0 LINE",
"1524 1474 LINE",
"1458 1474 LINE",
"1190 268 LINE",
"1148 70 LINE",
"1140 70 LINE",
"814 1376 LINE",
"774 1376 LINE",
"446 70 LINE",
"440 70 LINE",
"398 268 LINE",
"130 1474 LINE",
"62 1474 LINE"
);
}
);
width = 1586;
},
{
anchors = (
{
name = bottom;
position = "{894, 0}";
},
{
name = top;
position = "{894, 1474}";
}
);
layerId = "2D8F7115-C311-411E-929D-56333CF7FFB2";
paths = (
{
closed = 1;
nodes = (
"360 0 LINE",
"650 0 LINE",
"890 638 LINE",
"898 638 LINE",
"1136 0 LINE",
"1432 0 LINE",
"1800 1474 LINE",
"1420 1474 LINE",
"1306 880 LINE",
"1230 512 LINE",
"1222 512 LINE",
"966 1306 LINE",
"820 1306 LINE",
"564 512 LINE",
"558 512 LINE",
"482 880 LINE",
"372 1474 LINE",
"-12 1474 LINE"
);
}
);
width = 1788;
},
{
anchors = (
{
name = bottom;
position = "{826, 0}";
},
{
name = top;
position = "{826, 1474}";
}
);
layerId = "FD1CEFBD-BAB1-4C2A-A598-30E93F9A29F6";
paths = (
{
closed = 1;
nodes = (
"396 0 LINE",
"554 0 LINE",
"822 918 LINE",
"830 918 LINE",
"1098 0 LINE",
"1256 0 LINE",
"1622 1474 LINE",
"1438 1474 LINE",
"1246 614 LINE",
"1168 250 LINE",
"1160 250 LINE",
"864 1324 LINE",
"790 1324 LINE",
"494 250 LINE",
"484 250 LINE",
"406 614 LINE",
"216 1474 LINE",
"30 1474 LINE"
);
}
);
width = 1652;
}
);
leftKerningGroup = LAT_W_UC;
rightKerningGroup = LAT_W_UC;
unicode = 0057;
},
{
color = 9;
glyphname = W.ss03;
lastChange = "2021-05-03 01:08:30 +0000";
layers = (
{
anchors = (
{
name = bottom;
position = "{806, -50}";
},
{
name = top;
position = "{800, 1544}";
}
);
layerId = "AB099EFE-E788-4EFC-8633-CF147CB782A6";
paths = (
{
closed = 1;
nodes = (
"402 0 LINE",
"482 0 LINE",
"620 600 LINE",
"794 1352 LINE",
"800 1352 LINE",
"972 600 LINE",
"1112 0 LINE",
"1188 0 LINE",
"1532 1474 LINE",
"1464 1474 LINE",
"1266 592 LINE",
"1156 78 LINE",
"1148 78 LINE",
"1030 592 LINE",
"822 1474 LINE",
"772 1474 LINE",
"564 592 LINE",
"446 78 LINE",
"438 78 LINE",
"326 592 LINE",
"130 1474 LINE",
"62 1474 LINE"
);
}
);
width = 1594;
},
{
anchors = (
{
name = bottom;
position = "{880, -50}";
},
{
name = top;
position = "{872, 1524}";
}
);
layerId = "2D8F7115-C311-411E-929D-56333CF7FFB2";
paths = (
{
closed = 1;
nodes = (
"292 0 LINE",
"646 0 LINE",
"792 484 LINE",
"874 812 LINE",
"880 812 LINE",
"954 484 LINE",
"1106 0 LINE",
"1456 0 LINE",
"1734 1474 LINE",
"1358 1474 LINE",
"1290 884 LINE",
"1250 492 LINE",
"1238 492 LINE",
"1164 812 LINE",
"978 1474 LINE",
"772 1474 LINE",
"590 816 LINE",
"512 492 LINE",
"504 492 LINE",
"460 884 LINE",
"396 1474 LINE",
"14 1474 LINE"
);
}
);
width = 1748;
},
{
anchors = (
{
name = bottom;
position = "{826, -12}";
},
{
name = top;
position = "{822, 1490}";
}
);
layerId = "FD1CEFBD-BAB1-4C2A-A598-30E93F9A29F6";
paths = (
{
closed = 1;
nodes = (
"378 0 LINE",
"550 0 LINE",
"676 480 LINE",
"820 1094 LINE",
"826 1094 LINE",
"970 480 LINE",
"1096 0 LINE",
"1268 0 LINE",
"1606 1474 LINE",
"1426 1474 LINE",
"1258 688 LINE",
"1180 274 LINE",
"1172 274 LINE",
"1068 708 LINE",
"876 1474 LINE",
"770 1474 LINE",
"576 708 LINE",
"472 274 LINE",
"466 274 LINE",
"386 688 LINE",
"224 1474 LINE",
"38 1474 LINE"
);
}
);
width = 1644;
}
);
leftKerningGroup = LAT_W_UC;
rightKerningGroup = LAT_W_UC;
},
{
glyphname = X;
lastChange = "2021-05-03 01:08:30 +0000";
layers = (
{
anchors = (
{
name = bottom;
position = "{554, 0}";
},
{
name = top;
position = "{554, 1474}";
}
);
layerId = "AB099EFE-E788-4EFC-8633-CF147CB782A6";
paths = (
{
closed = 1;
nodes = (
"164 0 LINE",
"550 690 LINE",
"560 690 LINE",
"594 730 LINE",
"594 738 LINE",
"1018 1474 LINE",
"946 1474 LINE",
"556 784 LINE",
"546 784 LINE",
"512 742 LINE",
"512 734 LINE",
"88 0 LINE"
);
},
{
closed = 1;
nodes = (
"1018 0 LINE",
"594 734 LINE",
"594 742 LINE",
"560 784 LINE",
"550 784 LINE",
"162 1474 LINE",
"88 1474 LINE",
"512 738 LINE",
"512 730 LINE",
"546 690 LINE",
"556 690 LINE",
"942 0 LINE"
);
}
);
width = 1106;
},
{
anchors = (
{
name = bottom;
position = "{660, 0}";
},
{
name = top;
position = "{660, 1474}";
}
);
layerId = "2D8F7115-C311-411E-929D-56333CF7FFB2";
paths = (
{
closed = 1;
nodes = (
"440 0 LINE",
"658 462 LINE",
"664 462 LINE",
"916 738 LINE",
"916 742 LINE",
"1306 1474 LINE",
"874 1474 LINE",
"660 974 LINE",
"654 974 LINE",
"406 738 LINE",
"406 734 LINE",
"6 0 LINE"
);
},
{
closed = 1;
nodes = (
"1314 0 LINE",
"916 734 LINE",
"916 738 LINE",
"664 974 LINE",
"658 974 LINE",
"440 1474 LINE",
"14 1474 LINE",
"406 742 LINE",
"406 738 LINE",
"654 462 LINE",
"660 462 LINE",
"876 0 LINE"
);
}
);
width = 1320;
},
{
anchors = (
{
name = bottom;
position = "{594, 0}";
},
{
name = top;
position = "{594, 1474}";
}
);
layerId = "FD1CEFBD-BAB1-4C2A-A598-30E93F9A29F6";
paths = (
{
closed = 1;
nodes = (
"270 0 LINE",
"592 602 LINE",
"600 602 LINE",
"714 734 LINE",
"714 742 LINE",
"1126 1474 LINE",
"920 1474 LINE",
"598 860 LINE",
"588 860 LINE",
"474 742 LINE",
"474 734 LINE",
"56 0 LINE"
);
},
{
closed = 1;
nodes = (
"1132 0 LINE",
"714 734 LINE",
"714 742 LINE",
"600 860 LINE",
"592 860 LINE",
"268 1474 LINE",
"62 1474 LINE",
"474 742 LINE",
"474 734 LINE",
"588 602 LINE",
"598 602 LINE",
"918 0 LINE"
);
}
);
width = 1188;
}
);
leftKerningGroup = LAT_X_UC;
rightKerningGroup = LAT_X_UC;
unicode = 0058;
},
{
glyphname = Y;
lastChange = "2021-05-03 01:08:30 +0000";
layers = (
{
anchors = (
{
name = bottom;
position = "{530, 0}";
},
{
name = top;
position = "{530, 1474}";
}
);
layerId = "AB099EFE-E788-4EFC-8633-CF147CB782A6";
paths = (
{
closed = 1;
nodes = (
"498 0 LINE",
"562 0 LINE",
"562 680 LINE",
"996 1474 LINE",
"924 1474 LINE",
"696 1042 LINE",
"532 748 LINE",
"526 748 LINE",
"362 1042 LINE",
"134 1474 LINE",
"62 1474 LINE",
"498 680 LINE"
);
}
);
width = 1058;
},
{
anchors = (
{
name = bottom;
position = "{594, 0}";
},
{
name = top;
position = "{594, 1474}";
}
);
layerId = "2D8F7115-C311-411E-929D-56333CF7FFB2";
paths = (
{
closed = 1;
nodes = (
"410 0 LINE",
"778 0 LINE",
"778 552 LINE",
"1210 1474 LINE",
"788 1474 LINE",
"704 1208 LINE",
"598 906 LINE",
"592 906 LINE",
"486 1208 LINE",
"402 1474 LINE",
"-20 1474 LINE",
"410 552 LINE"
);
}
);
width = 1190;
},
{
anchors = (
{
name = bottom;
position = "{556, 0}";
},
{
name = top;
position = "{556, 1474}";
}
);
layerId = "FD1CEFBD-BAB1-4C2A-A598-30E93F9A29F6";
paths = (
{
closed = 1;
nodes = (
"466 0 LINE",
"646 0 LINE",
"646 634 LINE",
"1082 1474 LINE",
"876 1474 LINE",
"702 1106 LINE",
"562 812 LINE",
"554 812 LINE",
"412 1106 LINE",
"238 1474 LINE",
"32 1474 LINE",
"466 634 LINE"
);
}
);
width = 1114;
}
);
leftKerningGroup = LAT_Y_UC;
rightKerningGroup = LAT_Y_UC;
unicode = 0059;
},
{
glyphname = Z;
lastChange = "2021-05-03 01:08:30 +0000";
layers = (
{
anchors = (
{
name = bottom;
position = "{560, 0}";
},
{
name = top;
position = "{554, 1474}";
}
);
guideLines = (
{
angle = 58;
position = "{194, 112}";
}
);
layerId = "AB099EFE-E788-4EFC-8633-CF147CB782A6";
paths = (
{
closed = 1;
nodes = (
"124 0 LINE",
"946 0 LINE",
"946 60 LINE",
"214 60 LINE",
"214 64 LINE",
"930 1438 LINE",
"930 1474 LINE",
"168 1474 LINE",
"168 1414 LINE",
"838 1414 LINE",
"838 1410 LINE",
"124 36 LINE"
);
}
);
width = 1070;
},
{
anchors = (
{
name = bottom;
position = "{528, 0}";
},
{
name = top;
position = "{528, 1474}";
}
);
guideLines = (
{
angle = 63;
position = "{190, 112}";
}
);
layerId = "2D8F7115-C311-411E-929D-56333CF7FFB2";
paths = (
{
closed = 1;
nodes = (
"34 0 LINE",
"1034 0 LINE",
"1034 324 LINE",
"574 324 LINE",
"574 328 LINE",
"1020 1422 LINE",
"1020 1474 LINE",
"52 1474 LINE",
"52 1150 LINE",
"482 1150 LINE",
"482 1146 LINE",
"34 50 LINE"
);
}
);
width = 1066;
},
{
anchors = (
{
name = bottom;
position = "{548, 0}";
},
{
name = top;
position = "{544, 1474}";
}
);
layerId = "FD1CEFBD-BAB1-4C2A-A598-30E93F9A29F6";
paths = (
{
closed = 1;
nodes = (
"90 0 LINE",
"980 0 LINE",
"980 164 LINE",
"362 164 LINE",
"362 168 LINE",
"968 1434 LINE",
"968 1474 LINE",
"126 1474 LINE",
"126 1310 LINE",
"698 1310 LINE",
"698 1306 LINE",
"90 40 LINE"
);
}
);
width = 1072;
}
);
leftKerningGroup = LAT_Z_UC;
rightKerningGroup = LAT_Z_UC;
unicode = 005A;
},
{
glyphname = a;
lastChange = "2021-05-03 01:08:42 +0000";
layers = (
{
anchors = (
{
name = bottom;
position = "{442, 0}";
},
{
name = ogonek;
position = "{798, -16}";
},
{
name = top;
position = "{454, 1048}";
}
);
layerId = "AB099EFE-E788-4EFC-8633-CF147CB782A6";
paths = (
{
closed = 1;
nodes = (
"518 -16 OFFCURVE",
"632 78 OFFCURVE",
"684 188 CURVE",
"668 180 LINE",
"692 180 LINE",
"684 188 LINE",
"694 94 OFFCURVE",
"720 28 OFFCURVE",
"778 -4 CURVE SMOOTH",
"798 -16 LINE",
"822 38 LINE",
"814 42 LINE SMOOTH",
"772 62 OFFCURVE",
"742 130 OFFCURVE",
"742 232 CURVE SMOOTH",
"742 684 LINE SMOOTH",
"742 874 OFFCURVE",
"700 1064 OFFCURVE",
"454 1064 CURVE SMOOTH",
"366 1064 OFFCURVE",
"232 1014 OFFCURVE",
"162 950 CURVE",
"188 900 LINE",
"256 960 OFFCURVE",
"374 1008 OFFCURVE",
"450 1008 CURVE SMOOTH",
"652 1008 OFFCURVE",
"682 862 OFFCURVE",
"682 692 CURVE SMOOTH",
"682 562 LINE",
"682 552 LINE",
"682 360 LINE SMOOTH",
"682 194 OFFCURVE",
"530 40 OFFCURVE",
"384 40 CURVE SMOOTH",
"262 40 OFFCURVE",
"162 148 OFFCURVE",
"162 282 CURVE SMOOTH",
"162 438 OFFCURVE",
"296 550 OFFCURVE",
"532 550 CURVE SMOOTH",
"702 550 LINE",
"702 606 LINE",
"532 606 LINE SMOOTH",
"254 606 OFFCURVE",
"102 476 OFFCURVE",
"102 282 CURVE SMOOTH",
"102 112 OFFCURVE",
"226 -16 OFFCURVE",
"382 -16 CURVE SMOOTH"
);
}
);
width = 918;
},
{
anchors = (
{
name = bottom;
position = "{474, 0}";
},
{
name = ogonek;
position = "{858, -16}";
},
{
name = top;
position = "{500, 1080}";
}
);
layerId = "2D8F7115-C311-411E-929D-56333CF7FFB2";
paths = (
{
closed = 1;
nodes = (
"490 -16 OFFCURVE",
"614 58 OFFCURVE",
"644 140 CURVE",
"536 118 LINE",
"698 118 LINE",
"608 180 LINE",
"624 112 OFFCURVE",
"692 36 OFFCURVE",
"818 -4 CURVE SMOOTH",
"858 -16 LINE",
"978 278 LINE",
"956 286 LINE SMOOTH",
"922 298 OFFCURVE",
"904 332 OFFCURVE",
"904 398 CURVE SMOOTH",
"904 712 LINE SMOOTH",
"904 862 OFFCURVE",
"880 1098 OFFCURVE",
"478 1098 CURVE SMOOTH",
"276 1098 OFFCURVE",
"138 1038 OFFCURVE",
"82 996 CURVE",
"200 734 LINE",
"266 782 OFFCURVE",
"372 816 OFFCURVE",
"446 816 CURVE SMOOTH",
"478 816 OFFCURVE",
"568 782 OFFCURVE",
"568 708 CURVE SMOOTH",
"568 552 LINE",
"580 512 LINE",
"580 372 LINE SMOOTH",
"580 274 OFFCURVE",
"490 246 OFFCURVE",
"456 246 CURVE SMOOTH",
"408 246 OFFCURVE",
"374 284 OFFCURVE",
"374 340 CURVE SMOOTH",
"374 416 OFFCURVE",
"386 438 OFFCURVE",
"450 438 CURVE SMOOTH",
"620 438 LINE",
"620 652 LINE",
"368 652 LINE SMOOTH",
"174 652 OFFCURVE",
"28 508 OFFCURVE",
"28 312 CURVE SMOOTH",
"28 132 OFFCURVE",
"154 -16 OFFCURVE",
"348 -16 CURVE SMOOTH"
);
}
);
width = 1008;
},
{
anchors = (
{
name = bottom;
position = "{464, 0}";
},
{
name = ogonek;
position = "{812, -16}";
},
{
name = top;
position = "{472, 1060}";
}
);
layerId = "FD1CEFBD-BAB1-4C2A-A598-30E93F9A29F6";
paths = (
{
closed = 1;
nodes = (
"520 -16 OFFCURVE",
"634 70 OFFCURVE",
"676 176 CURVE",
"636 148 LINE",
"696 148 LINE",
"662 160 LINE",
"664 98 OFFCURVE",
"718 32 OFFCURVE",
"788 -4 CURVE SMOOTH",
"812 -16 LINE",
"876 140 LINE",
"858 148 LINE SMOOTH",
"816 166 OFFCURVE",
"804 220 OFFCURVE",
"804 308 CURVE SMOOTH",
"804 680 LINE SMOOTH",
"804 870 OFFCURVE",
"762 1078 OFFCURVE",
"478 1078 CURVE SMOOTH",
"352 1078 OFFCURVE",
"220 1036 OFFCURVE",
"136 974 CURVE",
"198 820 LINE",
"264 878 OFFCURVE",
"374 918 OFFCURVE",
"458 918 CURVE SMOOTH",
"628 918 OFFCURVE",
"640 740 OFFCURVE",
"640 676 CURVE SMOOTH",
"640 558 LINE",
"646 496 LINE",
"646 386 LINE SMOOTH",
"646 222 OFFCURVE",
"502 132 OFFCURVE",
"404 132 CURVE SMOOTH",
"314 132 OFFCURVE",
"242 194 OFFCURVE",
"242 300 CURVE SMOOTH",
"242 456 OFFCURVE",
"364 492 OFFCURVE",
"488 492 CURVE SMOOTH",
"674 492 LINE",
"674 630 LINE",
"484 630 LINE SMOOTH",
"208 630 OFFCURVE",
"76 492 OFFCURVE",
"76 300 CURVE SMOOTH",
"76 102 OFFCURVE",
"204 -16 OFFCURVE",
"376 -16 CURVE SMOOTH"
);
}
);
width = 944;
}
);
leftKerningGroup = LAT_ASS02_LC;
rightKerningGroup = LAT_A_LC;
rightMetricsKey = u;
unicode = 0061;
},
{
color = 4;
glyphname = a.ss01;
lastChange = "2021-05-03 01:08:42 +0000";
layers = (
{
anchors = (
{
name = bottom;
position = "{530, 0}";
},
{
name = center;
position = "{550, 524}";
},
{
name = ogonek;
position = "{950, 0}";
},
{
name = top;
position = "{550, 1048}";
},
{
name = topright;
position = "{1072, 1048}";
}
);
components = (
{
alignment = -1;
name = _part.bowl.ss01;
transform = "{-1, 0, 0, 1, 1104, 0}";
}
);
layerId = "AB099EFE-E788-4EFC-8633-CF147CB782A6";
paths = (
{
closed = 1;
nodes = (
"950 0 LINE",
"950 1048 LINE",
"888 1048 LINE",
"888 810 LINE",
"872 810 LINE",
"894 760 LINE",
"894 288 LINE",
"868 240 LINE",
"888 240 LINE",
"888 0 LINE"
);
}
);
width = 1092;
},
{
anchors = (
{
name = bottom;
position = "{582, 0}";
},
{
name = center;
position = "{572, 540}";
},
{
name = ogonek;
position = "{1032, 0}";
},
{
name = top;
position = "{588, 1080}";
},
{
name = topright;
position = "{1100, 1080}";
}
);
components = (
{
alignment = -1;
name = _part.bowl.ss01;
transform = "{-1, 0, 0, 1, 1134, 0}";
}
);
layerId = "2D8F7115-C311-411E-929D-56333CF7FFB2";
paths = (
{
closed = 1;
nodes = (
"1032 0 LINE",
"1032 1082 LINE",
"698 1082 LINE",
"698 966 LINE",
"660 966 LINE",
"700 860 LINE",
"700 180 LINE",
"670 122 LINE",
"698 122 LINE",
"698 0 LINE"
);
}
);
width = 1108;
},
{
anchors = (
{
name = bottom;
position = "{552, 0}";
},
{
name = center;
position = "{562, 536}";
},
{
name = ogonek;
position = "{984, 0}";
},
{
name = top;
position = "{570, 1060}";
},
{
name = topright;
position = "{1076, 1060}";
}
);
components = (
{
alignment = -1;
name = _part.bowl.ss01;
transform = "{-1, 0, 0, 1, 1116, 0}";
}
);
layerId = "FD1CEFBD-BAB1-4C2A-A598-30E93F9A29F6";
paths = (
{
closed = 1;
nodes = (
"984 0 LINE",
"984 1060 LINE",
"814 1060 LINE",
"814 910 LINE",
"788 910 LINE",
"826 852 LINE",
"826 208 LINE",
"790 152 LINE",
"814 152 LINE",
"814 0 LINE"
);
}
);
width = 1102;
}
);
leftKerningGroup = LAT_O_LC;
leftMetricsKey = o;
rightKerningGroup = LAT_ASS01_LC;
},
{
color = 6;
glyphname = a.ss02;
lastChange = "2021-05-03 01:08:42 +0000";
layers = (
{
anchors = (
{
name = bottom;
position = "{512, 0}";
},
{
name = ogonek;
position = "{946, -16}";
},
{
name = top;
position = "{514, 1048}";
},
{
name = topright;
position = "{998, 1048}";
}
);
components = (
{
name = _part.bowl;
transform = "{-1, 0, 0, 1, 1042, 0}";
}
);
layerId = "AB099EFE-E788-4EFC-8633-CF147CB782A6";
paths = (
{
closed = 1;
nodes = (
"970 38 LINE",
"910 72 OFFCURVE",
"890 118 OFFCURVE",
"890 220 CURVE SMOOTH",
"890 1048 LINE",
"830 1048 LINE",
"830 834 LINE",
"806 834 LINE",
"834 748 LINE",
"834 294 LINE",
"812 222 LINE",
"840 222 LINE",
"832 234 LINE",
"834 88 OFFCURVE",
"864 40 OFFCURVE",
"946 -16 CURVE"
);
}
);
width = 1066;
},
{
anchors = (
{
name = bottom;
position = "{536, 0}";
},
{
name = ogonek;
position = "{962, -16}";
},
{
name = top;
position = "{534, 1080}";
},
{
name = topright;
position = "{1062, 1080}";
}
);
components = (
{
name = _part.bowl;
transform = "{-1, 0, 0, 1, 1112, 0}";
}
);
layerId = "2D8F7115-C311-411E-929D-56333CF7FFB2";
paths = (
{
closed = 1;
nodes = (
"1084 278 LINE",
"1026 304 OFFCURVE",
"1012 318 OFFCURVE",
"1012 418 CURVE SMOOTH",
"1012 1080 LINE",
"678 1080 LINE",
"678 982 LINE",
"634 982 LINE",
"674 886 LINE",
"674 274 LINE",
"638 144 LINE",
"718 144 LINE",
"706 160 LINE",
"738 74 OFFCURVE",
"842 18 OFFCURVE",
"962 -16 CURVE"
);
}
);
width = 1114;
},
{
anchors = (
{
name = bottom;
position = "{528, 0}";
},
{
name = ogonek;
position = "{938, -16}";
},
{
name = top;
position = "{536, 1060}";
},
{
name = topright;
position = "{1024, 1060}";
}
);
components = (
{
alignment = -1;
name = _part.bowl;
transform = "{-1, 0, 0, 1, 1060, 0}";
}
);
layerId = "FD1CEFBD-BAB1-4C2A-A598-30E93F9A29F6";
paths = (
{
closed = 1;
nodes = (
"1002 140 LINE",
"944 168 OFFCURVE",
"930 204 OFFCURVE",
"930 300 CURVE SMOOTH",
"930 1060 LINE",
"760 1060 LINE",
"760 928 LINE",
"712 928 LINE",
"780 824 LINE",
"780 290 LINE",
"736 164 LINE",
"818 164 LINE",
"778 196 LINE",
"788 86 OFFCURVE",
"848 32 OFFCURVE",
"938 -16 CURVE"
);
}
);
width = 1070;
}
);
leftKerningGroup = LAT_O_LC;
leftMetricsKey = o;
rightKerningGroup = LAT_A_LC;
rightMetricsKey = u;
},
{
glyphname = ae;
lastChange = "2021-05-03 01:08:42 +0000";
layers = (
{
anchors = (
{
name = bottom;
position = "{724, 0}";
},
{
name = top;
position = "{710, 1048}";
}
);
layerId = "AB099EFE-E788-4EFC-8633-CF147CB782A6";
paths = (
{
closed = 1;
nodes = (
"558 -16 OFFCURVE",
"678 122 OFFCURVE",
"716 294 CURVE",
"706 294 LINE",
"762 102 OFFCURVE",
"878 -16 OFFCURVE",
"1052 -16 CURVE SMOOTH",
"1174 -16 OFFCURVE",
"1280 46 OFFCURVE",
"1348 118 CURVE",
"1324 174 LINE",
"1256 104 OFFCURVE",
"1164 40 OFFCURVE",
"1054 40 CURVE SMOOTH",
"866 40 OFFCURVE",
"730 234 OFFCURVE",
"730 538 CURVE SMOOTH",
"730 836 OFFCURVE",
"860 1008 OFFCURVE",
"1040 1008 CURVE SMOOTH",
"1228 1008 OFFCURVE",
"1338 824 OFFCURVE",
"1334 570 CURVE",
"718 570 LINE",
"718 514 LINE",
"1394 514 LINE",
"1396 530 OFFCURVE",
"1398 554 OFFCURVE",
"1398 572 CURVE SMOOTH",
"1398 872 OFFCURVE",
"1250 1064 OFFCURVE",
"1036 1064 CURVE SMOOTH",
"890 1064 OFFCURVE",
"768 968 OFFCURVE",
"710 780 CURVE",
"724 780 LINE",
"706 952 OFFCURVE",
"628 1064 OFFCURVE",
"456 1064 CURVE SMOOTH",
"346 1064 OFFCURVE",
"222 1016 OFFCURVE",
"152 950 CURVE",
"178 900 LINE",
"246 964 OFFCURVE",
"358 1008 OFFCURVE",
"454 1008 CURVE SMOOTH",
"670 1008 OFFCURVE",
"670 786 OFFCURVE",
"670 694 CURVE SMOOTH",
"670 398 LINE SMOOTH",
"670 158 OFFCURVE",
"514 40 OFFCURVE",
"378 40 CURVE SMOOTH",
"256 40 OFFCURVE",
"162 138 OFFCURVE",
"162 274 CURVE SMOOTH",
"162 426 OFFCURVE",
"276 514 OFFCURVE",
"512 514 CURVE SMOOTH",
"686 514 LINE",
"686 570 LINE",
"518 570 LINE SMOOTH",
"252 570 OFFCURVE",
"102 472 OFFCURVE",
"102 274 CURVE SMOOTH",
"102 98 OFFCURVE",
"220 -16 OFFCURVE",
"382 -16 CURVE SMOOTH"
);
}
);
width = 1496;
},
{
anchors = (
{
name = bottom;
position = "{736, 0}";
},
{
name = top;
position = "{746, 1080}";
}
);
background = {
components = (
{
name = a;
transform = "{0.99782, 0, 0, 1, 0, 0}";
},
{
name = e;
transform = "{0.94969, 0, 0, 1, 678, 0}";
}
);
};
layerId = "2D8F7115-C311-411E-929D-56333CF7FFB2";
paths = (
{
closed = 1;
nodes = (
"604 -16 OFFCURVE",
"746 136 OFFCURVE",
"752 226 CURVE",
"666 226 LINE",
"738 82 OFFCURVE",
"866 -16 OFFCURVE",
"1040 -16 CURVE SMOOTH",
"1154 -16 OFFCURVE",
"1282 20 OFFCURVE",
"1336 70 CURVE",
"1232 328 LINE",
"1178 280 OFFCURVE",
"1120 254 OFFCURVE",
"1058 254 CURVE SMOOTH",
"1016 254 OFFCURVE",
"834 284 OFFCURVE",
"834 552 CURVE SMOOTH",
"834 774 OFFCURVE",
"950 836 OFFCURVE",
"1008 836 CURVE SMOOTH",
"1080 836 OFFCURVE",
"1138 748 OFFCURVE",
"1138 644 CURVE",
"800 644 LINE",
"818 442 LINE",
"1422 442 LINE",
"1432 490 OFFCURVE",
"1434 532 OFFCURVE",
"1434 574 CURVE SMOOTH",
"1434 964 OFFCURVE",
"1196 1096 OFFCURVE",
"1028 1096 CURVE SMOOTH",
"904 1096 OFFCURVE",
"722 1024 OFFCURVE",
"702 902 CURVE",
"808 902 LINE",
"768 1008 OFFCURVE",
"672 1096 OFFCURVE",
"456 1096 CURVE SMOOTH",
"276 1096 OFFCURVE",
"146 1040 OFFCURVE",
"84 996 CURVE",
"196 734 LINE",
"246 778 OFFCURVE",
"342 824 OFFCURVE",
"448 824 CURVE SMOOTH",
"610 824 OFFCURVE",
"582 708 OFFCURVE",
"582 622 CURVE SMOOTH",
"582 418 LINE SMOOTH",
"582 308 OFFCURVE",
"542 238 OFFCURVE",
"456 238 CURVE SMOOTH",
"404 238 OFFCURVE",
"368 270 OFFCURVE",
"368 336 CURVE SMOOTH",
"368 438 OFFCURVE",
"472 442 OFFCURVE",
"452 442 CURVE SMOOTH",
"618 442 LINE",
"618 644 LINE",
"370 644 LINE SMOOTH",
"168 644 OFFCURVE",
"28 516 OFFCURVE",
"28 324 CURVE SMOOTH",
"28 148 OFFCURVE",
"150 -16 OFFCURVE",
"376 -16 CURVE SMOOTH"
);
}
);
width = 1468;
},
{
anchors = (
{
name = bottom;
position = "{740, 0}";
},
{
name = top;
position = "{738, 1060}";
}
);
layerId = "FD1CEFBD-BAB1-4C2A-A598-30E93F9A29F6";
paths = (
{
closed = 1;
nodes = (
"592 -16 OFFCURVE",
"714 120 OFFCURVE",
"750 246 CURVE",
"708 246 LINE",
"778 84 OFFCURVE",
"888 -16 OFFCURVE",
"1062 -16 CURVE SMOOTH",
"1176 -16 OFFCURVE",
"1290 34 OFFCURVE",
"1356 102 CURVE",
"1296 250 LINE",
"1234 180 OFFCURVE",
"1150 140 OFFCURVE",
"1062 140 CURVE SMOOTH",
"918 140 OFFCURVE",
"792 276 OFFCURVE",
"792 536 CURVE SMOOTH",
"792 792 OFFCURVE",
"906 920 OFFCURVE",
"1036 920 CURVE SMOOTH",
"1178 920 OFFCURVE",
"1264 786 OFFCURVE",
"1260 610 CURVE",
"768 610 LINE",
"770 470 LINE",
"1410 470 LINE",
"1416 496 OFFCURVE",
"1418 524 OFFCURVE",
"1418 568 CURVE SMOOTH",
"1418 892 OFFCURVE",
"1252 1076 OFFCURVE",
"1044 1076 CURVE SMOOTH",
"914 1076 OFFCURVE",
"784 1002 OFFCURVE",
"720 864 CURVE",
"766 864 LINE",
"736 990 OFFCURVE",
"648 1076 OFFCURVE",
"464 1076 CURVE SMOOTH",
"334 1076 OFFCURVE",
"198 1032 OFFCURVE",
"132 974 CURVE",
"192 828 LINE",
"244 882 OFFCURVE",
"364 920 OFFCURVE",
"460 920 CURVE SMOOTH",
"648 920 OFFCURVE",
"648 774 OFFCURVE",
"648 614 CURVE SMOOTH",
"648 390 LINE SMOOTH",
"648 238 OFFCURVE",
"532 140 OFFCURVE",
"414 140 CURVE SMOOTH",
"318 140 OFFCURVE",
"246 198 OFFCURVE",
"246 304 CURVE SMOOTH",
"246 410 OFFCURVE",
"328 470 OFFCURVE",
"472 470 CURVE SMOOTH",
"672 470 LINE",
"672 610 LINE",
"460 610 LINE SMOOTH",
"226 610 OFFCURVE",
"76 500 OFFCURVE",
"76 300 CURVE SMOOTH",
"76 106 OFFCURVE",
"210 -16 OFFCURVE",
"396 -16 CURVE SMOOTH"
);
}
);
width = 1494;
}
);
leftKerningGroup = LAT_ASS02_LC;
leftMetricsKey = a;
rightKerningGroup = LAT_E_LC;
rightMetricsKey = e;
unicode = 00E6;
},
{
glyphname = b;
lastChange = "2021-05-03 01:08:42 +0000";
layers = (
{
anchors = (
{
name = bottom;
position = "{524, 0}";
},
{
name = center;
position = "{180, 1262}";
},
{
name = top;
position = "{568, 1156}";
}
);
components = (
{
name = _part.bowl;
}
);
layerId = "AB099EFE-E788-4EFC-8633-CF147CB782A6";
paths = (
{
closed = 1;
nodes = (
"152 0 LINE",
"212 0 LINE",
"212 224 LINE",
"240 224 LINE",
"202 312 LINE",
"202 728 LINE",
"230 834 LINE",
"212 834 LINE",
"212 1540 LINE",
"152 1540 LINE"
);
}
);
width = 1042;
},
{
anchors = (
{
name = bottom;
position = "{548, 0}";
},
{
name = center;
position = "{246, 1298}";
},
{
name = top;
position = "{696, 1164}";
}
);
components = (
{
name = _part.bowl;
transform = "{1, 0, 0, 1, -24, 0}";
}
);
layerId = "2D8F7115-C311-411E-929D-56333CF7FFB2";
paths = (
{
closed = 1;
nodes = (
"70 0 LINE",
"404 0 LINE",
"404 114 LINE",
"448 114 LINE",
"410 226 LINE",
"410 816 LINE",
"450 1000 LINE",
"426 1000 LINE",
"426 1540 LINE",
"70 1540 LINE"
);
}
);
width = 1088;
},
{
anchors = (
{
name = bottom;
position = "{530, 0}";
},
{
name = center;
position = "{204, 1278}";
},
{
name = top;
position = "{612, 1160}";
}
);
components = (
{
alignment = -1;
name = _part.bowl;
transform = "{1, 0, 0, 1, -10, 0}";
}
);
layerId = "FD1CEFBD-BAB1-4C2A-A598-30E93F9A29F6";
paths = (
{
closed = 1;
nodes = (
"118 0 LINE",
"288 0 LINE",
"288 144 LINE",
"316 144 LINE",
"270 246 LINE",
"270 816 LINE",
"306 926 LINE",
"290 926 LINE",
"290 1540 LINE",
"118 1540 LINE"
);
}
);
width = 1050;
}
);
leftKerningGroup = LAT_H_UC;
leftMetricsKey = h;
rightKerningGroup = LAT_O_LC;
rightMetricsKey = o;
unicode = 0062;
},
{
color = 4;
glyphname = b.ss01;
lastChange = "2021-05-03 01:08:42 +0000";
layers = (
{
anchors = (
{
name = bottom;
position = "{528, 0}";
},
{
name = center;
position = "{182, 1262}";
},
{
name = top;
position = "{572, 1156}";
}
);
components = (
{
name = _part.bowl.ss01;
transform = "{1, 0, 0, 1, -4, 0}";
}
);
layerId = "AB099EFE-E788-4EFC-8633-CF147CB782A6";
paths = (
{
closed = 1;
nodes = (
"152 0 LINE",
"212 0 LINE",
"212 240 LINE",
"230 240 LINE",
"210 272 LINE",
"210 744 LINE",
"224 804 LINE",
"212 804 LINE",
"212 1540 LINE",
"152 1540 LINE"
);
}
);
width = 1100;
},
{
anchors = (
{
name = bottom;
position = "{548, 0}";
},
{
name = center;
position = "{246, 1298}";
},
{
name = top;
position = "{696, 1164}";
}
);
components = (
{
name = _part.bowl.ss01;
transform = "{1, 0, 0, 1, -38, 0}";
}
);
layerId = "2D8F7115-C311-411E-929D-56333CF7FFB2";
paths = (
{
closed = 1;
nodes = (
"70 0 LINE",
"404 0 LINE",
"404 122 LINE",
"450 122 LINE",
"398 226 LINE",
"398 816 LINE",
"450 992 LINE",
"426 992 LINE",
"426 1540 LINE",
"70 1540 LINE"
);
}
);
width = 1096;
},
{
anchors = (
{
name = bottom;
position = "{534, 0}";
},
{
name = center;
position = "{204, 1278}";
},
{
name = top;
position = "{612, 1160}";
}
);
components = (
{
alignment = -1;
name = _part.bowl.ss01;
transform = "{1, 0, 0, 1, -12, 0}";
}
);
layerId = "FD1CEFBD-BAB1-4C2A-A598-30E93F9A29F6";
paths = (
{
closed = 1;
nodes = (
"118 0 LINE",
"288 0 LINE",
"288 156 LINE",
"312 156 LINE",
"284 212 LINE",
"284 806 LINE",
"308 910 LINE",
"290 910 LINE",
"290 1540 LINE",
"118 1540 LINE"
);
}
);
width = 1104;
}
);
leftKerningGroup = LAT_L_LC;
leftMetricsKey = h;
rightKerningGroup = LAT_O_LC;
rightMetricsKey = o;
},
{
glyphname = c;
lastChange = "2021-05-03 01:08:30 +0000";
layers = (
{
anchors = (
{
name = base;
position = "{714, 0}";
},
{
name = bottom;
position = "{512, 0}";
},
{
name = cedilla;
position = "{526, 0}";
},
{
name = top;
position = "{512, 1048}";
}
);
layerId = "AB099EFE-E788-4EFC-8633-CF147CB782A6";
paths = (
{
closed = 1;
nodes = (
"632 -12 OFFCURVE",
"736 30 OFFCURVE",
"810 106 CURVE",
"784 166 LINE",
"734 100 OFFCURVE",
"636 44 OFFCURVE",
"532 44 CURVE SMOOTH",
"332 44 OFFCURVE",
"164 256 OFFCURVE",
"164 528 CURVE SMOOTH",
"164 806 OFFCURVE",
"342 1008 OFFCURVE",
"534 1008 CURVE SMOOTH",
"606 1008 OFFCURVE",
"722 974 OFFCURVE",
"780 900 CURVE",
"808 958 LINE",
"734 1024 OFFCURVE",
"626 1064 OFFCURVE",
"534 1064 CURVE SMOOTH",
"310 1064 OFFCURVE",
"104 842 OFFCURVE",
"104 528 CURVE SMOOTH",
"104 218 OFFCURVE",
"300 -12 OFFCURVE",
"528 -12 CURVE SMOOTH"
);
}
);
userData = {
RMXScaler = {
height = 71.5;
weight = 20;
width = 77;
};
};
width = 892;
},
{
anchors = (
{
name = base;
position = "{738, 0}";
},
{
name = bottom;
position = "{540, 0}";
},
{
name = cedilla;
position = "{550, 0}";
},
{
name = top;
position = "{552, 1080}";
}
);
layerId = "2D8F7115-C311-411E-929D-56333CF7FFB2";
paths = (
{
closed = 1;
nodes = (
"660 -12 OFFCURVE",
"760 26 OFFCURVE",
"822 70 CURVE",
"698 360 LINE",
"674 328 OFFCURVE",
"606 292 OFFCURVE",
"544 292 CURVE SMOOTH",
"440 292 OFFCURVE",
"364 406 OFFCURVE",
"364 546 CURVE SMOOTH",
"364 672 OFFCURVE",
"418 792 OFFCURVE",
"548 792 CURVE SMOOTH",
"614 792 OFFCURVE",
"650 764 OFFCURVE",
"694 714 CURVE",
"824 998 LINE",
"742 1060 OFFCURVE",
"642 1096 OFFCURVE",
"538 1096 CURVE SMOOTH",
"256 1096 OFFCURVE",
"30 850 OFFCURVE",
"30 544 CURVE SMOOTH",
"30 230 OFFCURVE",
"268 -12 OFFCURVE",
"554 -12 CURVE SMOOTH"
);
}
);
userData = {
RMXScaler = {
height = 73.5;
weight = -50;
width = 73;
};
};
width = 832;
},
{
anchors = (
{
name = base;
position = "{716, 0}";
},
{
name = bottom;
position = "{514, 0}";
},
{
name = cedilla;
position = "{528, 0}";
},
{
name = top;
position = "{520, 1060}";
}
);
layerId = "FD1CEFBD-BAB1-4C2A-A598-30E93F9A29F6";
paths = (
{
closed = 1;
nodes = (
"642 -12 OFFCURVE",
"742 34 OFFCURVE",
"808 94 CURVE",
"744 242 LINE",
"700 188 OFFCURVE",
"616 148 OFFCURVE",
"530 148 CURVE SMOOTH",
"362 148 OFFCURVE",
"242 314 OFFCURVE",
"242 532 CURVE SMOOTH",
"242 764 OFFCURVE",
"368 918 OFFCURVE",
"528 918 CURVE SMOOTH",
"602 918 OFFCURVE",
"690 882 OFFCURVE",
"740 828 CURVE",
"806 974 LINE",
"732 1036 OFFCURVE",
"628 1078 OFFCURVE",
"524 1078 CURVE SMOOTH",
"280 1078 OFFCURVE",
"70 856 OFFCURVE",
"70 536 CURVE SMOOTH",
"70 226 OFFCURVE",
"272 -12 OFFCURVE",
"528 -12 CURVE SMOOTH"
);
}
);
userData = {
RMXScaler = {
height = 71.5;
weight = 20;
width = 77;
};
};
width = 858;
}
);
leftKerningGroup = LAT_O_LC;
leftMetricsKey = o;
rightKerningGroup = LAT_C_LC;
unicode = 0063;
userData = {
RMXScaler = {
source = C;
};
};
},
{
glyphname = d;
lastChange = "2021-05-03 01:08:30 +0000";
layers = (
{
anchors = (
{
name = bottom;
position = "{530, 0}";
},
{
name = center;
position = "{858, 1262}";
},
{
name = leghookretroflex;
position = "{858, 0}";
},
{
name = top;
position = "{856, 1540}";
},
{
name = topright;
position = "{896, 1540}";
}
);
components = (
{
name = _part.bowl;
transform = "{-1, 0, 0, 1, 1042, 0}";
}
);
layerId = "AB099EFE-E788-4EFC-8633-CF147CB782A6";
paths = (
{
closed = 1;
nodes = (
"966 38 LINE",
"902 76 OFFCURVE",
"886 118 OFFCURVE",
"886 232 CURVE SMOOTH",
"886 1540 LINE",
"826 1540 LINE",
"826 834 LINE",
"806 834 LINE",
"838 756 LINE",
"838 294 LINE",
"808 222 LINE",
"838 222 LINE",
"828 234 LINE",
"832 78 OFFCURVE",
"866 32 OFFCURVE",
"938 -16 CURVE"
);
}
);
width = 1060;
},
{
anchors = (
{
name = bottom;
position = "{536, 0}";
},
{
name = center;
position = "{830, 1298}";
},
{
name = leghookretroflex;
position = "{836, 0}";
},
{
name = top;
position = "{836, 1540}";
},
{
name = topright;
position = "{996, 1540}";
}
);
components = (
{
name = _part.bowl;
transform = "{-1, 0, 0, 1, 1112, 0}";
}
);
layerId = "2D8F7115-C311-411E-929D-56333CF7FFB2";
paths = (
{
closed = 1;
nodes = (
"1086 278 LINE",
"1038 298 OFFCURVE",
"1014 318 OFFCURVE",
"1014 394 CURVE SMOOTH",
"1014 1540 LINE",
"658 1540 LINE",
"658 1004 LINE",
"630 1004 LINE",
"674 892 LINE",
"674 274 LINE",
"638 144 LINE",
"720 144 LINE",
"706 160 LINE",
"734 86 OFFCURVE",
"822 28 OFFCURVE",
"964 -16 CURVE"
);
}
);
width = 1120;
},
{
anchors = (
{
name = bottom;
position = "{518, 0}";
},
{
name = center;
position = "{842, 1274}";
},
{
name = leghookretroflex;
position = "{842, 0}";
},
{
name = top;
position = "{842, 1540}";
},
{
name = topright;
position = "{1014, 1540}";
}
);
components = (
{
alignment = -1;
name = _part.bowl;
transform = "{-1, 0, 0, 1, 1060, 0}";
}
);
layerId = "FD1CEFBD-BAB1-4C2A-A598-30E93F9A29F6";
paths = (
{
closed = 1;
nodes = (
"1002 140 LINE",
"944 172 OFFCURVE",
"928 206 OFFCURVE",
"928 294 CURVE SMOOTH",
"928 1540 LINE",
"756 1540 LINE",
"756 930 LINE",
"736 930 LINE",
"778 824 LINE",
"778 290 LINE",
"734 172 LINE",
"816 172 LINE",
"780 196 LINE",
"784 102 OFFCURVE",
"826 42 OFFCURVE",
"936 -16 CURVE"
);
}
);
width = 1076;
}
);
leftKerningGroup = LAT_O_LC;
leftMetricsKey = o;
rightKerningGroup = LAT_D_LC;
unicode = 0064;
},
{
glyphname = eth;
lastChange = "2021-05-03 01:08:30 +0000";
layers = (
{
layerId = "AB099EFE-E788-4EFC-8633-CF147CB782A6";
paths = (
{
closed = 1;
nodes = (
"780 -16 OFFCURVE",
"946 218 OFFCURVE",
"946 596 CURVE SMOOTH",
"946 1130 OFFCURVE",
"620 1452 OFFCURVE",
"308 1558 CURVE",
"286 1508 LINE",
"504 1430 OFFCURVE",
"776 1222 OFFCURVE",
"872 818 CURVE",
"884 834 LINE",
"856 834 LINE",
"886 796 LINE",
"824 946 OFFCURVE",
"678 1024 OFFCURVE",
"536 1024 CURVE SMOOTH",
"292 1024 OFFCURVE",
"110 796 OFFCURVE",
"110 504 CURVE SMOOTH",
"110 210 OFFCURVE",
"294 -16 OFFCURVE",
"534 -16 CURVE SMOOTH"
);
},
{
closed = 1;
nodes = (
"344 40 OFFCURVE",
"170 224 OFFCURVE",
"170 506 CURVE SMOOTH",
"170 772 OFFCURVE",
"328 968 OFFCURVE",
"542 968 CURVE SMOOTH",
"712 968 OFFCURVE",
"888 848 OFFCURVE",
"888 546 CURVE SMOOTH",
"888 274 OFFCURVE",
"744 40 OFFCURVE",
"534 40 CURVE SMOOTH"
);
},
{
closed = 1;
nodes = (
"818 1512 LINE",
"800 1554 LINE",
"278 1220 LINE",
"302 1172 LINE"
);
}
);
width = 1056;
},
{
layerId = "2D8F7115-C311-411E-929D-56333CF7FFB2";
paths = (
{
closed = 1;
nodes = (
"806 -16 OFFCURVE",
"1018 254 OFFCURVE",
"1018 652 CURVE SMOOTH",
"1018 1096 OFFCURVE",
"782 1458 OFFCURVE",
"294 1700 CURVE",
"158 1426 LINE",
"432 1316 OFFCURVE",
"604 1124 OFFCURVE",
"682 898 CURVE",
"724 946 LINE",
"636 946 LINE",
"696 876 LINE",
"674 992 OFFCURVE",
"542 1028 OFFCURVE",
"458 1028 CURVE SMOOTH",
"210 1028 OFFCURVE",
"18 796 OFFCURVE",
"18 514 CURVE SMOOTH",
"18 210 OFFCURVE",
"240 -16 OFFCURVE",
"508 -16 CURVE SMOOTH"
);
},
{
closed = 1;
nodes = (
"420 294 OFFCURVE",
"358 398 OFFCURVE",
"358 532 CURVE SMOOTH",
"358 664 OFFCURVE",
"424 754 OFFCURVE",
"516 754 CURVE SMOOTH",
"616 754 OFFCURVE",
"678 664 OFFCURVE",
"678 532 CURVE SMOOTH",
"678 398 OFFCURVE",
"612 294 OFFCURVE",
"516 294 CURVE SMOOTH"
);
},
{
closed = 1;
nodes = (
"906 1512 LINE",
"784 1692 LINE",
"164 1212 LINE",
"252 1082 LINE"
);
}
);
width = 1036;
},
{
layerId = "FD1CEFBD-BAB1-4C2A-A598-30E93F9A29F6";
paths = (
{
closed = 1;
nodes = (
"788 -16 OFFCURVE",
"972 222 OFFCURVE",
"972 622 CURVE SMOOTH",
"972 1134 OFFCURVE",
"680 1446 OFFCURVE",
"306 1614 CURVE",
"240 1474 LINE",
"466 1378 OFFCURVE",
"710 1188 OFFCURVE",
"796 872 CURVE",
"820 902 LINE",
"774 902 LINE",
"804 864 LINE",
"768 956 OFFCURVE",
"642 1032 OFFCURVE",
"510 1032 CURVE SMOOTH",
"270 1032 OFFCURVE",
"80 820 OFFCURVE",
"80 512 CURVE SMOOTH",
"80 202 OFFCURVE",
"280 -16 OFFCURVE",
"528 -16 CURVE SMOOTH"
);
},
{
closed = 1;
nodes = (
"378 140 OFFCURVE",
"250 296 OFFCURVE",
"250 516 CURVE SMOOTH",
"250 730 OFFCURVE",
"370 872 OFFCURVE",
"530 872 CURVE SMOOTH",
"682 872 OFFCURVE",
"806 746 OFFCURVE",
"806 528 CURVE SMOOTH",
"806 310 OFFCURVE",
"686 148 OFFCURVE",
"532 144 CURVE SMOOTH"
);
},
{
closed = 1;
nodes = (
"862 1520 LINE",
"800 1618 LINE",
"238 1236 LINE",
"296 1138 LINE"
);
}
);
width = 1050;
}
);
leftKerningGroup = LAT_ETH_LC;
rightKerningGroup = LAT_ETH_LC;
unicode = 00F0;
},
{
glyphname = e;
lastChange = "2021-05-03 01:08:42 +0000";
layers = (
{
anchors = (
{
name = bottom;
position = "{504, 0}";
},
{
name = cedilla;
position = "{504, 0}";
},
{
name = ogonek;
position = "{776, 78}";
},
{
name = top;
position = "{506, 1048}";
}
);
layerId = "AB099EFE-E788-4EFC-8633-CF147CB782A6";
paths = (
{
closed = 1;
nodes = (
"640 -16 OFFCURVE",
"746 46 OFFCURVE",
"814 118 CURVE",
"790 174 LINE",
"718 96 OFFCURVE",
"624 40 OFFCURVE",
"512 40 CURVE SMOOTH",
"302 40 OFFCURVE",
"164 234 OFFCURVE",
"164 520 CURVE SMOOTH",
"164 826 OFFCURVE",
"318 1008 OFFCURVE",
"506 1008 CURVE SMOOTH",
"700 1008 OFFCURVE",
"826 814 OFFCURVE",
"820 562 CURVE",
"152 562 LINE",
"152 506 LINE",
"878 506 LINE",
"880 532 OFFCURVE",
"882 556 OFFCURVE",
"882 582 CURVE SMOOTH",
"882 858 OFFCURVE",
"730 1064 OFFCURVE",
"504 1064 CURVE SMOOTH",
"268 1064 OFFCURVE",
"104 832 OFFCURVE",
"104 524 CURVE SMOOTH",
"104 206 OFFCURVE",
"274 -16 OFFCURVE",
"514 -16 CURVE SMOOTH"
);
}
);
width = 980;
},
{
anchors = (
{
name = bottom;
position = "{532, 0}";
},
{
name = cedilla;
position = "{560, 0}";
},
{
name = ogonek;
position = "{878, 70}";
},
{
name = top;
position = "{524, 1080}";
}
);
layerId = "2D8F7115-C311-411E-929D-56333CF7FFB2";
paths = (
{
closed = 1;
nodes = (
"688 -16 OFFCURVE",
"808 20 OFFCURVE",
"874 70 CURVE",
"770 324 LINE",
"744 296 OFFCURVE",
"638 262 OFFCURVE",
"562 262 CURVE SMOOTH",
"436 262 OFFCURVE",
"330 374 OFFCURVE",
"330 548 CURVE SMOOTH",
"330 694 OFFCURVE",
"392 826 OFFCURVE",
"518 826 CURVE SMOOTH",
"594 826 OFFCURVE",
"656 762 OFFCURVE",
"656 638 CURVE",
"308 638 LINE",
"308 426 LINE",
"968 426 LINE",
"976 460 OFFCURVE",
"982 528 OFFCURVE",
"982 586 CURVE SMOOTH",
"982 882 OFFCURVE",
"790 1096 OFFCURVE",
"528 1096 CURVE SMOOTH",
"262 1096 OFFCURVE",
"30 878 OFFCURVE",
"30 536 CURVE SMOOTH",
"30 212 OFFCURVE",
"232 -16 OFFCURVE",
"562 -16 CURVE SMOOTH"
);
}
);
width = 1016;
},
{
anchors = (
{
name = bottom;
position = "{496, 0}";
},
{
name = cedilla;
position = "{506, 0}";
},
{
name = ogonek;
position = "{816, 94}";
},
{
name = top;
position = "{492, 1060}";
}
);
layerId = "FD1CEFBD-BAB1-4C2A-A598-30E93F9A29F6";
paths = (
{
closed = 1;
nodes = (
"640 -16 OFFCURVE",
"744 34 OFFCURVE",
"816 94 CURVE",
"754 250 LINE",
"704 202 OFFCURVE",
"622 144 OFFCURVE",
"518 144 CURVE SMOOTH",
"342 144 OFFCURVE",
"232 300 OFFCURVE",
"232 532 CURVE SMOOTH",
"232 762 OFFCURVE",
"338 916 OFFCURVE",
"492 916 CURVE SMOOTH",
"636 916 OFFCURVE",
"728 774 OFFCURVE",
"728 602 CURVE",
"200 602 LINE",
"200 462 LINE",
"882 462 LINE",
"886 478 OFFCURVE",
"894 526 OFFCURVE",
"894 590 CURVE SMOOTH",
"894 872 OFFCURVE",
"720 1076 OFFCURVE",
"492 1076 CURVE SMOOTH",
"256 1076 OFFCURVE",
"70 864 OFFCURVE",
"70 532 CURVE SMOOTH",
"70 198 OFFCURVE",
"254 -16 OFFCURVE",
"516 -16 CURVE SMOOTH"
);
}
);
width = 970;
}
);
leftKerningGroup = LAT_O_LC;
leftMetricsKey = o;
rightKerningGroup = LAT_E_LC;
unicode = 0065;
},
{
glyphname = f;
lastChange = "2021-05-03 01:08:30 +0000";
layers = (
{
anchors = (
{
name = bottom;
position = "{274, 0}";
},
{
name = top;
position = "{434, 1540}";
}
);
components = (
{
name = "_part.f-stem";
}
);
layerId = "AB099EFE-E788-4EFC-8633-CF147CB782A6";
paths = (
{
closed = 1;
nodes = (
"530 992 LINE",
"530 1048 LINE",
"88 1048 LINE",
"88 992 LINE"
);
}
);
width = 720;
},
{
anchors = (
{
name = bottom;
position = "{366, 0}";
},
{
name = top;
position = "{480, 1540}";
}
);
components = (
{
name = "_part.f-stem";
transform = "{1, 0, 0, 1, -26, 0}";
}
);
layerId = "2D8F7115-C311-411E-929D-56333CF7FFB2";
paths = (
{
closed = 1;
nodes = (
"750 780 LINE",
"750 1080 LINE",
"-2 1080 LINE",
"-2 780 LINE"
);
}
);
width = 888;
},
{
anchors = (
{
name = bottom;
position = "{310, 0}";
},
{
name = top;
position = "{462, 1540}";
}
);
components = (
{
name = "_part.f-stem";
transform = "{1, 0, 0, 1, -6, 0}";
}
);
layerId = "FD1CEFBD-BAB1-4C2A-A598-30E93F9A29F6";
paths = (
{
closed = 1;
nodes = (
"608 904 LINE",
"608 1060 LINE",
"56 1060 LINE",
"56 904 LINE"
);
}
);
width = 778;
}
);
leftKerningGroup = LAT_F_LC;
rightKerningGroup = LAT_F_LC;
unicode = 0066;
},
{
glyphname = g;
lastChange = "2021-05-03 01:08:30 +0000";
layers = (
{
anchors = (
{
name = bottom;
position = "{518, -420}";
},
{
name = top;
position = "{514, 1048}";
}
);
layerId = "AB099EFE-E788-4EFC-8633-CF147CB782A6";
paths = (
{
closed = 1;
nodes = (
"668 -436 OFFCURVE",
"888 -318 OFFCURVE",
"888 8 CURVE SMOOTH",
"888 1048 LINE",
"828 1048 LINE",
"828 834 LINE",
"820 834 LINE",
"832 772 LINE",
"832 282 LINE",
"820 224 LINE",
"830 224 LINE",
"830 4 LINE SMOOTH",
"830 -244 OFFCURVE",
"682 -380 OFFCURVE",
"500 -380 CURVE SMOOTH",
"398 -380 OFFCURVE",
"292 -336 OFFCURVE",
"224 -266 CURVE",
"200 -326 LINE",
"262 -384 OFFCURVE",
"390 -436 OFFCURVE",
"502 -436 CURVE SMOOTH"
);
},
{
closed = 1;
nodes = (
"708 -16 OFFCURVE",
"886 160 OFFCURVE",
"886 528 CURVE SMOOTH",
"886 896 OFFCURVE",
"712 1064 OFFCURVE",
"500 1064 CURVE SMOOTH",
"262 1064 OFFCURVE",
"106 860 OFFCURVE",
"106 528 CURVE SMOOTH",
"106 188 OFFCURVE",
"268 -16 OFFCURVE",
"498 -16 CURVE SMOOTH"
);
},
{
closed = 1;
nodes = (
"308 40 OFFCURVE",
"166 230 OFFCURVE",
"166 528 CURVE SMOOTH",
"166 814 OFFCURVE",
"294 1008 OFFCURVE",
"498 1008 CURVE SMOOTH",
"696 1008 OFFCURVE",
"832 824 OFFCURVE",
"832 538 CURVE SMOOTH",
"832 250 OFFCURVE",
"696 40 OFFCURVE",
"498 40 CURVE SMOOTH"
);
}
);
width = 1040;
},
{
anchors = (
{
name = bottom;
position = "{530, -420}";
},
{
name = top;
position = "{510, 1080}";
}
);
layerId = "2D8F7115-C311-411E-929D-56333CF7FFB2";
paths = (
{
closed = 1;
nodes = (
"812 -436 OFFCURVE",
"1004 -256 OFFCURVE",
"1004 70 CURVE SMOOTH",
"1004 1082 LINE",
"692 1082 LINE",
"692 982 LINE",
"608 982 LINE",
"692 860 LINE",
"692 250 LINE",
"646 148 LINE",
"674 148 LINE",
"674 50 LINE SMOOTH",
"674 -84 OFFCURVE",
"534 -142 OFFCURVE",
"434 -142 CURVE SMOOTH",
"358 -142 OFFCURVE",
"288 -110 OFFCURVE",
"212 -64 CURVE",
"98 -338 LINE",
"174 -384 OFFCURVE",
"314 -436 OFFCURVE",
"478 -436 CURVE SMOOTH"
);
},
{
closed = 1;
nodes = (
"658 28 OFFCURVE",
"838 286 OFFCURVE",
"838 578 CURVE SMOOTH",
"838 860 OFFCURVE",
"676 1098 OFFCURVE",
"434 1098 CURVE SMOOTH",
"242 1098 OFFCURVE",
"30 926 OFFCURVE",
"30 558 CURVE SMOOTH",
"30 184 OFFCURVE",
"248 28 OFFCURVE",
"422 28 CURVE SMOOTH"
);
},
{
closed = 1;
nodes = (
"436 312 OFFCURVE",
"374 416 OFFCURVE",
"374 570 CURVE SMOOTH",
"374 726 OFFCURVE",
"442 816 OFFCURVE",
"534 816 CURVE SMOOTH",
"624 816 OFFCURVE",
"688 726 OFFCURVE",
"688 570 CURVE SMOOTH",
"688 414 OFFCURVE",
"620 312 OFFCURVE",
"524 312 CURVE SMOOTH"
);
}
);
width = 1076;
},
{
anchors = (
{
name = bottom;
position = "{520, -420}";
},
{
name = top;
position = "{510, 1060}";
}
);
layerId = "FD1CEFBD-BAB1-4C2A-A598-30E93F9A29F6";
paths = (
{
closed = 1;
nodes = (
"718 -436 OFFCURVE",
"932 -298 OFFCURVE",
"932 32 CURVE SMOOTH",
"932 1060 LINE",
"758 1060 LINE",
"758 926 LINE",
"722 926 LINE",
"768 828 LINE",
"768 258 LINE",
"736 164 LINE",
"766 164 LINE",
"766 24 LINE SMOOTH",
"766 -196 OFFCURVE",
"598 -280 OFFCURVE",
"476 -280 CURVE SMOOTH",
"378 -280 OFFCURVE",
"268 -232 OFFCURVE",
"220 -182 CURVE",
"158 -334 LINE",
"232 -388 OFFCURVE",
"358 -436 OFFCURVE",
"492 -436 CURVE SMOOTH"
);
},
{
closed = 1;
nodes = (
"714 -4 OFFCURVE",
"876 228 OFFCURVE",
"876 544 CURVE SMOOTH",
"876 860 OFFCURVE",
"720 1078 OFFCURVE",
"492 1078 CURVE SMOOTH",
"276 1078 OFFCURVE",
"72 878 OFFCURVE",
"72 540 CURVE SMOOTH",
"72 206 OFFCURVE",
"270 -4 OFFCURVE",
"486 -4 CURVE SMOOTH"
);
},
{
closed = 1;
nodes = (
"358 156 OFFCURVE",
"248 316 OFFCURVE",
"248 540 CURVE SMOOTH",
"248 762 OFFCURVE",
"358 918 OFFCURVE",
"512 918 CURVE SMOOTH",
"660 918 OFFCURVE",
"768 770 OFFCURVE",
"768 544 CURVE SMOOTH",
"768 316 OFFCURVE",
"660 156 OFFCURVE",
"512 156 CURVE SMOOTH"
);
}
);
width = 1048;
}
);
leftKerningGroup = LAT_G_LC;
rightKerningGroup = LAT_G_LC;
unicode = 0067;
},
{
color = 4;
glyphname = g.ss01;
lastChange = "2021-05-03 01:08:42 +0000";
layers = (
{
anchors = (
{
name = bottom;
position = "{556, -420}";
},
{
name = top;
position = "{550, 1048}";
}
);
components = (
{
name = _part.bowl.ss01;
transform = "{-1, 0, 0, 1, 1106, 0}";
}
);
layerId = "AB099EFE-E788-4EFC-8633-CF147CB782A6";
paths = (
{
closed = 1;
nodes = (
"718 -436 OFFCURVE",
"950 -318 OFFCURVE",
"950 8 CURVE SMOOTH",
"950 1048 LINE",
"890 1048 LINE",
"890 810 LINE",
"876 810 LINE",
"894 740 LINE",
"894 318 LINE",
"880 248 LINE",
"890 248 LINE",
"890 4 LINE SMOOTH",
"890 -274 OFFCURVE",
"694 -382 OFFCURVE",
"540 -380 CURVE SMOOTH",
"430 -378 OFFCURVE",
"304 -334 OFFCURVE",
"238 -266 CURVE",
"214 -326 LINE",
"282 -388 OFFCURVE",
"428 -436 OFFCURVE",
"540 -436 CURVE SMOOTH"
);
}
);
width = 1102;
},
{
anchors = (
{
name = bottom;
position = "{558, -420}";
},
{
name = top;
position = "{536, 1080}";
}
);
components = (
{
name = _part.bowl.ss01;
transform = "{-1, 0, 0, 0.95973, 1134, 46}";
}
);
layerId = "2D8F7115-C311-411E-929D-56333CF7FFB2";
paths = (
{
closed = 1;
nodes = (
"824 -436 OFFCURVE",
"1028 -256 OFFCURVE",
"1028 70 CURVE SMOOTH",
"1028 1080 LINE",
"692 1080 LINE",
"692 976 LINE",
"648 976 LINE",
"690 854 LINE",
"690 212 LINE",
"634 160 LINE",
"692 160 LINE",
"692 50 LINE SMOOTH",
"692 -92 OFFCURVE",
"548 -142 OFFCURVE",
"454 -142 CURVE SMOOTH",
"374 -142 OFFCURVE",
"286 -110 OFFCURVE",
"216 -64 CURVE",
"104 -338 LINE",
"178 -384 OFFCURVE",
"302 -436 OFFCURVE",
"486 -436 CURVE SMOOTH"
);
}
);
width = 1100;
},
{
anchors = (
{
name = bottom;
position = "{566, -420}";
},
{
name = top;
position = "{554, 1060}";
}
);
components = (
{
alignment = -1;
name = _part.bowl.ss01;
transform = "{-1, 0, 0, 0.98476, 1118, 20}";
}
);
layerId = "FD1CEFBD-BAB1-4C2A-A598-30E93F9A29F6";
paths = (
{
closed = 1;
nodes = (
"772 -434 OFFCURVE",
"984 -284 OFFCURVE",
"984 32 CURVE SMOOTH",
"984 1060 LINE",
"814 1060 LINE",
"814 914 LINE",
"790 914 LINE",
"822 828 LINE",
"822 262 LINE",
"792 168 LINE",
"814 168 LINE",
"814 24 LINE SMOOTH",
"814 -202 OFFCURVE",
"644 -278 OFFCURVE",
"514 -278 CURVE SMOOTH",
"408 -278 OFFCURVE",
"304 -234 OFFCURVE",
"230 -168 CURVE",
"168 -320 LINE",
"246 -386 OFFCURVE",
"382 -434 OFFCURVE",
"520 -434 CURVE SMOOTH"
);
}
);
width = 1100;
}
);
leftKerningGroup = LAT_G_LC;
leftMetricsKey = g;
rightKerningGroup = LAT_G_LC;
rightMetricsKey = g;
},
{
color = 7;
glyphname = g.ss03;
lastChange = "2021-05-03 01:08:30 +0000";
layers = (
{
anchors = (
{
name = bottom;
position = "{492, -438}";
},
{
name = top;
position = "{470, 1048}";
}
);
layerId = "AB099EFE-E788-4EFC-8633-CF147CB782A6";
paths = (
{
closed = 1;
nodes = (
"720 -438 OFFCURVE",
"902 -298 OFFCURVE",
"902 -106 CURVE SMOOTH",
"902 34 OFFCURVE",
"800 126 OFFCURVE",
"634 126 CURVE SMOOTH",
"398 126 LINE SMOOTH",
"288 126 OFFCURVE",
"200 200 OFFCURVE",
"200 312 CURVE SMOOTH",
"200 372 OFFCURVE",
"226 414 OFFCURVE",
"252 438 CURVE",
"210 484 LINE",
"180 452 OFFCURVE",
"144 392 OFFCURVE",
"144 316 CURVE SMOOTH",
"144 198 OFFCURVE",
"226 70 OFFCURVE",
"400 70 CURVE SMOOTH",
"642 70 LINE SMOOTH",
"768 70 OFFCURVE",
"842 0 OFFCURVE",
"842 -106 CURVE SMOOTH",
"842 -258 OFFCURVE",
"698 -382 OFFCURVE",
"482 -382 CURVE SMOOTH",
"292 -382 OFFCURVE",
"162 -284 OFFCURVE",
"162 -140 CURVE SMOOTH",
"162 -36 OFFCURVE",
"234 74 OFFCURVE",
"302 106 CURVE",
"252 144 LINE",
"170 90 OFFCURVE",
"102 -20 OFFCURVE",
"102 -140 CURVE SMOOTH",
"102 -316 OFFCURVE",
"256 -438 OFFCURVE",
"478 -438 CURVE SMOOTH"
);
},
{
closed = 1;
nodes = (
"672 332 OFFCURVE",
"818 480 OFFCURVE",
"818 702 CURVE SMOOTH",
"818 918 OFFCURVE",
"678 1064 OFFCURVE",
"472 1064 CURVE SMOOTH",
"272 1064 OFFCURVE",
"126 922 OFFCURVE",
"126 704 CURVE SMOOTH",
"126 484 OFFCURVE",
"274 332 OFFCURVE",
"474 332 CURVE SMOOTH"
);
},
{
closed = 1;
nodes = (
"310 388 OFFCURVE",
"188 520 OFFCURVE",
"188 700 CURVE SMOOTH",
"188 876 OFFCURVE",
"302 1008 OFFCURVE",
"472 1008 CURVE SMOOTH",
"634 1008 OFFCURVE",
"758 886 OFFCURVE",
"758 700 CURVE SMOOTH",
"758 504 OFFCURVE",
"624 388 OFFCURVE",
"472 388 CURVE SMOOTH"
);
},
{
closed = 1;
nodes = (
"790 964 OFFCURVE",
"838 992 OFFCURVE",
"918 1036 CURVE",
"888 1094 LINE",
"818 1056 OFFCURVE",
"766 1014 OFFCURVE",
"706 966 CURVE",
"736 914 LINE"
);
}
);
width = 992;
},
{
anchors = (
{
name = bottom;
position = "{490, -438}";
},
{
name = top;
position = "{478, 1080}";
}
);
background = {
paths = (
{
closed = 1;
nodes = (
"995 -455 OFFCURVE",
"1200 -303 OFFCURVE",
"1200 -82 CURVE SMOOTH",
"1200 98 OFFCURVE",
"1061 209 OFFCURVE",
"836 208 CURVE SMOOTH",
"586 208 LINE SMOOTH",
"471 209 OFFCURVE",
"381 246 OFFCURVE",
"380 316 CURVE SMOOTH",
"381 356 OFFCURVE",
"406 385 OFFCURVE",
"434 398 CURVE",
"316 504 LINE",
"193 446 OFFCURVE",
"147 315 OFFCURVE",
"148 242 CURVE SMOOTH",
"147 82 OFFCURVE",
"336 -4 OFFCURVE",
"610 -4 CURVE SMOOTH",
"734 -4 LINE SMOOTH",
"819 -4 OFFCURVE",
"872 -37 OFFCURVE",
"872 -82 CURVE SMOOTH",
"872 -147 OFFCURVE",
"766 -180 OFFCURVE",
"626 -180 CURVE SMOOTH",
"479 -180 OFFCURVE",
"324 -143 OFFCURVE",
"324 -58 CURVE SMOOTH",
"324 -8 OFFCURVE",
"369 41 OFFCURVE",
"426 58 CURVE",
"230 126 LINE",
"131 102 OFFCURVE",
"41 -20 OFFCURVE",
"40 -140 CURVE SMOOTH",
"41 -319 OFFCURVE",
"246 -455 OFFCURVE",
"610 -454 CURVE SMOOTH"
);
}
);
};
layerId = "2D8F7115-C311-411E-929D-56333CF7FFB2";
paths = (
{
closed = 1;
nodes = (
"898 -438 OFFCURVE",
"1024 -284 OFFCURVE",
"1024 -82 CURVE SMOOTH",
"1024 120 OFFCURVE",
"882 234 OFFCURVE",
"682 234 CURVE SMOOTH",
"470 234 LINE SMOOTH",
"370 234 OFFCURVE",
"300 234 OFFCURVE",
"300 300 CURVE SMOOTH",
"300 344 OFFCURVE",
"338 374 OFFCURVE",
"358 386 CURVE",
"160 472 LINE",
"132 456 OFFCURVE",
"46 396 OFFCURVE",
"46 282 CURVE SMOOTH",
"46 124 OFFCURVE",
"184 -4 OFFCURVE",
"418 -4 CURVE SMOOTH",
"624 -4 LINE SMOOTH",
"636 -4 OFFCURVE",
"700 -4 OFFCURVE",
"700 -70 CURVE SMOOTH",
"700 -152 OFFCURVE",
"612 -164 OFFCURVE",
"520 -164 CURVE SMOOTH",
"412 -164 OFFCURVE",
"268 -150 OFFCURVE",
"268 -54 CURVE SMOOTH",
"268 -2 OFFCURVE",
"302 52 OFFCURVE",
"344 66 CURVE",
"158 126 LINE",
"76 102 OFFCURVE",
"-6 -22 OFFCURVE",
"-6 -148 CURVE SMOOTH",
"-6 -328 OFFCURVE",
"150 -438 OFFCURVE",
"490 -438 CURVE SMOOTH"
);
},
{
closed = 1;
nodes = (
"718 308 OFFCURVE",
"894 476 OFFCURVE",
"894 704 CURVE SMOOTH",
"894 938 OFFCURVE",
"710 1098 OFFCURVE",
"474 1098 CURVE SMOOTH",
"242 1098 OFFCURVE",
"68 942 OFFCURVE",
"68 716 CURVE SMOOTH",
"68 484 OFFCURVE",
"252 308 OFFCURVE",
"488 308 CURVE SMOOTH"
);
},
{
closed = 1;
nodes = (
"416 544 OFFCURVE",
"364 614 OFFCURVE",
"364 698 CURVE SMOOTH",
"364 782 OFFCURVE",
"416 852 OFFCURVE",
"480 852 CURVE SMOOTH",
"546 852 OFFCURVE",
"596 788 OFFCURVE",
"596 696 CURVE SMOOTH",
"596 602 OFFCURVE",
"542 544 OFFCURVE",
"484 544 CURVE SMOOTH"
);
},
{
closed = 1;
nodes = (
"892 926 OFFCURVE",
"914 938 OFFCURVE",
"1034 938 CURVE",
"980 1192 LINE",
"888 1164 OFFCURVE",
"814 1128 OFFCURVE",
"658 1008 CURVE",
"798 888 LINE"
);
}
);
width = 1018;
},
{
anchors = (
{
name = bottom;
position = "{494, -438}";
},
{
name = top;
position = "{478, 1060}";
}
);
layerId = "FD1CEFBD-BAB1-4C2A-A598-30E93F9A29F6";
paths = (
{
closed = 1;
nodes = (
"782 -438 OFFCURVE",
"944 -274 OFFCURVE",
"946 -94 CURVE SMOOTH",
"948 68 OFFCURVE",
"822 168 OFFCURVE",
"646 168 CURVE SMOOTH",
"462 168 LINE SMOOTH",
"390 168 OFFCURVE",
"298 194 OFFCURVE",
"298 300 CURVE SMOOTH",
"298 344 OFFCURVE",
"318 366 OFFCURVE",
"350 394 CURVE",
"232 488 LINE",
"184 438 OFFCURVE",
"144 370 OFFCURVE",
"144 294 CURVE SMOOTH",
"144 172 OFFCURVE",
"238 20 OFFCURVE",
"462 20 CURVE SMOOTH",
"596 20 LINE SMOOTH",
"694 20 OFFCURVE",
"776 -8 OFFCURVE",
"776 -96 CURVE SMOOTH",
"776 -206 OFFCURVE",
"666 -282 OFFCURVE",
"496 -282 CURVE SMOOTH",
"344 -282 OFFCURVE",
"230 -230 OFFCURVE",
"230 -106 CURVE SMOOTH",
"230 -18 OFFCURVE",
"292 46 OFFCURVE",
"342 66 CURVE",
"216 140 LINE",
"128 86 OFFCURVE",
"66 -14 OFFCURVE",
"66 -122 CURVE SMOOTH",
"66 -312 OFFCURVE",
"236 -438 OFFCURVE",
"498 -438 CURVE SMOOTH"
);
},
{
closed = 1;
nodes = (
"704 328 OFFCURVE",
"854 488 OFFCURVE",
"854 704 CURVE SMOOTH",
"854 926 OFFCURVE",
"700 1076 OFFCURVE",
"486 1076 CURVE SMOOTH",
"274 1076 OFFCURVE",
"116 926 OFFCURVE",
"116 704 CURVE SMOOTH",
"116 480 OFFCURVE",
"274 328 OFFCURVE",
"488 328 CURVE SMOOTH"
);
},
{
closed = 1;
nodes = (
"376 476 OFFCURVE",
"288 570 OFFCURVE",
"288 700 CURVE SMOOTH",
"288 832 OFFCURVE",
"372 928 OFFCURVE",
"488 928 CURVE SMOOTH",
"594 928 OFFCURVE",
"684 854 OFFCURVE",
"684 704 CURVE SMOOTH",
"684 570 OFFCURVE",
"604 476 OFFCURVE",
"490 476 CURVE SMOOTH"
);
},
{
closed = 1;
nodes = (
"826 938 OFFCURVE",
"870 972 OFFCURVE",
"960 992 CURVE",
"898 1142 LINE",
"812 1106 OFFCURVE",
"742 1064 OFFCURVE",
"658 996 CURVE",
"756 898 LINE"
);
}
);
width = 1002;
}
);
leftKerningGroup = LAT_GSS03_LC;
rightKerningGroup = LAT_GSS03_LC;
},
{
glyphname = h;
lastChange = "2021-05-03 01:08:42 +0000";
layers = (
{
anchors = (
{
name = bottom;
position = "{488, 0}";
},
{
name = center;
position = "{182, 1262}";
},
{
name = top;
position = "{182, 1474}";
}
);
layerId = "AB099EFE-E788-4EFC-8633-CF147CB782A6";
paths = (
{
closed = 1;
nodes = (
"212 0 LINE",
"212 668 LINE SMOOTH",
"212 844 OFFCURVE",
"346 1008 OFFCURVE",
"512 1008 CURVE SMOOTH",
"656 1008 OFFCURVE",
"762 890 OFFCURVE",
"762 660 CURVE SMOOTH",
"762 0 LINE",
"822 0 LINE",
"822 676 LINE SMOOTH",
"822 934 OFFCURVE",
"696 1064 OFFCURVE",
"518 1064 CURVE SMOOTH",
"368 1064 OFFCURVE",
"242 958 OFFCURVE",
"200 824 CURVE",
"238 858 LINE",
"212 858 LINE",
"212 1540 LINE",
"152 1540 LINE",
"152 0 LINE"
);
}
);
width = 966;
},
{
anchors = (
{
name = bottom;
position = "{526, 0}";
},
{
name = center;
position = "{246, 1298}";
},
{
name = top;
position = "{246, 1540}";
}
);
layerId = "2D8F7115-C311-411E-929D-56333CF7FFB2";
paths = (
{
closed = 1;
nodes = (
"426 0 LINE",
"426 630 LINE SMOOTH",
"426 744 OFFCURVE",
"470 806 OFFCURVE",
"528 806 CURVE SMOOTH",
"588 806 OFFCURVE",
"624 748 OFFCURVE",
"624 634 CURVE SMOOTH",
"624 0 LINE",
"980 0 LINE",
"980 712 LINE SMOOTH",
"980 948 OFFCURVE",
"864 1096 OFFCURVE",
"676 1096 CURVE SMOOTH",
"544 1096 OFFCURVE",
"400 1024 OFFCURVE",
"376 868 CURVE",
"486 988 LINE",
"426 988 LINE",
"426 1540 LINE",
"70 1540 LINE",
"70 0 LINE"
);
}
);
width = 1044;
},
{
anchors = (
{
name = bottom;
position = "{500, 0}";
},
{
name = center;
position = "{206, 1274}";
},
{
name = top;
position = "{204, 1516}";
}
);
layerId = "FD1CEFBD-BAB1-4C2A-A598-30E93F9A29F6";
paths = (
{
closed = 1;
nodes = (
"290 0 LINE",
"290 644 LINE SMOOTH",
"290 824 OFFCURVE",
"388 918 OFFCURVE",
"508 918 CURVE SMOOTH",
"626 918 OFFCURVE",
"708 824 OFFCURVE",
"708 644 CURVE SMOOTH",
"708 0 LINE",
"880 0 LINE",
"880 680 LINE SMOOTH",
"880 868 OFFCURVE",
"788 1076 OFFCURVE",
"562 1076 CURVE SMOOTH",
"420 1076 OFFCURVE",
"296 996 OFFCURVE",
"256 860 CURVE",
"328 938 LINE",
"290 938 LINE",
"290 1540 LINE",
"118 1540 LINE",
"118 0 LINE"
);
}
);
width = 992;
}
);
leftKerningGroup = LAT_H_UC;
rightKerningGroup = LAT_N_LC;
rightMetricsKey = n;
unicode = 0068;
},
{
glyphname = idotless;
lastChange = "2021-05-03 01:08:30 +0000";
layers = (
{
anchors = (
{
name = bottom;
position = "{188, 0}";
},
{
name = ogonek;
position = "{216, 0}";
},
{
name = top;
position = "{188, 1048}";
}
);
layerId = "AB099EFE-E788-4EFC-8633-CF147CB782A6";
paths = (
{
closed = 1;
nodes = (
"218 0 LINE",
"218 1048 LINE",
"158 1048 LINE",
"158 0 LINE"
);
}
);
width = 372;
},
{
anchors = (
{
name = bottom;
position = "{252, 0}";
},
{
name = ogonek;
position = "{332, 0}";
},
{
name = top;
position = "{250, 1080}";
}
);
guideLines = (
{
angle = 60;
position = "{172, 0}";
}
);
layerId = "2D8F7115-C311-411E-929D-56333CF7FFB2";
paths = (
{
closed = 1;
nodes = (
"428 0 LINE",
"428 1080 LINE",
"72 1080 LINE",
"72 0 LINE"
);
}
);
width = 502;
},
{
anchors = (
{
name = bottom;
position = "{210, 0}";
},
{
name = ogonek;
position = "{262, 0}";
},
{
name = top;
position = "{210, 1060}";
}
);
layerId = "FD1CEFBD-BAB1-4C2A-A598-30E93F9A29F6";
paths = (
{
closed = 1;
nodes = (
"296 0 LINE",
"296 1060 LINE",
"124 1060 LINE",
"124 0 LINE"
);
}
);
width = 420;
}
);
unicode = 0131;
},
{
color = 8;
glyphname = idotless.ss02;
lastChange = "2021-05-03 01:08:30 +0000";
layers = (
{
anchors = (
{
name = bottom;
position = "{266, 0}";
},
{
name = center;
position = "{194, 570}";
},
{
name = ogonek;
position = "{302, -16}";
},
{
name = top;
position = "{194, 1048}";
}
);
background = {
anchors = (
{
name = bottom;
position = "{300, 0}";
},
{
name = center;
position = "{218, 570}";
},
{
name = ogonek;
position = "{438, 12}";
},
{
name = top;
position = "{218, 1048}";
}
);
paths = (
{
closed = 1;
nodes = (
"375 -8 OFFCURVE",
"418 0 OFFCURVE",
"438 12 CURVE",
"438 74 LINE",
"410 59 OFFCURVE",
"371 49 OFFCURVE",
"336 50 CURVE SMOOTH",
"248 49 OFFCURVE",
"246 119 OFFCURVE",
"246 208 CURVE SMOOTH",
"246 1048 LINE",
"184 1048 LINE",
"184 222 LINE SMOOTH",
"184 111 OFFCURVE",
"184 -8 OFFCURVE",
"340 -8 CURVE SMOOTH"
);
}
);
};
guideLines = (
{
angle = 80;
position = "{178, -8}";
}
);
layerId = "AB099EFE-E788-4EFC-8633-CF147CB782A6";
paths = (
{
closed = 1;
nodes = (
"322 38 LINE",
"266 68 OFFCURVE",
"222 114 OFFCURVE",
"222 198 CURVE SMOOTH",
"222 1048 LINE",
"162 1048 LINE",
"162 236 LINE SMOOTH",
"162 118 OFFCURVE",
"192 38 OFFCURVE",
"302 -16 CURVE"
);
}
);
width = 442;
},
{
anchors = (
{
name = bottom;
position = "{288, 0}";
},
{
name = center;
position = "{282, 570}";
},
{
name = ogonek;
position = "{450, -16}";
},
{
name = top;
position = "{282, 1080}";
}
);
background = {
anchors = (
{
name = bottom;
position = "{336, 0}";
},
{
name = center;
position = "{312, 570}";
},
{
name = ogonek;
position = "{598, 8}";
},
{
name = top;
position = "{312, 1080}";
}
);
paths = (
{
closed = 1;
nodes = (
"483 -16 OFFCURVE",
"551 -10 OFFCURVE",
"598 8 CURVE",
"598 286 LINE",
"571 281 OFFCURVE",
"559 279 OFFCURVE",
"544 278 CURVE SMOOTH",
"487 279 OFFCURVE",
"483 319 OFFCURVE",
"484 376 CURVE SMOOTH",
"484 1082 LINE",
"126 1082 LINE",
"126 278 LINE SMOOTH",
"127 111 OFFCURVE",
"238 -16 OFFCURVE",
"430 -16 CURVE SMOOTH"
);
}
);
};
guideLines = (
{
angle = 80;
position = "{284, -8}";
}
);
layerId = "2D8F7115-C311-411E-929D-56333CF7FFB2";
paths = (
{
closed = 1;
nodes = (
"578 278 LINE",
"484 302 OFFCURVE",
"454 368 OFFCURVE",
"454 462 CURVE SMOOTH",
"454 1082 LINE",
"98 1082 LINE",
"98 446 LINE SMOOTH",
"98 174 OFFCURVE",
"202 -4 OFFCURVE",
"450 -16 CURVE"
);
}
);
width = 606;
},
{
anchors = (
{
name = bottom;
position = "{288, 0}";
},
{
name = center;
position = "{232, 570}";
},
{
name = ogonek;
position = "{372, -16}";
},
{
name = top;
position = "{232, 1060}";
}
);
layerId = "FD1CEFBD-BAB1-4C2A-A598-30E93F9A29F6";
paths = (
{
closed = 1;
nodes = (
"410 144 LINE",
"360 156 OFFCURVE",
"312 196 OFFCURVE",
"312 278 CURVE SMOOTH",
"312 1060 LINE",
"136 1060 LINE",
"136 312 LINE SMOOTH",
"136 132 OFFCURVE",
"202 8 OFFCURVE",
"372 -16 CURVE"
);
}
);
width = 512;
}
);
rightKerningGroup = LAT_A_LC;
},
{
glyphname = jdotless;
lastChange = "2021-05-03 01:08:30 +0000";
layers = (
{
anchors = (
{
name = center;
position = "{226, 570}";
},
{
name = top;
position = "{226, 1048}";
}
);
layerId = "AB099EFE-E788-4EFC-8633-CF147CB782A6";
paths = (
{
closed = 1;
nodes = (
"190 -436 OFFCURVE",
"258 -304 OFFCURVE",
"258 -138 CURVE SMOOTH",
"258 1048 LINE",
"196 1048 LINE",
"196 -154 LINE SMOOTH",
"196 -270 OFFCURVE",
"148 -380 OFFCURVE",
"32 -380 CURVE SMOOTH",
"16 -380 OFFCURVE",
"-10 -378 OFFCURVE",
"-32 -368 CURVE",
"-32 -428 LINE",
"-8 -434 OFFCURVE",
"16 -436 OFFCURVE",
"36 -436 CURVE SMOOTH"
);
}
);
width = 412;
},
{
anchors = (
{
name = center;
position = "{282, 570}";
},
{
name = top;
position = "{278, 1080}";
}
);
layerId = "2D8F7115-C311-411E-929D-56333CF7FFB2";
paths = (
{
closed = 1;
nodes = (
"336 -444 OFFCURVE",
"458 -260 OFFCURVE",
"458 -10 CURVE SMOOTH",
"458 1080 LINE",
"102 1080 LINE",
"102 -34 LINE SMOOTH",
"102 -88 OFFCURVE",
"82 -130 OFFCURVE",
"20 -130 CURVE SMOOTH",
"-4 -130 OFFCURVE",
"-40 -126 OFFCURVE",
"-66 -112 CURVE",
"-66 -428 LINE",
"-22 -438 OFFCURVE",
"38 -444 OFFCURVE",
"82 -444 CURVE SMOOTH"
);
}
);
width = 530;
},
{
anchors = (
{
name = center;
position = "{250, 570}";
},
{
name = top;
position = "{250, 1060}";
}
);
layerId = "FD1CEFBD-BAB1-4C2A-A598-30E93F9A29F6";
paths = (
{
closed = 1;
nodes = (
"250 -436 OFFCURVE",
"336 -302 OFFCURVE",
"336 -124 CURVE SMOOTH",
"336 1060 LINE",
"164 1060 LINE",
"164 -108 LINE SMOOTH",
"164 -216 OFFCURVE",
"122 -272 OFFCURVE",
"42 -272 CURVE SMOOTH",
"18 -272 OFFCURVE",
"-12 -268 OFFCURVE",
"-38 -260 CURVE",
"-38 -424 LINE",
"-8 -432 OFFCURVE",
"26 -436 OFFCURVE",
"58 -436 CURVE SMOOTH"
);
}
);
width = 464;
}
);
leftKerningGroup = LAT_J_LC;
rightKerningGroup = LAT_J_LC;
unicode = 0237;
},
{
glyphname = k;
lastChange = "2021-05-03 01:08:30 +0000";
layers = (
{
anchors = (
{
name = bottom;
position = "{454, 0}";
},
{
name = top;
position = "{180, 1540}";
}
);
layerId = "AB099EFE-E788-4EFC-8633-CF147CB782A6";
paths = (
{
closed = 1;
nodes = (
"212 0 LINE",
"212 504 LINE",
"286 504 LINE",
"240 528 LINE",
"708 0 LINE",
"794 0 LINE",
"300 552 LINE",
"300 516 LINE",
"762 1048 LINE",
"676 1048 LINE",
"240 540 LINE",
"286 566 LINE",
"212 566 LINE",
"212 1540 LINE",
"152 1540 LINE",
"152 0 LINE"
);
}
);
width = 854;
},
{
anchors = (
{
name = bottom;
position = "{548, 0}";
},
{
name = top;
position = "{250, 1540}";
}
);
layerId = "2D8F7115-C311-411E-929D-56333CF7FFB2";
paths = (
{
closed = 1;
nodes = (
"426 0 LINE",
"426 454 LINE",
"500 454 LINE",
"396 508 LINE",
"690 0 LINE",
"1100 0 LINE",
"652 668 LINE",
"652 462 LINE",
"1086 1082 LINE",
"678 1082 LINE",
"400 606 LINE",
"500 660 LINE",
"426 660 LINE",
"426 1540 LINE",
"70 1540 LINE",
"70 0 LINE"
);
}
);
width = 1080;
},
{
anchors = (
{
name = bottom;
position = "{484, 0}";
},
{
name = top;
position = "{204, 1516}";
}
);
layerId = "FD1CEFBD-BAB1-4C2A-A598-30E93F9A29F6";
paths = (
{
closed = 1;
nodes = (
"290 0 LINE",
"290 480 LINE",
"364 480 LINE",
"292 528 LINE",
"696 0 LINE",
"914 0 LINE",
"440 602 LINE",
"440 508 LINE",
"888 1060 LINE",
"668 1060 LINE",
"294 582 LINE",
"364 626 LINE",
"290 626 LINE",
"290 1540 LINE",
"118 1540 LINE",
"118 0 LINE"
);
}
);
width = 942;
}
);
leftKerningGroup = LAT_H_UC;
leftMetricsKey = h;
rightKerningGroup = LAT_K_LC;
unicode = 006B;
},
{
glyphname = kgreenlandic;
lastChange = "2021-05-03 01:08:30 +0000";
layers = (
{
anchors = (
{
name = bottom;
position = "{432, 0}";
},
{
name = top;
position = "{432, 1048}";
}
);
layerId = "AB099EFE-E788-4EFC-8633-CF147CB782A6";
paths = (
{
closed = 1;
nodes = (
"212 0 LINE",
"212 504 LINE",
"282 504 LINE",
"238 528 LINE",
"704 0 LINE",
"792 0 LINE",
"296 552 LINE",
"296 516 LINE",
"758 1048 LINE",
"672 1048 LINE",
"238 540 LINE",
"282 566 LINE",
"212 566 LINE",
"212 1048 LINE",
"152 1048 LINE",
"152 0 LINE"
);
}
);
width = 852;
},
{
anchors = (
{
name = bottom;
position = "{532, 0}";
},
{
name = top;
position = "{532, 1080}";
}
);
layerId = "2D8F7115-C311-411E-929D-56333CF7FFB2";
paths = (
{
closed = 1;
nodes = (
"426 0 LINE",
"426 454 LINE",
"488 454 LINE",
"384 508 LINE",
"678 0 LINE",
"1088 0 LINE",
"640 668 LINE",
"640 462 LINE",
"1074 1082 LINE",
"656 1082 LINE",
"384 606 LINE",
"488 660 LINE",
"426 660 LINE",
"426 1082 LINE",
"70 1082 LINE",
"70 0 LINE"
);
}
);
width = 1068;
},
{
anchors = (
{
name = bottom;
position = "{464, 0}";
},
{
name = top;
position = "{464, 1060}";
}
);
layerId = "FD1CEFBD-BAB1-4C2A-A598-30E93F9A29F6";
paths = (
{
closed = 1;
nodes = (
"290 0 LINE",
"290 458 LINE",
"362 458 LINE",
"292 508 LINE",
"694 0 LINE",
"912 0 LINE",
"438 582 LINE",
"438 488 LINE",
"886 1060 LINE",
"666 1060 LINE",
"292 562 LINE",
"362 606 LINE",
"290 606 LINE",
"290 1060 LINE",
"118 1060 LINE",
"118 0 LINE"
);
}
);
width = 940;
}
);
leftKerningGroup = LAT_N_LC;
leftMetricsKey = n;
rightKerningGroup = LAT_K_LC;
rightMetricsKey = k;
unicode = 0138;
},
{
glyphname = l;
lastChange = "2021-05-03 01:08:42 +0000";
layers = (
{
anchors = (
{
name = bottom;
position = "{246, 0}";
},
{
name = center;
position = "{186, 738}";
},
{
name = dot;
position = "{426, 738}";
},
{
name = top;
position = "{186, 1540}";
},
{
name = topright;
position = "{220, 1540}";
}
);
layerId = "AB099EFE-E788-4EFC-8633-CF147CB782A6";
paths = (
{
closed = 1;
nodes = (
"296 -8 OFFCURVE",
"324 -4 OFFCURVE",
"340 4 CURVE",
"340 64 LINE",
"330 56 OFFCURVE",
"304 48 OFFCURVE",
"282 48 CURVE SMOOTH",
"216 48 OFFCURVE",
"216 112 OFFCURVE",
"216 174 CURVE SMOOTH",
"216 1540 LINE",
"156 1540 LINE",
"156 174 LINE SMOOTH",
"156 70 OFFCURVE",
"176 -8 OFFCURVE",
"276 -8 CURVE SMOOTH"
);
}
);
width = 402;
},
{
anchors = (
{
name = bottom;
position = "{296, 0}";
},
{
name = center;
position = "{248, 786}";
},
{
name = dot;
position = "{738, 754}";
},
{
name = top;
position = "{250, 1540}";
},
{
name = topright;
position = "{430, 1540}";
}
);
guideLines = (
{
angle = 100;
position = "{276, -12}";
}
);
layerId = "2D8F7115-C311-411E-929D-56333CF7FFB2";
paths = (
{
closed = 1;
nodes = (
"418 -16 OFFCURVE",
"476 -4 OFFCURVE",
"520 12 CURVE",
"520 286 LINE",
"516 284 OFFCURVE",
"502 278 OFFCURVE",
"488 278 CURVE SMOOTH",
"454 278 OFFCURVE",
"432 322 OFFCURVE",
"432 356 CURVE SMOOTH",
"432 1540 LINE",
"74 1540 LINE",
"74 294 LINE SMOOTH",
"74 132 OFFCURVE",
"176 -16 OFFCURVE",
"360 -16 CURVE SMOOTH"
);
}
);
width = 548;
},
{
anchors = (
{
name = bottom;
position = "{262, 0}";
},
{
name = center;
position = "{214, 774}";
},
{
name = dot;
position = "{542, 746}";
},
{
name = top;
position = "{210, 1540}";
},
{
name = topright;
position = "{298, 1540}";
}
);
layerId = "FD1CEFBD-BAB1-4C2A-A598-30E93F9A29F6";
paths = (
{
closed = 1;
nodes = (
"348 -16 OFFCURVE",
"378 -12 OFFCURVE",
"400 -4 CURVE",
"400 152 LINE",
"388 148 OFFCURVE",
"372 144 OFFCURVE",
"360 144 CURVE SMOOTH",
"294 144 OFFCURVE",
"294 220 OFFCURVE",
"294 250 CURVE SMOOTH",
"294 1540 LINE",
"122 1540 LINE",
"122 254 LINE SMOOTH",
"122 82 OFFCURVE",
"184 -16 OFFCURVE",
"318 -16 CURVE SMOOTH"
);
}
);
width = 458;
}
);
leftKerningGroup = LAT_L_LC;
leftMetricsKey = "=h+4";
rightKerningGroup = LAT_L_LC;
unicode = 006C;
},
{
color = 4;
glyphname = l.ss01;
lastChange = "2021-05-03 01:08:30 +0000";
layers = (
{
anchors = (
{
name = bottom;
position = "{200, 0}";
},
{
name = center;
position = "{196, 738}";
},
{
name = dot;
position = "{420, 738}";
},
{
name = top;
position = "{196, 1540}";
},
{
name = topright;
position = "{228, 1540}";
}
);
layerId = "AB099EFE-E788-4EFC-8633-CF147CB782A6";
paths = (
{
closed = 1;
nodes = (
"228 0 LINE",
"228 1540 LINE",
"168 1540 LINE",
"168 0 LINE"
);
}
);
width = 396;
},
{
anchors = (
{
name = bottom;
position = "{268, 0}";
},
{
name = center;
position = "{268, 786}";
},
{
name = dot;
position = "{734, 754}";
},
{
name = top;
position = "{268, 1540}";
},
{
name = topright;
position = "{444, 1540}";
}
);
layerId = "2D8F7115-C311-411E-929D-56333CF7FFB2";
paths = (
{
closed = 1;
nodes = (
"444 0 LINE",
"444 1540 LINE",
"88 1540 LINE",
"88 0 LINE"
);
}
);
width = 534;
},
{
anchors = (
{
name = bottom;
position = "{218, 0}";
},
{
name = center;
position = "{218, 758}";
},
{
name = dot;
position = "{532, 746}";
},
{
name = top;
position = "{218, 1540}";
},
{
name = topright;
position = "{304, 1540}";
}
);
layerId = "FD1CEFBD-BAB1-4C2A-A598-30E93F9A29F6";
paths = (
{
closed = 1;
nodes = (
"304 0 LINE",
"304 1540 LINE",
"132 1540 LINE",
"132 0 LINE"
);
}
);
width = 436;
}
);
leftKerningGroup = LAT_H_UC;
rightKerningGroup = LAT_H_UC;
},
{
glyphname = m;
lastChange = "2021-05-03 01:08:42 +0000";
layers = (
{
anchors = (
{
name = bottom;
position = "{720, 0}";
},
{
name = leghookleft;
position = "{1258, 0}";
},
{
name = top;
position = "{724, 1048}";
}
);
background = {
paths = (
{
closed = 1;
nodes = (
"234 0 LINE",
"234 652 LINE SMOOTH",
"233 815 OFFCURVE",
"360 1008 OFFCURVE",
"558 1008 CURVE SMOOTH",
"680 1008 OFFCURVE",
"811 930 OFFCURVE",
"812 680 CURVE SMOOTH",
"812 0 LINE",
"872 0 LINE",
"872 676 LINE SMOOTH",
"872 819 OFFCURVE",
"995 1008 OFFCURVE",
"1192 1008 CURVE SMOOTH",
"1323 1008 OFFCURVE",
"1442 930 OFFCURVE",
"1442 668 CURVE SMOOTH",
"1442 0 LINE",
"1504 0 LINE",
"1504 688 LINE SMOOTH",
"1503 954 OFFCURVE",
"1360 1065 OFFCURVE",
"1188 1064 CURVE SMOOTH",
"999 1065 OFFCURVE",
"889 934 OFFCURVE",
"852 828 CURVE",
"876 840 LINE",
"832 840 LINE",
"860 820 LINE",
"823 971 OFFCURVE",
"700 1065 OFFCURVE",
"552 1064 CURVE SMOOTH",
"393 1065 OFFCURVE",
"283 958 OFFCURVE",
"222 824 CURVE",
"246 856 LINE",
"234 856 LINE",
"234 1048 LINE",
"172 1048 LINE",
"172 0 LINE"
);
}
);
};
guideLines = (
{
angle = 60;
position = "{142, 358}";
}
);
layerId = "AB099EFE-E788-4EFC-8633-CF147CB782A6";
paths = (
{
closed = 1;
nodes = (
"212 0 LINE",
"212 684 LINE SMOOTH",
"212 882 OFFCURVE",
"320 1008 OFFCURVE",
"458 1008 CURVE SMOOTH",
"586 1008 OFFCURVE",
"690 902 OFFCURVE",
"690 720 CURVE SMOOTH",
"690 0 LINE",
"752 0 LINE",
"752 720 LINE SMOOTH",
"752 902 OFFCURVE",
"868 1008 OFFCURVE",
"1000 1008 CURVE SMOOTH",
"1130 1008 OFFCURVE",
"1230 900 OFFCURVE",
"1230 720 CURVE SMOOTH",
"1230 0 LINE",
"1292 0 LINE",
"1292 720 LINE SMOOTH",
"1292 926 OFFCURVE",
"1172 1064 OFFCURVE",
"1002 1064 CURVE SMOOTH",
"876 1064 OFFCURVE",
"752 984 OFFCURVE",
"710 836 CURVE",
"746 872 LINE",
"700 872 LINE",
"734 836 LINE",
"696 984 OFFCURVE",
"594 1064 OFFCURVE",
"462 1064 CURVE SMOOTH",
"354 1064 OFFCURVE",
"250 1002 OFFCURVE",
"200 860 CURVE",
"228 898 LINE",
"212 898 LINE",
"212 1048 LINE",
"152 1048 LINE",
"152 0 LINE"
);
}
);
width = 1436;
},
{
anchors = (
{
name = bottom;
position = "{778, 0}";
},
{
name = leghookleft;
position = "{1284, 0}";
},
{
name = top;
position = "{768, 1080}";
}
);
layerId = "2D8F7115-C311-411E-929D-56333CF7FFB2";
paths = (
{
closed = 1;
nodes = (
"426 0 LINE",
"426 644 LINE SMOOTH",
"426 750 OFFCURVE",
"458 806 OFFCURVE",
"514 806 CURVE SMOOTH",
"576 806 OFFCURVE",
"588 726 OFFCURVE",
"588 644 CURVE SMOOTH",
"588 0 LINE",
"944 0 LINE",
"944 644 LINE SMOOTH",
"944 750 OFFCURVE",
"974 806 OFFCURVE",
"1030 806 CURVE SMOOTH",
"1092 806 OFFCURVE",
"1106 730 OFFCURVE",
"1106 644 CURVE SMOOTH",
"1106 0 LINE",
"1464 0 LINE",
"1464 684 LINE SMOOTH",
"1464 838 OFFCURVE",
"1442 1096 OFFCURVE",
"1166 1096 CURVE SMOOTH",
"1040 1096 OFFCURVE",
"932 1034 OFFCURVE",
"854 912 CURVE",
"888 946 LINE",
"862 946 LINE",
"884 912 LINE",
"836 1036 OFFCURVE",
"766 1096 OFFCURVE",
"662 1096 CURVE SMOOTH",
"518 1096 OFFCURVE",
"414 1000 OFFCURVE",
"344 816 CURVE",
"448 940 LINE",
"404 940 LINE",
"404 1080 LINE",
"70 1080 LINE",
"70 0 LINE"
);
}
);
width = 1528;
},
{
anchors = (
{
name = bottom;
position = "{738, 0}";
},
{
name = leghookleft;
position = "{1266, 0}";
},
{
name = top;
position = "{758, 1060}";
}
);
layerId = "FD1CEFBD-BAB1-4C2A-A598-30E93F9A29F6";
paths = (
{
closed = 1;
nodes = (
"290 0 LINE",
"290 648 LINE SMOOTH",
"290 826 OFFCURVE",
"376 916 OFFCURVE",
"476 916 CURVE SMOOTH",
"582 916 OFFCURVE",
"652 826 OFFCURVE",
"652 656 CURVE SMOOTH",
"652 0 LINE",
"824 0 LINE",
"824 656 LINE SMOOTH",
"824 832 OFFCURVE",
"912 916 OFFCURVE",
"1012 916 CURVE SMOOTH",
"1116 916 OFFCURVE",
"1184 828 OFFCURVE",
"1184 656 CURVE SMOOTH",
"1184 0 LINE",
"1358 0 LINE",
"1358 692 LINE SMOOTH",
"1358 906 OFFCURVE",
"1260 1076 OFFCURVE",
"1050 1076 CURVE SMOOTH",
"922 1076 OFFCURVE",
"798 1004 OFFCURVE",
"746 856 CURVE",
"820 926 LINE",
"736 926 LINE",
"796 856 LINE",
"762 984 OFFCURVE",
"666 1076 OFFCURVE",
"536 1076 CURVE SMOOTH",
"402 1076 OFFCURVE",
"296 988 OFFCURVE",
"250 840 CURVE",
"316 934 LINE",
"288 934 LINE",
"288 1060 LINE",
"118 1060 LINE",
"118 0 LINE"
);
}
);
width = 1470;
}
);
leftKerningGroup = LAT_N_LC;
leftMetricsKey = n;
rightKerningGroup = LAT_N_LC;
rightMetricsKey = n;
unicode = 006D;
},
{
glyphname = n;
lastChange = "2021-05-03 01:08:30 +0000";
layers = (
{
anchors = (
{
name = bottom;
position = "{506, 0}";
},
{
name = leghookleft;
position = "{182, 0}";
},
{
name = leghookretroflex;
position = "{796, 0}";
},
{
name = top;
position = "{512, 1048}";
}
);
layerId = "AB099EFE-E788-4EFC-8633-CF147CB782A6";
paths = (
{
closed = 1;
nodes = (
"212 0 LINE",
"212 668 LINE SMOOTH",
"212 848 OFFCURVE",
"340 1008 OFFCURVE",
"514 1008 CURVE SMOOTH",
"666 1008 OFFCURVE",
"762 890 OFFCURVE",
"762 660 CURVE SMOOTH",
"762 0 LINE",
"822 0 LINE",
"822 676 LINE SMOOTH",
"822 932 OFFCURVE",
"706 1064 OFFCURVE",
"516 1064 CURVE SMOOTH",
"358 1064 OFFCURVE",
"242 958 OFFCURVE",
"198 824 CURVE",
"238 868 LINE",
"212 868 LINE",
"212 1048 LINE",
"152 1048 LINE",
"152 0 LINE"
);
}
);
width = 966;
},
{
anchors = (
{
name = bottom;
position = "{516, 0}";
},
{
name = leghookleft;
position = "{246, 0}";
},
{
name = leghookretroflex;
position = "{802, 0}";
},
{
name = top;
position = "{550, 1080}";
}
);
layerId = "2D8F7115-C311-411E-929D-56333CF7FFB2";
paths = (
{
closed = 1;
nodes = (
"426 0 LINE",
"426 628 LINE SMOOTH",
"426 744 OFFCURVE",
"472 804 OFFCURVE",
"528 804 CURVE SMOOTH",
"584 804 OFFCURVE",
"624 748 OFFCURVE",
"624 632 CURVE SMOOTH",
"624 0 LINE",
"980 0 LINE",
"980 710 LINE SMOOTH",
"980 946 OFFCURVE",
"854 1096 OFFCURVE",
"702 1096 CURVE SMOOTH",
"546 1096 OFFCURVE",
"398 998 OFFCURVE",
"372 814 CURVE",
"458 936 LINE",
"412 936 LINE",
"412 1080 LINE",
"70 1080 LINE",
"70 0 LINE"
);
}
);
width = 1044;
},
{
anchors = (
{
name = bottom;
position = "{502, 0}";
},
{
name = leghookleft;
position = "{204, 0}";
},
{
name = leghookretroflex;
position = "{792, 0}";
},
{
name = top;
position = "{528, 1060}";
}
);
layerId = "FD1CEFBD-BAB1-4C2A-A598-30E93F9A29F6";
paths = (
{
closed = 1;
nodes = (
"290 0 LINE",
"290 644 LINE SMOOTH",
"290 820 OFFCURVE",
"388 916 OFFCURVE",
"510 916 CURVE SMOOTH",
"632 916 OFFCURVE",
"708 824 OFFCURVE",
"708 644 CURVE SMOOTH",
"708 0 LINE",
"882 0 LINE",
"882 680 LINE SMOOTH",
"882 870 OFFCURVE",
"786 1076 OFFCURVE",
"568 1076 CURVE SMOOTH",
"426 1076 OFFCURVE",
"302 1000 OFFCURVE",
"258 856 CURVE",
"324 930 LINE",
"288 930 LINE",
"288 1060 LINE",
"118 1060 LINE",
"118 0 LINE"
);
}
);
width = 994;
}
);
leftKerningGroup = LAT_N_LC;
rightKerningGroup = LAT_N_LC;
unicode = 006E;
},
{
glyphname = o;
lastChange = "2021-05-03 01:08:30 +0000";
layers = (
{
anchors = (
{
name = bottom;
position = "{536, 0}";
},
{
name = center;
position = "{540, 524}";
},
{
name = horn;
position = "{734, 1012}";
},
{
name = ogonek;
position = "{650, 0}";
},
{
name = top;
position = "{536, 1048}";
},
{
name = topright;
position = "{1036, 1048}";
}
);
layerId = "AB099EFE-E788-4EFC-8633-CF147CB782A6";
paths = (
{
closed = 1;
nodes = (
"790 -16 OFFCURVE",
"968 220 OFFCURVE",
"968 524 CURVE SMOOTH",
"968 838 OFFCURVE",
"790 1064 OFFCURVE",
"536 1064 CURVE SMOOTH",
"284 1064 OFFCURVE",
"104 840 OFFCURVE",
"104 524 CURVE SMOOTH",
"104 218 OFFCURVE",
"284 -16 OFFCURVE",
"536 -16 CURVE SMOOTH"
);
},
{
closed = 1;
nodes = (
"326 40 OFFCURVE",
"164 242 OFFCURVE",
"164 524 CURVE SMOOTH",
"164 812 OFFCURVE",
"326 1008 OFFCURVE",
"536 1008 CURVE SMOOTH",
"754 1008 OFFCURVE",
"908 812 OFFCURVE",
"908 524 CURVE SMOOTH",
"908 242 OFFCURVE",
"754 40 OFFCURVE",
"536 40 CURVE SMOOTH"
);
}
);
width = 1072;
},
{
anchors = (
{
name = bottom;
position = "{532, 0}";
},
{
name = center;
position = "{532, 540}";
},
{
name = horn;
position = "{810, 1016}";
},
{
name = ogonek;
position = "{658, 0}";
},
{
name = top;
position = "{532, 1080}";
},
{
name = topright;
position = "{1024, 1080}";
}
);
layerId = "2D8F7115-C311-411E-929D-56333CF7FFB2";
paths = (
{
closed = 1;
nodes = (
"810 -16 OFFCURVE",
"1034 216 OFFCURVE",
"1034 540 CURVE SMOOTH",
"1034 868 OFFCURVE",
"808 1098 OFFCURVE",
"532 1098 CURVE SMOOTH",
"262 1098 OFFCURVE",
"30 868 OFFCURVE",
"30 540 CURVE SMOOTH",
"30 214 OFFCURVE",
"262 -16 OFFCURVE",
"532 -16 CURVE SMOOTH"
);
},
{
closed = 1;
nodes = (
"442 284 OFFCURVE",
"364 388 OFFCURVE",
"364 540 CURVE SMOOTH",
"364 688 OFFCURVE",
"438 798 OFFCURVE",
"534 798 CURVE SMOOTH",
"634 798 OFFCURVE",
"700 684 OFFCURVE",
"700 540 CURVE SMOOTH",
"700 388 OFFCURVE",
"624 284 OFFCURVE",
"532 284 CURVE SMOOTH"
);
}
);
width = 1064;
},
{
anchors = (
{
name = bottom;
position = "{516, 0}";
},
{
name = center;
position = "{516, 528}";
},
{
name = horn;
position = "{738, 1016}";
},
{
name = ogonek;
position = "{634, 0}";
},
{
name = top;
position = "{516, 1060}";
},
{
name = topright;
position = "{1002, 1060}";
}
);
layerId = "FD1CEFBD-BAB1-4C2A-A598-30E93F9A29F6";
paths = (
{
closed = 1;
nodes = (
"772 -16 OFFCURVE",
"964 212 OFFCURVE",
"964 536 CURVE SMOOTH",
"964 856 OFFCURVE",
"774 1076 OFFCURVE",
"516 1076 CURVE SMOOTH",
"262 1076 OFFCURVE",
"70 856 OFFCURVE",
"70 536 CURVE SMOOTH",
"70 210 OFFCURVE",
"262 -16 OFFCURVE",
"516 -16 CURVE SMOOTH"
);
},
{
closed = 1;
nodes = (
"358 144 OFFCURVE",
"242 300 OFFCURVE",
"242 536 CURVE SMOOTH",
"242 766 OFFCURVE",
"360 916 OFFCURVE",
"518 916 CURVE SMOOTH",
"676 916 OFFCURVE",
"792 766 OFFCURVE",
"792 536 CURVE SMOOTH",
"792 300 OFFCURVE",
"676 144 OFFCURVE",
"516 144 CURVE SMOOTH"
);
}
);
width = 1034;
}
);
leftKerningGroup = LAT_O_LC;
rightKerningGroup = LAT_O_LC;
unicode = 006F;
},
{
color = 4;
glyphname = o.ss01;
lastChange = "2021-05-03 01:08:30 +0000";
layers = (
{
anchors = (
{
name = bottom;
position = "{538, 0}";
},
{
name = center;
position = "{538, 524}";
},
{
name = horn;
position = "{734, 1012}";
},
{
name = ogonek;
position = "{630, 0}";
},
{
name = top;
position = "{538, 1048}";
},
{
name = topright;
position = "{1054, 1048}";
}
);
layerId = "AB099EFE-E788-4EFC-8633-CF147CB782A6";
paths = (
{
closed = 1;
nodes = (
"784 -16 OFFCURVE",
"990 226 OFFCURVE",
"990 528 CURVE SMOOTH",
"990 828 OFFCURVE",
"784 1064 OFFCURVE",
"538 1064 CURVE SMOOTH",
"290 1064 OFFCURVE",
"88 824 OFFCURVE",
"88 528 CURVE SMOOTH",
"88 228 OFFCURVE",
"290 -16 OFFCURVE",
"538 -16 CURVE SMOOTH"
);
},
{
closed = 1;
nodes = (
"324 38 OFFCURVE",
"148 262 OFFCURVE",
"148 528 CURVE SMOOTH",
"148 796 OFFCURVE",
"324 1008 OFFCURVE",
"538 1008 CURVE SMOOTH",
"754 1008 OFFCURVE",
"930 796 OFFCURVE",
"930 528 CURVE SMOOTH",
"930 258 OFFCURVE",
"754 38 OFFCURVE",
"538 38 CURVE SMOOTH"
);
}
);
width = 1078;
},
{
anchors = (
{
name = bottom;
position = "{510, 0}";
},
{
name = center;
position = "{510, 540}";
},
{
name = horn;
position = "{778, 1016}";
},
{
name = ogonek;
position = "{616, 0}";
},
{
name = top;
position = "{514, 1080}";
},
{
name = topright;
position = "{1026, 1080}";
}
);
layerId = "2D8F7115-C311-411E-929D-56333CF7FFB2";
paths = (
{
closed = 1;
nodes = (
"788 -16 OFFCURVE",
"1006 230 OFFCURVE",
"1006 540 CURVE SMOOTH",
"1006 850 OFFCURVE",
"788 1096 OFFCURVE",
"510 1096 CURVE SMOOTH",
"236 1096 OFFCURVE",
"14 850 OFFCURVE",
"14 540 CURVE SMOOTH",
"14 230 OFFCURVE",
"236 -16 OFFCURVE",
"510 -16 CURVE SMOOTH"
);
},
{
closed = 1;
nodes = (
"422 284 OFFCURVE",
"348 400 OFFCURVE",
"348 542 CURVE SMOOTH",
"348 682 OFFCURVE",
"422 796 OFFCURVE",
"510 796 CURVE SMOOTH",
"600 796 OFFCURVE",
"672 682 OFFCURVE",
"672 540 CURVE SMOOTH",
"672 402 OFFCURVE",
"604 284 OFFCURVE",
"510 284 CURVE SMOOTH"
);
}
);
width = 1020;
},
{
anchors = (
{
name = bottom;
position = "{526, 0}";
},
{
name = center;
position = "{526, 532}";
},
{
name = horn;
position = "{746, 1016}";
},
{
name = ogonek;
position = "{624, 0}";
},
{
name = top;
position = "{528, 1060}";
},
{
name = topright;
position = "{1042, 1060}";
}
);
layerId = "FD1CEFBD-BAB1-4C2A-A598-30E93F9A29F6";
paths = (
{
closed = 1;
nodes = (
"784 -16 OFFCURVE",
"994 230 OFFCURVE",
"994 536 CURVE SMOOTH",
"994 840 OFFCURVE",
"784 1076 OFFCURVE",
"526 1076 CURVE SMOOTH",
"266 1076 OFFCURVE",
"60 840 OFFCURVE",
"60 536 CURVE SMOOTH",
"60 230 OFFCURVE",
"266 -16 OFFCURVE",
"526 -16 CURVE SMOOTH"
);
},
{
closed = 1;
nodes = (
"358 144 OFFCURVE",
"230 320 OFFCURVE",
"230 536 CURVE SMOOTH",
"230 750 OFFCURVE",
"358 916 OFFCURVE",
"526 916 CURVE SMOOTH",
"690 916 OFFCURVE",
"826 754 OFFCURVE",
"826 540 CURVE SMOOTH",
"826 322 OFFCURVE",
"692 144 OFFCURVE",
"526 144 CURVE SMOOTH"
);
}
);
width = 1054;
}
);
leftKerningGroup = LAT_O_LC;
rightKerningGroup = LAT_O_LC;
},
{
glyphname = oe;
lastChange = "2021-05-03 01:08:42 +0000";
layers = (
{
anchors = (
{
name = top;
position = "{868, 1048}";
}
);
layerId = "AB099EFE-E788-4EFC-8633-CF147CB782A6";
paths = (
{
closed = 1;
nodes = (
"736 -16 OFFCURVE",
"898 220 OFFCURVE",
"898 526 CURVE SMOOTH",
"898 828 OFFCURVE",
"738 1064 OFFCURVE",
"508 1064 CURVE SMOOTH",
"272 1064 OFFCURVE",
"104 822 OFFCURVE",
"104 524 CURVE SMOOTH",
"104 218 OFFCURVE",
"280 -16 OFFCURVE",
"510 -16 CURVE SMOOTH"
);
},
{
closed = 1;
nodes = (
"314 40 OFFCURVE",
"164 246 OFFCURVE",
"164 524 CURVE SMOOTH",
"164 810 OFFCURVE",
"322 1008 OFFCURVE",
"510 1008 CURVE SMOOTH",
"704 1008 OFFCURVE",
"840 800 OFFCURVE",
"840 526 CURVE SMOOTH",
"840 250 OFFCURVE",
"702 40 OFFCURVE",
"508 40 CURVE SMOOTH"
);
},
{
closed = 1;
nodes = (
"1350 -16 OFFCURVE",
"1446 38 OFFCURVE",
"1518 118 CURVE",
"1494 182 LINE",
"1432 100 OFFCURVE",
"1330 40 OFFCURVE",
"1226 40 CURVE SMOOTH",
"1044 40 OFFCURVE",
"898 226 OFFCURVE",
"902 528 CURVE SMOOTH",
"904 784 OFFCURVE",
"1022 1008 OFFCURVE",
"1218 1008 CURVE SMOOTH",
"1390 1008 OFFCURVE",
"1512 824 OFFCURVE",
"1508 562 CURVE",
"886 562 LINE",
"886 506 LINE",
"1568 506 LINE",
"1570 548 OFFCURVE",
"1572 534 OFFCURVE",
"1572 548 CURVE SMOOTH",
"1572 856 OFFCURVE",
"1430 1064 OFFCURVE",
"1218 1064 CURVE SMOOTH",
"988 1064 OFFCURVE",
"844 824 OFFCURVE",
"844 522 CURVE SMOOTH",
"844 202 OFFCURVE",
"1000 -16 OFFCURVE",
"1232 -16 CURVE SMOOTH"
);
}
);
width = 1670;
},
{
anchors = (
{
name = top;
position = "{806, 1080}";
}
);
layerId = "2D8F7115-C311-411E-929D-56333CF7FFB2";
paths = (
{
closed = 1;
nodes = (
"768 -16 OFFCURVE",
"948 262 OFFCURVE",
"948 540 CURVE SMOOTH",
"948 816 OFFCURVE",
"770 1096 OFFCURVE",
"492 1096 CURVE SMOOTH",
"240 1096 OFFCURVE",
"30 852 OFFCURVE",
"30 544 CURVE SMOOTH",
"30 226 OFFCURVE",
"246 -16 OFFCURVE",
"494 -16 CURVE SMOOTH"
);
},
{
closed = 1;
nodes = (
"416 274 OFFCURVE",
"356 384 OFFCURVE",
"356 540 CURVE SMOOTH",
"356 700 OFFCURVE",
"416 802 OFFCURVE",
"510 802 CURVE SMOOTH",
"598 802 OFFCURVE",
"654 706 OFFCURVE",
"654 542 CURVE SMOOTH",
"654 378 OFFCURVE",
"596 274 OFFCURVE",
"508 274 CURVE SMOOTH"
);
},
{
closed = 1;
nodes = (
"1248 -16 OFFCURVE",
"1378 16 OFFCURVE",
"1436 66 CURVE",
"1336 324 LINE",
"1278 274 OFFCURVE",
"1220 254 OFFCURVE",
"1164 254 CURVE SMOOTH",
"1092 254 OFFCURVE",
"930 300 OFFCURVE",
"930 560 CURVE SMOOTH",
"930 782 OFFCURVE",
"1042 848 OFFCURVE",
"1100 848 CURVE SMOOTH",
"1182 848 OFFCURVE",
"1240 758 OFFCURVE",
"1242 638 CURVE",
"904 638 LINE",
"904 434 LINE",
"1524 434 LINE",
"1532 476 OFFCURVE",
"1536 526 OFFCURVE",
"1536 574 CURVE SMOOTH",
"1536 964 OFFCURVE",
"1292 1096 OFFCURVE",
"1126 1096 CURVE SMOOTH",
"888 1096 OFFCURVE",
"672 864 OFFCURVE",
"672 530 CURVE SMOOTH",
"672 214 OFFCURVE",
"860 -16 OFFCURVE",
"1148 -16 CURVE SMOOTH"
);
}
);
width = 1570;
},
{
anchors = (
{
name = top;
position = "{836, 1060}";
}
);
layerId = "FD1CEFBD-BAB1-4C2A-A598-30E93F9A29F6";
paths = (
{
closed = 1;
nodes = (
"738 -16 OFFCURVE",
"910 218 OFFCURVE",
"910 532 CURVE SMOOTH",
"910 856 OFFCURVE",
"728 1076 OFFCURVE",
"490 1076 CURVE SMOOTH",
"252 1076 OFFCURVE",
"70 840 OFFCURVE",
"70 540 CURVE SMOOTH",
"70 238 OFFCURVE",
"256 -16 OFFCURVE",
"500 -16 CURVE SMOOTH"
);
},
{
closed = 1;
nodes = (
"344 144 OFFCURVE",
"236 302 OFFCURVE",
"236 532 CURVE SMOOTH",
"236 760 OFFCURVE",
"344 916 OFFCURVE",
"500 916 CURVE SMOOTH",
"650 916 OFFCURVE",
"760 760 OFFCURVE",
"760 524 CURVE SMOOTH",
"760 296 OFFCURVE",
"658 144 OFFCURVE",
"502 144 CURVE SMOOTH"
);
},
{
closed = 1;
nodes = (
"1308 -16 OFFCURVE",
"1420 30 OFFCURVE",
"1484 102 CURVE",
"1424 258 LINE",
"1362 184 OFFCURVE",
"1288 144 OFFCURVE",
"1200 144 CURVE SMOOTH",
"1030 144 OFFCURVE",
"912 296 OFFCURVE",
"912 530 CURVE SMOOTH",
"912 764 OFFCURVE",
"1022 916 OFFCURVE",
"1166 916 CURVE SMOOTH",
"1304 916 OFFCURVE",
"1388 778 OFFCURVE",
"1386 602 CURVE",
"882 602 LINE",
"882 462 LINE",
"1536 462 LINE",
"1540 488 OFFCURVE",
"1544 538 OFFCURVE",
"1544 582 CURVE SMOOTH",
"1544 878 OFFCURVE",
"1372 1076 OFFCURVE",
"1166 1076 CURVE SMOOTH",
"946 1076 OFFCURVE",
"772 864 OFFCURVE",
"772 536 CURVE SMOOTH",
"772 226 OFFCURVE",
"930 -16 OFFCURVE",
"1194 -16 CURVE SMOOTH"
);
}
);
width = 1620;
}
);
leftKerningGroup = LAT_O_LC;
leftMetricsKey = o;
rightKerningGroup = LAT_E_LC;
rightMetricsKey = e;
unicode = 0153;
},
{
glyphname = p;
lastChange = "2021-05-03 01:08:42 +0000";
layers = (
{
anchors = (
{
name = bottom;
position = "{182, -420}";
},
{
name = top;
position = "{532, 1048}";
}
);
components = (
{
name = _part.bowl;
}
);
layerId = "AB099EFE-E788-4EFC-8633-CF147CB782A6";
paths = (
{
closed = 1;
nodes = (
"212 224 LINE",
"234 224 LINE",
"204 330 LINE",
"204 748 LINE",
"240 834 LINE",
"212 834 LINE",
"212 1048 LINE",
"152 1048 LINE",
"152 -420 LINE",
"212 -420 LINE"
);
}
);
width = 1042;
},
{
anchors = (
{
name = bottom;
position = "{248, -420}";
},
{
name = top;
position = "{554, 1080}";
}
);
components = (
{
name = _part.bowl;
transform = "{1, 0, 0, 1, -24, 0}";
}
);
layerId = "2D8F7115-C311-411E-929D-56333CF7FFB2";
paths = (
{
closed = 1;
nodes = (
"430 90 LINE",
"482 90 LINE",
"410 212 LINE",
"410 862 LINE",
"452 982 LINE",
"408 982 LINE",
"408 1080 LINE",
"74 1080 LINE",
"74 -420 LINE",
"430 -420 LINE"
);
}
);
width = 1088;
},
{
anchors = (
{
name = bottom;
position = "{210, -420}";
},
{
name = top;
position = "{542, 1060}";
}
);
components = (
{
alignment = -1;
name = _part.bowl;
transform = "{1, 0, 0, 1, -12, 0}";
}
);
layerId = "FD1CEFBD-BAB1-4C2A-A598-30E93F9A29F6";
paths = (
{
closed = 1;
nodes = (
"290 144 LINE",
"320 144 LINE",
"266 266 LINE",
"266 824 LINE",
"312 922 LINE",
"288 922 LINE",
"288 1060 LINE",
"118 1060 LINE",
"118 -420 LINE",
"290 -420 LINE"
);
}
);
width = 1048;
}
);
leftKerningGroup = LAT_P_LC;
rightKerningGroup = LAT_O_LC;
rightMetricsKey = o;
unicode = 0070;
},
{
color = 4;
glyphname = p.ss01;
lastChange = "2021-05-03 01:08:42 +0000";
layers = (
{
anchors = (
{
name = bottom;
position = "{182, -420}";
},
{
name = top;
position = "{532, 1048}";
}
);
components = (
{
name = _part.bowl.ss01;
transform = "{1, 0, 0, 1, -4, 0}";
}
);
layerId = "AB099EFE-E788-4EFC-8633-CF147CB782A6";
paths = (
{
closed = 1;
nodes = (
"212 -420 LINE",
"212 244 LINE",
"224 244 LINE",
"208 304 LINE",
"208 778 LINE",
"230 810 LINE",
"212 810 LINE",
"212 1048 LINE",
"152 1048 LINE",
"152 -420 LINE"
);
}
);
width = 1100;
},
{
anchors = (
{
name = bottom;
position = "{248, -420}";
},
{
name = top;
position = "{554, 1080}";
}
);
components = (
{
name = _part.bowl.ss01;
transform = "{1, 0, 0, 1, -24, 0}";
}
);
layerId = "2D8F7115-C311-411E-929D-56333CF7FFB2";
paths = (
{
closed = 1;
nodes = (
"430 -424 LINE",
"430 106 LINE",
"454 106 LINE",
"410 212 LINE",
"410 866 LINE",
"454 960 LINE",
"408 960 LINE",
"408 1080 LINE",
"74 1080 LINE",
"74 -420 LINE"
);
}
);
width = 1110;
},
{
anchors = (
{
name = bottom;
position = "{210, -420}";
},
{
name = top;
position = "{546, 1060}";
}
);
components = (
{
alignment = -1;
name = _part.bowl.ss01;
transform = "{1, 0, 0, 1, -12, 0}";
}
);
layerId = "FD1CEFBD-BAB1-4C2A-A598-30E93F9A29F6";
paths = (
{
closed = 1;
nodes = (
"294 -420 LINE",
"294 148 LINE",
"314 148 LINE",
"282 274 LINE",
"282 836 LINE",
"308 908 LINE",
"288 908 LINE",
"288 1060 LINE",
"118 1060 LINE",
"118 -420 LINE"
);
}
);
width = 1104;
}
);
leftKerningGroup = LAT_P_LC;
rightKerningGroup = LAT_O_LC;
rightMetricsKey = o;
},
{
glyphname = thorn;
lastChange = "2021-05-03 01:08:42 +0000";
layers = (
{
anchors = (
{
name = bottom;
position = "{546, -4}";
},
{
name = top;
position = "{182, 1540}";
}
);
components = (
{
name = _part.bowl;
}
);
layerId = "AB099EFE-E788-4EFC-8633-CF147CB782A6";
paths = (
{
closed = 1;
nodes = (
"212 224 LINE",
"236 224 LINE",
"204 330 LINE",
"204 750 LINE",
"232 834 LINE",
"212 834 LINE",
"212 1540 LINE",
"152 1540 LINE",
"152 -420 LINE",
"212 -420 LINE"
);
}
);
width = 1042;
},
{
anchors = (
{
name = bottom;
position = "{642, 0}";
},
{
name = top;
position = "{242, 1540}";
}
);
components = (
{
name = _part.bowl;
transform = "{1, 0, 0, 1, -24, 0}";
}
);
layerId = "2D8F7115-C311-411E-929D-56333CF7FFB2";
paths = (
{
closed = 1;
nodes = (
"426 96 LINE",
"478 96 LINE",
"406 212 LINE",
"406 868 LINE",
"450 998 LINE",
"426 998 LINE",
"426 1540 LINE",
"70 1540 LINE",
"70 -420 LINE",
"426 -420 LINE"
);
}
);
width = 1088;
},
{
anchors = (
{
name = bottom;
position = "{580, 0}";
},
{
name = top;
position = "{204, 1516}";
}
);
components = (
{
alignment = -1;
name = _part.bowl;
transform = "{1, 0, 0, 1, -10, 0}";
}
);
layerId = "FD1CEFBD-BAB1-4C2A-A598-30E93F9A29F6";
paths = (
{
closed = 1;
nodes = (
"290 144 LINE",
"318 144 LINE",
"266 266 LINE",
"266 782 LINE",
"312 922 LINE",
"290 922 LINE",
"290 1540 LINE",
"118 1540 LINE",
"118 -420 LINE",
"290 -420 LINE"
);
}
);
width = 1050;
}
);
leftKerningGroup = LAT_L_LC;
leftMetricsKey = h;
rightKerningGroup = LAT_O_LC;
rightMetricsKey = p;
unicode = 00FE;
},
{
color = 4;
glyphname = thorn.ss01;
lastChange = "2021-05-03 01:08:42 +0000";
layers = (
{
anchors = (
{
name = bottom;
position = "{578, 0}";
},
{
name = top;
position = "{182, 1540}";
}
);
components = (
{
name = _part.bowl.ss01;
transform = "{1, 0, 0, 1, -4, 0}";
}
);
layerId = "AB099EFE-E788-4EFC-8633-CF147CB782A6";
paths = (
{
closed = 1;
nodes = (
"212 244 LINE",
"224 244 LINE",
"208 330 LINE",
"208 770 LINE",
"224 810 LINE",
"212 810 LINE",
"212 1540 LINE",
"152 1540 LINE",
"152 -420 LINE",
"212 -420 LINE"
);
}
);
width = 1100;
},
{
anchors = (
{
name = bottom;
position = "{678, 0}";
},
{
name = top;
position = "{238, 1540}";
}
);
components = (
{
name = _part.bowl.ss01;
transform = "{1, 0, 0, 1, -28, 0}";
}
);
layerId = "2D8F7115-C311-411E-929D-56333CF7FFB2";
paths = (
{
closed = 1;
nodes = (
"426 110 LINE",
"480 110 LINE",
"412 212 LINE",
"412 840 LINE",
"450 958 LINE",
"404 958 LINE",
"404 1540 LINE",
"70 1540 LINE",
"70 -420 LINE",
"426 -420 LINE"
);
}
);
width = 1106;
},
{
anchors = (
{
name = bottom;
position = "{608, 0}";
},
{
name = top;
position = "{202, 1516}";
}
);
components = (
{
alignment = -1;
name = _part.bowl.ss01;
transform = "{1, 0, 0, 1, -14, 0}";
}
);
layerId = "FD1CEFBD-BAB1-4C2A-A598-30E93F9A29F6";
paths = (
{
closed = 1;
nodes = (
"290 144 LINE",
"318 144 LINE",
"272 226 LINE",
"272 824 LINE",
"312 914 LINE",
"288 914 LINE",
"288 1540 LINE",
"118 1540 LINE",
"118 -420 LINE",
"290 -420 LINE"
);
}
);
width = 1102;
}
);
leftKerningGroup = LAT_L_LC;
leftMetricsKey = h;
rightKerningGroup = LAT_O_LC;
rightMetricsKey = p;
},
{
glyphname = q;
lastChange = "2021-05-03 01:08:42 +0000";
layers = (
{
anchors = (
{
name = bottom;
position = "{858, -420}";
},
{
name = top;
position = "{492, 1048}";
}
);
components = (
{
name = _part.bowl;
transform = "{-1, 0, 0, 1, 1042, 0}";
}
);
layerId = "AB099EFE-E788-4EFC-8633-CF147CB782A6";
paths = (
{
closed = 1;
nodes = (
"966 -382 LINE",
"912 -350 OFFCURVE",
"886 -284 OFFCURVE",
"886 -190 CURVE SMOOTH",
"886 1048 LINE",
"826 1048 LINE",
"826 834 LINE",
"804 834 LINE",
"834 782 LINE",
"834 296 LINE",
"812 224 LINE",
"826 224 LINE",
"826 -196 LINE SMOOTH",
"826 -322 OFFCURVE",
"858 -386 OFFCURVE",
"942 -438 CURVE"
);
}
);
width = 1046;
},
{
anchors = (
{
name = bottom;
position = "{832, -420}";
},
{
name = top;
position = "{456, 1080}";
}
);
components = (
{
name = _part.bowl;
transform = "{-1, 0, 0, 1, 1112, 0}";
}
);
layerId = "2D8F7115-C311-411E-929D-56333CF7FFB2";
paths = (
{
closed = 1;
nodes = (
"1086 -148 LINE",
"1036 -128 OFFCURVE",
"1014 -104 OFFCURVE",
"1014 -28 CURVE SMOOTH",
"1014 1080 LINE",
"678 1080 LINE",
"678 984 LINE",
"650 984 LINE",
"674 856 LINE",
"674 172 LINE",
"608 92 LINE",
"654 92 LINE",
"654 -62 LINE SMOOTH",
"654 -240 OFFCURVE",
"762 -360 OFFCURVE",
"962 -438 CURVE"
);
}
);
width = 1094;
},
{
anchors = (
{
name = bottom;
position = "{856, -420}";
},
{
name = top;
position = "{480, 1060}";
}
);
components = (
{
alignment = -1;
name = _part.bowl;
transform = "{-1, 0, 0, 1, 1060, 0}";
}
);
layerId = "FD1CEFBD-BAB1-4C2A-A598-30E93F9A29F6";
paths = (
{
closed = 1;
nodes = (
"1004 -286 LINE",
"942 -254 OFFCURVE",
"934 -220 OFFCURVE",
"934 -98 CURVE SMOOTH",
"934 1060 LINE",
"764 1060 LINE",
"764 918 LINE",
"730 918 LINE",
"778 816 LINE",
"778 234 LINE",
"734 144 LINE",
"762 144 LINE",
"762 -152 LINE SMOOTH",
"762 -294 OFFCURVE",
"816 -382 OFFCURVE",
"942 -438 CURVE"
);
}
);
width = 1058;
}
);
leftKerningGroup = LAT_O_LC;
leftMetricsKey = o;
rightKerningGroup = LAT_Q_LC;
unicode = 0071;
},
{
glyphname = r;
lastChange = "2021-05-03 01:08:30 +0000";
layers = (
{
anchors = (
{
name = bottom;
position = "{182, 0}";
},
{
name = top;
position = "{338, 1048}";
}
);
guideLines = (
{
angle = 67.5;
position = "{30, -200}";
}
);
layerId = "AB099EFE-E788-4EFC-8633-CF147CB782A6";
paths = (
{
closed = 1;
nodes = (
"212 0 LINE",
"212 644 LINE SMOOTH",
"212 856 OFFCURVE",
"384 1008 OFFCURVE",
"500 1008 CURVE SMOOTH",
"522 1008 OFFCURVE",
"536 1004 OFFCURVE",
"558 996 CURVE",
"582 1052 LINE",
"562 1062 OFFCURVE",
"532 1064 OFFCURVE",
"510 1064 CURVE SMOOTH",
"388 1064 OFFCURVE",
"262 964 OFFCURVE",
"198 812 CURVE",
"234 852 LINE",
"212 852 LINE",
"212 1048 LINE",
"152 1048 LINE",
"152 0 LINE"
);
}
);
width = 614;
},
{
anchors = (
{
name = bottom;
position = "{250, 0}";
},
{
name = top;
position = "{386, 1080}";
}
);
guideLines = (
{
angle = 67.5;
position = "{120, -200}";
}
);
layerId = "2D8F7115-C311-411E-929D-56333CF7FFB2";
paths = (
{
closed = 1;
nodes = (
"426 0 LINE",
"426 538 LINE SMOOTH",
"426 690 OFFCURVE",
"506 752 OFFCURVE",
"576 752 CURVE SMOOTH",
"618 752 OFFCURVE",
"652 740 OFFCURVE",
"666 732 CURVE",
"808 1072 LINE",
"792 1084 OFFCURVE",
"746 1096 OFFCURVE",
"694 1096 CURVE SMOOTH",
"508 1096 OFFCURVE",
"404 944 OFFCURVE",
"372 854 CURVE",
"442 932 LINE",
"414 932 LINE",
"414 1080 LINE",
"70 1080 LINE",
"70 0 LINE"
);
}
);
width = 786;
},
{
anchors = (
{
name = bottom;
position = "{204, 0}";
},
{
name = top;
position = "{352, 1060}";
}
);
layerId = "FD1CEFBD-BAB1-4C2A-A598-30E93F9A29F6";
paths = (
{
closed = 1;
nodes = (
"290 0 LINE",
"290 606 LINE SMOOTH",
"290 796 OFFCURVE",
"426 904 OFFCURVE",
"526 904 CURVE SMOOTH",
"554 904 OFFCURVE",
"584 900 OFFCURVE",
"592 896 CURVE",
"662 1062 LINE",
"648 1068 OFFCURVE",
"606 1076 OFFCURVE",
"566 1076 CURVE SMOOTH",
"414 1076 OFFCURVE",
"308 964 OFFCURVE",
"262 832 CURVE",
"314 898 LINE",
"288 898 LINE",
"288 1060 LINE",
"118 1060 LINE",
"118 0 LINE"
);
}
);
width = 670;
}
);
leftKerningGroup = LAT_N_LC;
leftMetricsKey = n;
rightKerningGroup = LAT_R_LC;
unicode = 0072;
},
{
glyphname = s;
lastChange = "2021-05-03 01:08:30 +0000";
layers = (
{
anchors = (
{
name = bottom;
position = "{386, 0}";
},
{
name = cedilla;
position = "{392, 0}";
},
{
name = top;
position = "{380, 1048}";
}
);
layerId = "AB099EFE-E788-4EFC-8633-CF147CB782A6";
paths = (
{
closed = 1;
nodes = (
"542 -16 OFFCURVE",
"666 96 OFFCURVE",
"666 272 CURVE SMOOTH",
"666 478 OFFCURVE",
"500 536 OFFCURVE",
"392 578 CURVE SMOOTH",
"312 608 OFFCURVE",
"194 660 OFFCURVE",
"190 804 CURVE SMOOTH",
"188 926 OFFCURVE",
"266 1008 OFFCURVE",
"372 1008 CURVE SMOOTH",
"464 1008 OFFCURVE",
"546 944 OFFCURVE",
"580 862 CURVE",
"636 884 LINE",
"590 994 OFFCURVE",
"490 1064 OFFCURVE",
"374 1064 CURVE SMOOTH",
"236 1064 OFFCURVE",
"130 960 OFFCURVE",
"130 814 CURVE SMOOTH",
"130 638 OFFCURVE",
"280 554 OFFCURVE",
"376 522 CURVE SMOOTH",
"456 496 OFFCURVE",
"606 442 OFFCURVE",
"606 272 CURVE SMOOTH",
"606 138 OFFCURVE",
"510 40 OFFCURVE",
"396 40 CURVE SMOOTH",
"284 40 OFFCURVE",
"198 130 OFFCURVE",
"164 232 CURVE",
"104 208 LINE",
"142 94 OFFCURVE",
"250 -16 OFFCURVE",
"396 -16 CURVE SMOOTH"
);
}
);
width = 774;
},
{
anchors = (
{
name = bottom;
position = "{470, 0}";
},
{
name = cedilla;
position = "{488, 0}";
},
{
name = top;
position = "{470, 1080}";
}
);
layerId = "2D8F7115-C311-411E-929D-56333CF7FFB2";
paths = (
{
closed = 1;
nodes = (
"708 -16 OFFCURVE",
"896 126 OFFCURVE",
"896 334 CURVE SMOOTH",
"896 556 OFFCURVE",
"680 624 OFFCURVE",
"582 648 CURVE SMOOTH",
"504 668 OFFCURVE",
"376 692 OFFCURVE",
"376 758 CURVE SMOOTH",
"376 794 OFFCURVE",
"416 828 OFFCURVE",
"472 828 CURVE SMOOTH",
"536 828 OFFCURVE",
"582 786 OFFCURVE",
"610 742 CURVE",
"876 860 LINE",
"812 1012 OFFCURVE",
"644 1096 OFFCURVE",
"460 1096 CURVE SMOOTH",
"226 1096 OFFCURVE",
"66 958 OFFCURVE",
"66 764 CURVE SMOOTH",
"66 582 OFFCURVE",
"204 486 OFFCURVE",
"364 438 CURVE SMOOTH",
"460 410 OFFCURVE",
"586 390 OFFCURVE",
"586 324 CURVE SMOOTH",
"586 288 OFFCURVE",
"546 254 OFFCURVE",
"484 254 CURVE SMOOTH",
"390 254 OFFCURVE",
"328 324 OFFCURVE",
"294 376 CURVE",
"24 258 LINE",
"102 78 OFFCURVE",
"292 -16 OFFCURVE",
"480 -16 CURVE SMOOTH"
);
}
);
width = 930;
},
{
anchors = (
{
name = bottom;
position = "{386, 0}";
},
{
name = cedilla;
position = "{398, 0}";
},
{
name = top;
position = "{380, 1060}";
}
);
layerId = "FD1CEFBD-BAB1-4C2A-A598-30E93F9A29F6";
paths = (
{
closed = 1;
nodes = (
"558 -16 OFFCURVE",
"704 116 OFFCURVE",
"704 300 CURVE SMOOTH",
"704 502 OFFCURVE",
"530 576 OFFCURVE",
"434 610 CURVE SMOOTH",
"346 642 OFFCURVE",
"254 674 OFFCURVE",
"254 786 CURVE SMOOTH",
"254 872 OFFCURVE",
"316 920 OFFCURVE",
"382 920 CURVE SMOOTH",
"460 920 OFFCURVE",
"504 860 OFFCURVE",
"530 798 CURVE",
"678 864 LINE",
"634 972 OFFCURVE",
"528 1076 OFFCURVE",
"380 1076 CURVE SMOOTH",
"226 1076 OFFCURVE",
"88 972 OFFCURVE",
"88 786 CURVE SMOOTH",
"88 598 OFFCURVE",
"226 528 OFFCURVE",
"332 488 CURVE SMOOTH",
"426 452 OFFCURVE",
"542 406 OFFCURVE",
"542 294 CURVE SMOOTH",
"542 202 OFFCURVE",
"468 144 OFFCURVE",
"392 144 CURVE SMOOTH",
"310 144 OFFCURVE",
"240 214 OFFCURVE",
"214 294 CURVE",
"64 230 LINE",
"104 106 OFFCURVE",
"236 -16 OFFCURVE",
"392 -16 CURVE SMOOTH"
);
}
);
width = 780;
}
);
leftKerningGroup = LAT_S_LC;
rightKerningGroup = LAT_S_LC;
unicode = 0073;
userData = {
com.typemytype.robofont.layerData = {
background = {
anchors = (
);
components = (
);
contours = (
{
points = (
{
segmentType = curve;
smooth = 1;
x = 213;
y = -12;
},
{
smooth = 0;
x = 318;
y = -12;
},
{
smooth = 0;
x = 376;
y = 50;
},
{
segmentType = curve;
smooth = 1;
x = 376;
y = 120;
},
{
smooth = 0;
x = 376;
y = 214;
},
{
smooth = 0;
x = 288;
y = 237;
},
{
segmentType = curve;
smooth = 1;
x = 208;
y = 266;
},
{
smooth = 0;
x = 147;
y = 288;
},
{
smooth = 0;
x = 85;
y = 310;
},
{
segmentType = curve;
smooth = 1;
x = 85;
y = 368;
},
{
smooth = 0;
x = 85;
y = 415;
},
{
smooth = 0;
x = 124;
y = 462;
},
{
segmentType = curve;
smooth = 1;
x = 208;
y = 462;
},
{
smooth = 0;
x = 253;
y = 462;
},
{
smooth = 0;
x = 284;
y = 448;
},
{
segmentType = curve;
smooth = 1;
x = 314;
y = 429;
},
{
smooth = 0;
x = 325;
y = 422;
},
{
smooth = 0;
x = 336;
y = 423;
},
{
segmentType = curve;
smooth = 1;
x = 343;
y = 434;
},
{
segmentType = line;
smooth = 1;
x = 346;
y = 439;
},
{
smooth = 0;
x = 347;
y = 441;
},
{
smooth = 0;
x = 347;
y = 443;
},
{
segmentType = curve;
smooth = 1;
x = 345;
y = 444;
},
{
smooth = 0;
x = 311;
y = 468;
},
{
smooth = 0;
x = 257;
y = 490;
},
{
segmentType = curve;
smooth = 1;
x = 211;
y = 490;
},
{
smooth = 0;
x = 108;
y = 490;
},
{
smooth = 0;
x = 54;
y = 432;
},
{
segmentType = curve;
smooth = 1;
x = 54;
y = 366;
},
{
smooth = 0;
x = 54;
y = 284;
},
{
smooth = 0;
x = 141;
y = 256;
},
{
segmentType = curve;
smooth = 1;
x = 218;
y = 230;
},
{
smooth = 0;
x = 277;
y = 210;
},
{
smooth = 0;
x = 344;
y = 182;
},
{
segmentType = curve;
smooth = 1;
x = 344;
y = 118;
},
{
smooth = 0;
x = 344;
y = 64;
},
{
smooth = 0;
x = 300;
y = 16;
},
{
segmentType = curve;
smooth = 1;
x = 215;
y = 16;
},
{
smooth = 0;
x = 148;
y = 16;
},
{
smooth = 0;
x = 105;
y = 37;
},
{
segmentType = curve;
smooth = 1;
x = 66;
y = 65;
},
{
smooth = 0;
x = 55;
y = 73;
},
{
smooth = 0;
x = 45;
y = 74;
},
{
segmentType = curve;
smooth = 1;
x = 37;
y = 63;
},
{
segmentType = line;
smooth = 1;
x = 33;
y = 57;
},
{
smooth = 0;
x = 32;
y = 55;
},
{
smooth = 0;
x = 32;
y = 53;
},
{
segmentType = curve;
smooth = 1;
x = 34;
y = 51;
},
{
smooth = 0;
x = 73;
y = 12;
},
{
smooth = 0;
x = 139;
y = -12;
}
);
}
);
lib = {
};
name = s;
unicodes = (
);
width = 439;
};
};
};
},
{
glyphname = germandbls;
lastChange = "2021-05-03 01:08:30 +0000";
layers = (
{
layerId = "AB099EFE-E788-4EFC-8633-CF147CB782A6";
paths = (
{
closed = 1;
nodes = (
"736 -16 OFFCURVE",
"886 196 OFFCURVE",
"886 418 CURVE SMOOTH",
"886 672 OFFCURVE",
"710 864 OFFCURVE",
"478 852 CURVE",
"478 824 LINE",
"656 812 OFFCURVE",
"792 972 OFFCURVE",
"792 1188 CURVE SMOOTH",
"792 1410 OFFCURVE",
"654 1556 OFFCURVE",
"468 1556 CURVE SMOOTH",
"280 1556 OFFCURVE",
"152 1398 OFFCURVE",
"152 1178 CURVE SMOOTH",
"152 0 LINE",
"212 0 LINE",
"212 1190 LINE SMOOTH",
"212 1366 OFFCURVE",
"326 1500 OFFCURVE",
"472 1500 CURVE SMOOTH",
"622 1500 OFFCURVE",
"732 1364 OFFCURVE",
"732 1184 CURVE SMOOTH",
"732 1004 OFFCURVE",
"616 870 OFFCURVE",
"464 870 CURVE SMOOTH",
"404 870 LINE",
"404 814 LINE",
"432 814 LINE SMOOTH",
"656 814 OFFCURVE",
"824 654 OFFCURVE",
"824 418 CURVE SMOOTH",
"824 220 OFFCURVE",
"698 40 OFFCURVE",
"506 40 CURVE SMOOTH",
"450 40 OFFCURVE",
"392 56 OFFCURVE",
"358 68 CURVE",
"358 8 LINE",
"400 -8 OFFCURVE",
"470 -16 OFFCURVE",
"514 -16 CURVE SMOOTH"
);
}
);
width = 1006;
},
{
layerId = "2D8F7115-C311-411E-929D-56333CF7FFB2";
paths = (
{
closed = 1;
nodes = (
"952 -16 OFFCURVE",
"1128 144 OFFCURVE",
"1128 402 CURVE SMOOTH",
"1128 652 OFFCURVE",
"966 804 OFFCURVE",
"706 802 CURVE",
"706 746 LINE",
"832 746 OFFCURVE",
"1016 882 OFFCURVE",
"1016 1126 CURVE SMOOTH",
"1016 1356 OFFCURVE",
"854 1556 OFFCURVE",
"556 1556 CURVE SMOOTH",
"274 1556 OFFCURVE",
"70 1372 OFFCURVE",
"70 1056 CURVE SMOOTH",
"70 0 LINE",
"426 0 LINE",
"426 1040 LINE SMOOTH",
"426 1170 OFFCURVE",
"494 1262 OFFCURVE",
"580 1262 CURVE SMOOTH",
"648 1262 OFFCURVE",
"710 1196 OFFCURVE",
"710 1090 CURVE SMOOTH",
"710 996 OFFCURVE",
"654 926 OFFCURVE",
"576 926 CURVE SMOOTH",
"528 926 LINE",
"528 610 LINE",
"626 610 LINE SMOOTH",
"716 610 OFFCURVE",
"778 546 OFFCURVE",
"778 434 CURVE SMOOTH",
"778 338 OFFCURVE",
"732 278 OFFCURVE",
"660 278 CURVE SMOOTH",
"634 278 OFFCURVE",
"570 284 OFFCURVE",
"532 294 CURVE",
"532 -12 LINE",
"580 -16 OFFCURVE",
"648 -16 OFFCURVE",
"668 -16 CURVE SMOOTH"
);
}
);
width = 1156;
},
{
layerId = "FD1CEFBD-BAB1-4C2A-A598-30E93F9A29F6";
paths = (
{
closed = 1;
nodes = (
"800 -16 OFFCURVE",
"974 176 OFFCURVE",
"974 422 CURVE SMOOTH",
"974 674 OFFCURVE",
"792 848 OFFCURVE",
"576 836 CURVE",
"576 786 LINE",
"736 778 OFFCURVE",
"878 946 OFFCURVE",
"878 1168 CURVE SMOOTH",
"878 1398 OFFCURVE",
"730 1556 OFFCURVE",
"498 1556 CURVE SMOOTH",
"270 1556 OFFCURVE",
"118 1390 OFFCURVE",
"118 1114 CURVE SMOOTH",
"118 0 LINE",
"290 0 LINE",
"290 1098 LINE SMOOTH",
"290 1260 OFFCURVE",
"366 1396 OFFCURVE",
"504 1396 CURVE SMOOTH",
"622 1396 OFFCURVE",
"712 1304 OFFCURVE",
"712 1150 CURVE SMOOTH",
"712 996 OFFCURVE",
"618 886 OFFCURVE",
"506 886 CURVE SMOOTH",
"452 886 LINE",
"452 730 LINE",
"502 730 LINE SMOOTH",
"692 730 OFFCURVE",
"798 594 OFFCURVE",
"800 426 CURVE SMOOTH",
"802 250 OFFCURVE",
"702 144 OFFCURVE",
"540 144 CURVE SMOOTH",
"508 144 OFFCURVE",
"458 148 OFFCURVE",
"418 156 CURVE",
"418 -4 LINE",
"458 -12 OFFCURVE",
"508 -16 OFFCURVE",
"544 -16 CURVE SMOOTH"
);
}
);
width = 1064;
}
);
leftKerningGroup = LAT_L_LC;
leftMetricsKey = h;
rightKerningGroup = LAT_GERMANDBLS_LC;
rightMetricsKey = B;
unicode = 00DF;
},
{
glyphname = t;
lastChange = "2021-05-03 01:08:30 +0000";
layers = (
{
anchors = (
{
name = bottom;
position = "{404, 0}";
},
{
name = cedilla;
position = "{424, 0}";
},
{
name = center;
position = "{264, 524}";
},
{
name = top;
position = "{264, 1414}";
},
{
name = topright;
position = "{320, 1582}";
}
);
guideLines = (
{
angle = 112.5;
position = "{326, -12}";
}
);
layerId = "AB099EFE-E788-4EFC-8633-CF147CB782A6";
paths = (
{
closed = 1;
nodes = (
"482 -12 OFFCURVE",
"516 -8 OFFCURVE",
"548 8 CURVE",
"524 60 LINE",
"500 48 OFFCURVE",
"470 44 OFFCURVE",
"448 44 CURVE SMOOTH",
"342 44 OFFCURVE",
"292 136 OFFCURVE",
"292 274 CURVE SMOOTH",
"292 1414 LINE",
"232 1414 LINE",
"232 286 LINE SMOOTH",
"232 98 OFFCURVE",
"300 -12 OFFCURVE",
"450 -12 CURVE SMOOTH"
);
},
{
closed = 1;
nodes = (
"534 992 LINE",
"534 1048 LINE",
"88 1048 LINE",
"88 992 LINE"
);
}
);
width = 638;
},
{
anchors = (
{
name = bottom;
position = "{544, 0}";
},
{
name = cedilla;
position = "{570, 0}";
},
{
name = center;
position = "{384, 540}";
},
{
name = top;
position = "{380, 1380}";
},
{
name = topright;
position = "{556, 1732}";
}
);
guideLines = (
{
angle = 149.6568;
position = "{414, -12}";
}
);
layerId = "2D8F7115-C311-411E-929D-56333CF7FFB2";
paths = (
{
closed = 1;
nodes = (
"704 -16 OFFCURVE",
"804 0 OFFCURVE",
"868 28 CURVE",
"754 308 LINE",
"730 296 OFFCURVE",
"700 288 OFFCURVE",
"668 286 CURVE SMOOTH",
"602 288 OFFCURVE",
"556 324 OFFCURVE",
"556 410 CURVE SMOOTH",
"556 1380 LINE",
"200 1380 LINE",
"200 410 LINE SMOOTH",
"200 160 OFFCURVE",
"332 -16 OFFCURVE",
"618 -16 CURVE SMOOTH"
);
},
{
closed = 1;
nodes = (
"802 780 LINE",
"802 1080 LINE",
"16 1080 LINE",
"16 780 LINE"
);
}
);
width = 880;
},
{
anchors = (
{
name = bottom;
position = "{434, 0}";
},
{
name = cedilla;
position = "{454, 0}";
},
{
name = center;
position = "{294, 536}";
},
{
name = top;
position = "{290, 1400}";
},
{
name = topright;
position = "{410, 1630}";
}
);
layerId = "FD1CEFBD-BAB1-4C2A-A598-30E93F9A29F6";
paths = (
{
closed = 1;
nodes = (
"536 -16 OFFCURVE",
"586 2 OFFCURVE",
"620 16 CURVE",
"558 168 LINE",
"538 156 OFFCURVE",
"512 144 OFFCURVE",
"486 144 CURVE SMOOTH",
"422 144 OFFCURVE",
"376 202 OFFCURVE",
"376 312 CURVE SMOOTH",
"376 1400 LINE",
"204 1400 LINE",
"204 294 LINE SMOOTH",
"204 112 OFFCURVE",
"296 -16 OFFCURVE",
"476 -16 CURVE SMOOTH"
);
},
{
closed = 1;
nodes = (
"596 904 LINE",
"596 1060 LINE",
"54 1060 LINE",
"54 904 LINE"
);
}
);
width = 668;
}
);
leftKerningGroup = LAT_T_LC;
rightKerningGroup = LAT_T_LC;
unicode = 0074;
},
{
color = 4;
glyphname = t.ss01;
lastChange = "2021-05-03 01:08:30 +0000";
layers = (
{
anchors = (
{
name = bottom;
position = "{308, 0}";
},
{
name = cedilla;
position = "{296, 0}";
},
{
name = center;
position = "{308, 524}";
},
{
name = top;
position = "{308, 1414}";
},
{
name = topright;
position = "{370, 1540}";
}
);
layerId = "AB099EFE-E788-4EFC-8633-CF147CB782A6";
paths = (
{
closed = 1;
nodes = (
"340 0 LINE",
"340 1414 LINE",
"278 1414 LINE",
"278 0 LINE"
);
},
{
closed = 1;
nodes = (
"548 992 LINE",
"548 1048 LINE",
"70 1048 LINE",
"70 992 LINE"
);
}
);
width = 618;
},
{
anchors = (
{
name = bottom;
position = "{372, 0}";
},
{
name = cedilla;
position = "{402, 0}";
},
{
name = center;
position = "{370, 540}";
},
{
name = top;
position = "{370, 1380}";
},
{
name = topright;
position = "{510, 1728}";
}
);
layerId = "2D8F7115-C311-411E-929D-56333CF7FFB2";
paths = (
{
closed = 1;
nodes = (
"548 0 LINE",
"548 1380 LINE",
"192 1380 LINE",
"192 0 LINE"
);
},
{
closed = 1;
nodes = (
"740 780 LINE",
"740 1080 LINE",
"2 1080 LINE",
"2 780 LINE"
);
}
);
width = 742;
},
{
anchors = (
{
name = bottom;
position = "{334, 0}";
},
{
name = cedilla;
position = "{342, 0}";
},
{
name = center;
position = "{338, 532}";
},
{
name = top;
position = "{338, 1400}";
},
{
name = topright;
position = "{430, 1614}";
}
);
layerId = "FD1CEFBD-BAB1-4C2A-A598-30E93F9A29F6";
paths = (
{
closed = 1;
nodes = (
"424 0 LINE",
"424 1400 LINE",
"252 1400 LINE",
"252 0 LINE"
);
},
{
closed = 1;
nodes = (
"628 906 LINE",
"628 1060 LINE",
"50 1060 LINE",
"50 906 LINE"
);
}
);
width = 678;
}
);
leftKerningGroup = LAT_T_LC;
rightKerningGroup = LAT_TSS01_LC;
},
{
glyphname = u;
lastChange = "2021-05-03 01:08:30 +0000";
layers = (
{
anchors = (
{
name = bottom;
position = "{524, 0}";
},
{
name = horn;
position = "{784, 1048}";
},
{
name = ogonek;
position = "{872, -16}";
},
{
name = top;
position = "{492, 1048}";
}
);
guideLines = (
{
angle = 67.5;
position = "{512, 2}";
}
);
layerId = "AB099EFE-E788-4EFC-8633-CF147CB782A6";
paths = (
{
closed = 1;
nodes = (
"610 -16 OFFCURVE",
"734 100 OFFCURVE",
"776 238 CURVE",
"736 184 LINE",
"786 184 LINE",
"756 226 LINE",
"758 102 OFFCURVE",
"790 32 OFFCURVE",
"872 -16 CURVE",
"894 38 LINE",
"830 76 OFFCURVE",
"814 118 OFFCURVE",
"814 232 CURVE SMOOTH",
"814 1048 LINE",
"756 1048 LINE",
"756 390 LINE SMOOTH",
"756 210 OFFCURVE",
"626 38 OFFCURVE",
"448 40 CURVE SMOOTH",
"296 42 OFFCURVE",
"204 180 OFFCURVE",
"204 372 CURVE SMOOTH",
"204 1048 LINE",
"144 1048 LINE",
"144 372 LINE SMOOTH",
"144 136 OFFCURVE",
"266 -16 OFFCURVE",
"446 -16 CURVE SMOOTH"
);
}
);
width = 990;
},
{
anchors = (
{
name = bottom;
position = "{586, 0}";
},
{
name = horn;
position = "{808, 1080}";
},
{
name = ogonek;
position = "{914, -16}";
},
{
name = top;
position = "{538, 1080}";
}
);
guideLines = (
{
angle = 67.5;
position = "{504, 0}";
}
);
layerId = "2D8F7115-C311-411E-929D-56333CF7FFB2";
paths = (
{
closed = 1;
nodes = (
"556 -16 OFFCURVE",
"676 78 OFFCURVE",
"770 218 CURVE",
"610 118 LINE",
"732 118 LINE",
"678 200 LINE",
"680 84 OFFCURVE",
"748 24 OFFCURVE",
"914 -16 CURVE",
"1038 278 LINE",
"978 302 OFFCURVE",
"966 328 OFFCURVE",
"966 398 CURVE SMOOTH",
"966 1080 LINE",
"608 1080 LINE",
"608 450 LINE SMOOTH",
"608 342 OFFCURVE",
"572 282 OFFCURVE",
"522 282 CURVE SMOOTH",
"470 282 OFFCURVE",
"428 340 OFFCURVE",
"428 450 CURVE SMOOTH",
"428 1080 LINE",
"72 1080 LINE",
"72 398 LINE SMOOTH",
"72 124 OFFCURVE",
"236 -16 OFFCURVE",
"420 -16 CURVE SMOOTH"
);
}
);
width = 1068;
},
{
anchors = (
{
name = bottom;
position = "{516, 0}";
},
{
name = horn;
position = "{784, 1060}";
},
{
name = ogonek;
position = "{884, -16}";
},
{
name = top;
position = "{500, 1060}";
}
);
layerId = "FD1CEFBD-BAB1-4C2A-A598-30E93F9A29F6";
paths = (
{
closed = 1;
nodes = (
"616 -16 OFFCURVE",
"722 88 OFFCURVE",
"774 200 CURVE",
"686 140 LINE",
"800 140 LINE",
"734 176 LINE",
"734 108 OFFCURVE",
"790 30 OFFCURVE",
"884 -16 CURVE",
"950 140 LINE",
"890 168 OFFCURVE",
"876 206 OFFCURVE",
"876 300 CURVE SMOOTH",
"876 1060 LINE",
"704 1060 LINE",
"704 414 LINE SMOOTH",
"704 252 OFFCURVE",
"604 142 OFFCURVE",
"488 144 CURVE SMOOTH",
"376 146 OFFCURVE",
"288 240 OFFCURVE",
"288 414 CURVE SMOOTH",
"288 1060 LINE",
"116 1060 LINE",
"116 406 LINE SMOOTH",
"116 140 OFFCURVE",
"256 -16 OFFCURVE",
"454 -16 CURVE SMOOTH"
);
}
);
width = 1018;
}
);
leftKerningGroup = LAT_U_LC;
rightKerningGroup = LAT_A_LC;
unicode = 0075;
},
{
glyphname = v;
lastChange = "2021-05-03 01:08:30 +0000";
layers = (
{
anchors = (
{
name = bottom;
position = "{444, 0}";
},
{
name = top;
position = "{444, 1048}";
}
);
layerId = "AB099EFE-E788-4EFC-8633-CF147CB782A6";
paths = (
{
closed = 1;
nodes = (
"414 0 LINE",
"476 0 LINE",
"826 1048 LINE",
"760 1048 LINE",
"544 370 LINE",
"448 80 LINE",
"442 80 LINE",
"344 370 LINE",
"130 1048 LINE",
"64 1048 LINE"
);
}
);
width = 890;
},
{
anchors = (
{
name = bottom;
position = "{516, 0}";
},
{
name = top;
position = "{516, 1080}";
}
);
layerId = "2D8F7115-C311-411E-929D-56333CF7FFB2";
paths = (
{
closed = 1;
nodes = (
"348 0 LINE",
"684 0 LINE",
"1036 1080 LINE",
"662 1080 LINE",
"572 648 LINE",
"518 368 LINE",
"512 368 LINE",
"460 648 LINE",
"370 1080 LINE",
"-4 1080 LINE"
);
}
);
width = 1032;
},
{
anchors = (
{
name = bottom;
position = "{470, 0}";
},
{
name = top;
position = "{470, 1060}";
}
);
layerId = "FD1CEFBD-BAB1-4C2A-A598-30E93F9A29F6";
paths = (
{
closed = 1;
nodes = (
"388 0 LINE",
"552 0 LINE",
"908 1060 LINE",
"718 1060 LINE",
"548 454 LINE",
"474 204 LINE",
"468 204 LINE",
"394 454 LINE",
"226 1060 LINE",
"34 1060 LINE"
);
}
);
width = 944;
}
);
leftKerningGroup = LAT_V_LC;
rightKerningGroup = LAT_V_LC;
unicode = 0076;
},
{
glyphname = w;
lastChange = "2021-05-03 01:08:30 +0000";
layers = (
{
anchors = (
{
name = bottom;
position = "{664, 0}";
},
{
name = top;
position = "{664, 1048}";
}
);
layerId = "AB099EFE-E788-4EFC-8633-CF147CB782A6";
paths = (
{
closed = 1;
nodes = (
"414 0 LINE",
"524 388 LINE",
"660 868 LINE",
"668 868 LINE",
"802 388 LINE",
"912 0 LINE",
"980 0 LINE",
"1254 1048 LINE",
"1188 1048 LINE",
"1034 424 LINE",
"946 72 LINE",
"942 72 LINE",
"850 410 LINE",
"682 984 LINE",
"644 984 LINE",
"476 410 LINE",
"386 72 LINE",
"382 72 LINE",
"294 424 LINE",
"140 1048 LINE",
"72 1048 LINE",
"346 0 LINE"
);
}
);
userData = {
RMXScaler = {
adjustSpace = 8;
height = 72;
weight = 8;
width = 80;
};
};
width = 1326;
},
{
anchors = (
{
name = bottom;
position = "{728, 0}";
},
{
name = top;
position = "{726, 1080}";
}
);
layerId = "2D8F7115-C311-411E-929D-56333CF7FFB2";
paths = (
{
closed = 1;
nodes = (
"570 0 LINE",
"642 188 LINE",
"724 450 LINE",
"732 450 LINE",
"806 188 LINE",
"876 0 LINE",
"1156 0 LINE",
"1438 1080 LINE",
"1092 1080 LINE",
"1010 598 LINE",
"988 422 LINE",
"986 422 LINE",
"960 516 LINE",
"776 1048 LINE",
"672 1048 LINE",
"490 516 LINE",
"468 422 LINE",
"464 422 LINE",
"438 598 LINE",
"356 1080 LINE",
"10 1080 LINE",
"292 0 LINE"
);
}
);
userData = {
RMXScaler = {
adjustSpace = 20;
height = 73;
weight = -120;
width = 79;
};
};
width = 1448;
},
{
anchors = (
{
name = bottom;
position = "{682, 0}";
},
{
name = top;
position = "{682, 1060}";
}
);
layerId = "FD1CEFBD-BAB1-4C2A-A598-30E93F9A29F6";
paths = (
{
closed = 1;
nodes = (
"462 0 LINE",
"554 294 LINE",
"680 688 LINE",
"686 688 LINE",
"816 294 LINE",
"906 0 LINE",
"1060 0 LINE",
"1318 1060 LINE",
"1144 1060 LINE",
"1022 492 LINE",
"968 226 LINE",
"962 226 LINE",
"896 458 LINE",
"730 984 LINE",
"636 984 LINE",
"470 458 LINE",
"404 226 LINE",
"400 226 LINE",
"348 492 LINE",
"224 1060 LINE",
"48 1060 LINE",
"306 0 LINE"
);
}
);
userData = {
RMXScaler = {
adjustSpace = 8;
height = 72;
weight = 8;
width = 80;
};
};
width = 1366;
}
);
leftKerningGroup = LAT_V_LC;
rightKerningGroup = LAT_V_LC;
unicode = 0077;
userData = {
RMXScaler = {
source = W;
};
};
},
{
color = 9;
glyphname = w.ss03;
lastChange = "2021-05-03 01:08:30 +0000";
layers = (
{
anchors = (
{
name = bottom;
position = "{674, 0}";
},
{
name = top;
position = "{674, 1048}";
}
);
layerId = "AB099EFE-E788-4EFC-8633-CF147CB782A6";
paths = (
{
closed = 1;
nodes = (
"418 0 LINE",
"530 406 LINE",
"666 922 LINE",
"676 922 LINE",
"812 406 LINE",
"924 0 LINE",
"998 0 LINE",
"1278 1048 LINE",
"1214 1048 LINE",
"1054 424 LINE",
"962 72 LINE",
"958 72 LINE",
"862 424 LINE",
"692 1048 LINE",
"650 1048 LINE",
"482 424 LINE",
"384 72 LINE",
"382 72 LINE",
"288 424 LINE",
"128 1048 LINE",
"64 1048 LINE",
"346 0 LINE"
);
}
);
width = 1342;
},
{
anchors = (
{
name = bottom;
position = "{720, 0}";
},
{
name = top;
position = "{720, 1080}";
}
);
background = {
components = (
{
name = w;
transform = "{1, 0, 0, 1, -14, 0}";
}
);
};
layerId = "2D8F7115-C311-411E-929D-56333CF7FFB2";
paths = (
{
closed = 1;
nodes = (
"594 0 LINE",
"678 308 LINE",
"718 520 LINE",
"724 520 LINE",
"762 308 LINE",
"846 0 LINE",
"1172 0 LINE",
"1444 1082 LINE",
"1088 1082 LINE",
"1022 626 LINE",
"986 372 LINE",
"978 372 LINE",
"914 634 LINE",
"812 1082 LINE",
"628 1082 LINE",
"524 634 LINE",
"462 372 LINE",
"454 372 LINE",
"418 626 LINE",
"350 1082 LINE",
"-4 1082 LINE",
"270 0 LINE"
);
}
);
width = 1440;
},
{
anchors = (
{
name = bottom;
position = "{688, 0}";
},
{
name = top;
position = "{688, 1060}";
}
);
layerId = "FD1CEFBD-BAB1-4C2A-A598-30E93F9A29F6";
paths = (
{
closed = 1;
nodes = (
"480 0 LINE",
"590 390 LINE",
"684 758 LINE",
"692 758 LINE",
"788 390 LINE",
"896 0 LINE",
"1064 0 LINE",
"1342 1060 LINE",
"1164 1060 LINE",
"1040 516 LINE",
"974 218 LINE",
"968 218 LINE",
"886 516 LINE",
"742 1060 LINE",
"636 1060 LINE",
"492 516 LINE",
"410 218 LINE",
"402 218 LINE",
"336 516 LINE",
"214 1060 LINE",
"34 1060 LINE",
"312 0 LINE"
);
}
);
width = 1378;
}
);
leftKerningGroup = LAT_V_LC;
leftMetricsKey = v;
rightKerningGroup = LAT_V_LC;
rightMetricsKey = v;
},
{
glyphname = x;
lastChange = "2021-05-03 01:08:30 +0000";
layers = (
{
anchors = (
{
name = bottom;
position = "{436, 0}";
},
{
name = top;
position = "{436, 1048}";
}
);
layerId = "AB099EFE-E788-4EFC-8633-CF147CB782A6";
paths = (
{
closed = 1;
nodes = (
"154 0 LINE",
"432 478 LINE",
"442 478 LINE",
"476 520 LINE",
"476 528 LINE",
"792 1048 LINE",
"720 1048 LINE",
"438 568 LINE",
"428 568 LINE",
"394 528 LINE",
"394 520 LINE",
"78 0 LINE"
);
},
{
closed = 1;
nodes = (
"792 0 LINE",
"476 520 LINE",
"476 528 LINE",
"442 568 LINE",
"432 568 LINE",
"150 1048 LINE",
"78 1048 LINE",
"394 528 LINE",
"394 520 LINE",
"428 478 LINE",
"438 478 LINE",
"716 0 LINE"
);
}
);
userData = {
RMXScaler = {
height = 71;
weight = 16;
width = 73.5;
};
};
width = 870;
},
{
anchors = (
{
name = bottom;
position = "{512, 0}";
},
{
name = top;
position = "{512, 1080}";
}
);
layerId = "2D8F7115-C311-411E-929D-56333CF7FFB2";
paths = (
{
closed = 1;
nodes = (
"362 0 LINE",
"508 316 LINE",
"518 316 LINE",
"726 540 LINE",
"726 544 LINE",
"1026 1080 LINE",
"666 1080 LINE",
"514 742 LINE",
"508 742 LINE",
"294 540 LINE",
"294 536 LINE",
"-6 0 LINE"
);
},
{
closed = 1;
nodes = (
"1022 0 LINE",
"726 536 LINE",
"726 540 LINE",
"514 742 LINE",
"508 742 LINE",
"354 1080 LINE",
"-2 1080 LINE",
"294 544 LINE",
"294 540 LINE",
"504 316 LINE",
"514 316 LINE",
"658 0 LINE"
);
}
);
userData = {
RMXScaler = {
height = 73.5;
weight = -110;
width = 73;
};
};
width = 1018;
},
{
anchors = (
{
name = bottom;
position = "{460, 0}";
},
{
name = top;
position = "{460, 1060}";
}
);
layerId = "FD1CEFBD-BAB1-4C2A-A598-30E93F9A29F6";
paths = (
{
closed = 1;
nodes = (
"240 0 LINE",
"456 410 LINE",
"466 410 LINE",
"570 528 LINE",
"570 536 LINE",
"874 1060 LINE",
"682 1060 LINE",
"462 644 LINE",
"454 644 LINE",
"348 536 LINE",
"348 528 LINE",
"42 0 LINE"
);
},
{
closed = 1;
nodes = (
"878 0 LINE",
"570 528 LINE",
"570 536 LINE",
"466 644 LINE",
"456 644 LINE",
"236 1060 LINE",
"46 1060 LINE",
"348 536 LINE",
"348 528 LINE",
"452 410 LINE",
"462 410 LINE",
"678 0 LINE"
);
}
);
userData = {
RMXScaler = {
height = 71;
weight = 16;
width = 73.5;
};
};
width = 920;
}
);
leftKerningGroup = LAT_X_LC;
rightKerningGroup = LAT_X_LC;
unicode = 0078;
userData = {
RMXScaler = {
source = X;
};
};
},
{
glyphname = y;
lastChange = "2021-05-03 01:08:30 +0000";
layers = (
{
anchors = (
{
name = bottom;
position = "{280, -420}";
},
{
name = top;
position = "{478, 1048}";
}
);
guideLines = (
{
angle = 68.6294;
position = "{268, -86}";
},
{
angle = 67.5;
position = "{148, -8}";
}
);
layerId = "AB099EFE-E788-4EFC-8633-CF147CB782A6";
paths = (
{
closed = 1;
nodes = (
"864 1048 LINE",
"800 1048 LINE",
"578 358 LINE",
"482 64 LINE",
"474 64 LINE",
"374 358 LINE",
"144 1048 LINE",
"78 1048 LINE",
"462 -58 LINE",
"458 4 LINE",
"404 -164 LINE SMOOTH",
"372 -262 OFFCURVE",
"340 -380 OFFCURVE",
"224 -380 CURVE SMOOTH",
"192 -380 OFFCURVE",
"148 -370 OFFCURVE",
"124 -354 CURVE",
"100 -412 LINE",
"126 -424 OFFCURVE",
"176 -436 OFFCURVE",
"220 -436 CURVE SMOOTH",
"364 -436 OFFCURVE",
"412 -322 OFFCURVE",
"460 -174 CURVE SMOOTH"
);
}
);
width = 928;
},
{
anchors = (
{
name = bottom;
position = "{356, -420}";
},
{
name = top;
position = "{534, 1080}";
}
);
guideLines = (
{
angle = 67.5;
position = "{118, 8}";
}
);
layerId = "2D8F7115-C311-411E-929D-56333CF7FFB2";
paths = (
{
closed = 1;
nodes = (
"1070 1080 LINE",
"696 1080 LINE",
"564 496 LINE",
"538 356 LINE",
"536 356 LINE",
"516 496 LINE",
"372 1080 LINE",
"0 1080 LINE",
"390 -50 LINE",
"424 132 LINE",
"388 -32 LINE SMOOTH",
"378 -78 OFFCURVE",
"360 -142 OFFCURVE",
"288 -142 CURVE SMOOTH",
"264 -142 OFFCURVE",
"234 -134 OFFCURVE",
"212 -120 CURVE",
"94 -400 LINE",
"154 -420 OFFCURVE",
"240 -436 OFFCURVE",
"312 -436 CURVE SMOOTH",
"588 -436 OFFCURVE",
"644 -244 OFFCURVE",
"686 -112 CURVE SMOOTH"
);
}
);
width = 1066;
},
{
anchors = (
{
name = bottom;
position = "{382, -420}";
},
{
name = top;
position = "{504, 1060}";
}
);
layerId = "FD1CEFBD-BAB1-4C2A-A598-30E93F9A29F6";
paths = (
{
closed = 1;
nodes = (
"934 1060 LINE",
"752 1060 LINE",
"566 414 LINE",
"508 196 LINE",
"502 196 LINE",
"438 414 LINE",
"234 1060 LINE",
"48 1060 LINE",
"440 -50 LINE",
"442 54 LINE",
"396 -106 LINE SMOOTH",
"380 -164 OFFCURVE",
"338 -276 OFFCURVE",
"240 -276 CURVE SMOOTH",
"210 -276 OFFCURVE",
"170 -262 OFFCURVE",
"136 -240 CURVE",
"72 -396 LINE",
"100 -412 OFFCURVE",
"172 -436 OFFCURVE",
"240 -436 CURVE SMOOTH",
"446 -436 OFFCURVE",
"516 -244 OFFCURVE",
"546 -148 CURVE SMOOTH"
);
}
);
width = 970;
}
);
leftKerningGroup = LAT_Y_LC;
rightKerningGroup = LAT_Y_LC;
rightMetricsKey = v;
unicode = 0079;
},
{
glyphname = z;
lastChange = "2021-05-03 01:08:30 +0000";
layers = (
{
anchors = (
{
name = bottom;
position = "{420, 0}";
},
{
name = center;
position = "{420, 524}";
},
{
name = leghookretroflex;
position = "{706, 0}";
},
{
name = top;
position = "{436, 1048}";
}
);
layerId = "AB099EFE-E788-4EFC-8633-CF147CB782A6";
paths = (
{
closed = 1;
nodes = (
"102 0 LINE",
"734 0 LINE",
"734 56 LINE",
"192 56 LINE",
"192 64 LINE",
"724 1020 LINE",
"724 1048 LINE",
"126 1048 LINE",
"126 992 LINE",
"632 992 LINE",
"632 984 LINE",
"102 36 LINE"
);
}
);
width = 836;
},
{
anchors = (
{
name = bottom;
position = "{444, 0}";
},
{
name = center;
position = "{444, 540}";
},
{
name = leghookretroflex;
position = "{678, 0}";
},
{
name = top;
position = "{456, 1080}";
}
);
layerId = "2D8F7115-C311-411E-929D-56333CF7FFB2";
paths = (
{
closed = 1;
nodes = (
"20 0 LINE",
"858 0 LINE",
"858 304 LINE",
"524 304 LINE",
"524 312 LINE",
"860 1006 LINE",
"860 1080 LINE",
"56 1080 LINE",
"56 776 LINE",
"356 776 LINE",
"356 768 LINE",
"20 70 LINE"
);
}
);
width = 880;
},
{
anchors = (
{
name = bottom;
position = "{430, 0}";
},
{
name = center;
position = "{430, 536}";
},
{
name = leghookretroflex;
position = "{696, 0}";
},
{
name = top;
position = "{448, 1060}";
}
);
layerId = "FD1CEFBD-BAB1-4C2A-A598-30E93F9A29F6";
paths = (
{
closed = 1;
nodes = (
"74 0 LINE",
"782 0 LINE",
"782 156 LINE",
"340 156 LINE",
"340 164 LINE",
"780 1020 LINE",
"780 1060 LINE",
"96 1060 LINE",
"96 904 LINE",
"514 904 LINE",
"514 896 LINE",
"74 40 LINE"
);
}
);
width = 858;
}
);
leftKerningGroup = LAT_Z_LC;
rightKerningGroup = LAT_Z_LC;
unicode = 007A;
},
{
export = 0;
glyphname = a.ss08;
lastChange = "2021-05-03 01:08:42 +0000";
layers = (
{
anchors = (
{
name = bottom;
position = "{440, 0}";
},
{
name = ogonek;
position = "{722, 0}";
},
{
name = top;
position = "{440, 1048}";
}
);
layerId = "AB099EFE-E788-4EFC-8633-CF147CB782A6";
paths = (
{
closed = 1;
nodes = (
"738 0 LINE",
"738 684 LINE SMOOTH",
"738 874 OFFCURVE",
"700 1064 OFFCURVE",
"454 1064 CURVE SMOOTH",
"356 1064 OFFCURVE",
"222 1014 OFFCURVE",
"152 950 CURVE",
"180 900 LINE",
"244 960 OFFCURVE",
"364 1008 OFFCURVE",
"450 1008 CURVE SMOOTH",
"644 1008 OFFCURVE",
"678 870 OFFCURVE",
"678 696 CURVE SMOOTH",
"678 562 LINE",
"680 554 LINE",
"680 246 LINE",
"668 176 LINE",
"684 176 LINE",
"684 0 LINE"
);
},
{
closed = 1;
nodes = (
"520 -16 OFFCURVE",
"632 78 OFFCURVE",
"686 180 CURVE",
"690 290 LINE",
"616 138 OFFCURVE",
"512 40 OFFCURVE",
"384 40 CURVE SMOOTH",
"262 40 OFFCURVE",
"162 148 OFFCURVE",
"162 282 CURVE SMOOTH",
"162 438 OFFCURVE",
"298 550 OFFCURVE",
"534 550 CURVE SMOOTH",
"702 550 LINE",
"702 606 LINE",
"534 606 LINE SMOOTH",
"252 606 OFFCURVE",
"102 476 OFFCURVE",
"102 282 CURVE SMOOTH",
"102 112 OFFCURVE",
"228 -16 OFFCURVE",
"382 -16 CURVE SMOOTH"
);
}
);
width = 882;
},
{
anchors = (
{
name = bottom;
position = "{474, 0}";
},
{
name = ogonek;
position = "{712, 0}";
},
{
name = top;
position = "{490, 1080}";
}
);
layerId = "2D8F7115-C311-411E-929D-56333CF7FFB2";
paths = (
{
closed = 1;
nodes = (
"904 0 LINE",
"904 710 LINE SMOOTH",
"904 860 OFFCURVE",
"876 1096 OFFCURVE",
"480 1096 CURVE SMOOTH",
"286 1096 OFFCURVE",
"148 1038 OFFCURVE",
"84 994 CURVE",
"204 732 LINE",
"270 780 OFFCURVE",
"376 814 OFFCURVE",
"448 814 CURVE SMOOTH",
"494 814 OFFCURVE",
"560 780 OFFCURVE",
"560 706 CURVE SMOOTH",
"560 552 LINE",
"568 504 LINE",
"568 262 LINE",
"568 132 LINE",
"608 132 LINE",
"608 0 LINE"
);
},
{
closed = 1;
nodes = (
"482 -16 OFFCURVE",
"586 66 OFFCURVE",
"618 152 CURVE",
"566 312 LINE",
"542 266 OFFCURVE",
"500 238 OFFCURVE",
"464 238 CURVE SMOOTH",
"408 238 OFFCURVE",
"378 280 OFFCURVE",
"378 336 CURVE SMOOTH",
"378 410 OFFCURVE",
"410 426 OFFCURVE",
"444 426 CURVE SMOOTH",
"574 426 LINE",
"574 630 LINE",
"370 630 LINE SMOOTH",
"172 630 OFFCURVE",
"28 492 OFFCURVE",
"28 294 CURVE SMOOTH",
"28 116 OFFCURVE",
"146 -16 OFFCURVE",
"336 -16 CURVE SMOOTH"
);
}
);
width = 968;
},
{
anchors = (
{
name = bottom;
position = "{466, 0}";
},
{
name = ogonek;
position = "{722, 0}";
},
{
name = top;
position = "{468, 1060}";
}
);
layerId = "FD1CEFBD-BAB1-4C2A-A598-30E93F9A29F6";
paths = (
{
closed = 1;
nodes = (
"804 0 LINE",
"804 680 LINE SMOOTH",
"804 890 OFFCURVE",
"738 1076 OFFCURVE",
"474 1076 CURVE SMOOTH",
"350 1076 OFFCURVE",
"212 1032 OFFCURVE",
"134 974 CURVE",
"196 828 LINE",
"262 882 OFFCURVE",
"370 920 OFFCURVE",
"458 920 CURVE SMOOTH",
"606 920 OFFCURVE",
"636 806 OFFCURVE",
"636 680 CURVE SMOOTH",
"636 558 LINE",
"644 500 LINE",
"644 258 LINE",
"632 148 LINE",
"664 148 LINE",
"664 0 LINE"
);
},
{
closed = 1;
nodes = (
"514 -16 OFFCURVE",
"628 70 OFFCURVE",
"672 172 CURVE",
"648 328 LINE",
"600 210 OFFCURVE",
"498 132 OFFCURVE",
"398 132 CURVE SMOOTH",
"316 132 OFFCURVE",
"248 194 OFFCURVE",
"248 294 CURVE SMOOTH",
"248 460 OFFCURVE",
"406 490 OFFCURVE",
"514 490 CURVE SMOOTH",
"670 490 LINE",
"670 630 LINE",
"496 630 LINE SMOOTH",
"202 630 OFFCURVE",
"76 480 OFFCURVE",
"76 294 CURVE SMOOTH",
"76 106 OFFCURVE",
"204 -16 OFFCURVE",
"374 -16 CURVE SMOOTH"
);
}
);
width = 916;
}
);
leftKerningGroup = LAT_ASS02_LC;
leftMetricsKey = a;
rightKerningGroup = LAT_A_LC;
rightMetricsKey = n;
},
{
color = 8;
export = 0;
glyphname = idotless.ss02.archive;
lastChange = "2021-05-03 01:08:30 +0000";
layers = (
{
anchors = (
{
name = bottom;
position = "{264, 0}";
},
{
name = center;
position = "{194, 570}";
},
{
name = ogonek;
position = "{382, 12}";
},
{
name = top;
position = "{194, 1048}";
}
);
guideLines = (
{
angle = 80;
position = "{178, -8}";
}
);
layerId = "AB099EFE-E788-4EFC-8633-CF147CB782A6";
paths = (
{
closed = 1;
nodes = (
"328 -8 OFFCURVE",
"364 0 OFFCURVE",
"382 12 CURVE",
"382 72 LINE",
"358 58 OFFCURVE",
"326 48 OFFCURVE",
"298 48 CURVE SMOOTH",
"222 48 OFFCURVE",
"222 124 OFFCURVE",
"222 206 CURVE SMOOTH",
"222 1048 LINE",
"162 1048 LINE",
"162 222 LINE SMOOTH",
"162 126 OFFCURVE",
"162 -8 OFFCURVE",
"298 -8 CURVE SMOOTH"
);
}
);
width = 442;
},
{
anchors = (
{
name = bottom;
position = "{290, 0}";
},
{
name = center;
position = "{282, 570}";
},
{
name = ogonek;
position = "{540, 8}";
},
{
name = top;
position = "{282, 1080}";
}
);
guideLines = (
{
angle = 80;
position = "{284, -8}";
}
);
layerId = "2D8F7115-C311-411E-929D-56333CF7FFB2";
paths = (
{
closed = 1;
nodes = (
"430 -16 OFFCURVE",
"496 -10 OFFCURVE",
"540 8 CURVE",
"540 286 LINE",
"518 282 OFFCURVE",
"512 278 OFFCURVE",
"500 278 CURVE SMOOTH",
"454 278 OFFCURVE",
"454 336 OFFCURVE",
"454 376 CURVE SMOOTH",
"454 1082 LINE",
"98 1082 LINE",
"98 278 LINE SMOOTH",
"98 112 OFFCURVE",
"210 -16 OFFCURVE",
"380 -16 CURVE SMOOTH"
);
}
);
width = 606;
},
{
anchors = (
{
name = bottom;
position = "{286, 0}";
},
{
name = center;
position = "{230, 570}";
},
{
name = ogonek;
position = "{428, -4}";
},
{
name = top;
position = "{230, 1060}";
}
);
layerId = "FD1CEFBD-BAB1-4C2A-A598-30E93F9A29F6";
paths = (
{
closed = 1;
nodes = (
"368 -16 OFFCURVE",
"408 -12 OFFCURVE",
"428 -4 CURVE",
"428 152 LINE",
"414 148 OFFCURVE",
"394 144 OFFCURVE",
"382 144 CURVE SMOOTH",
"312 144 OFFCURVE",
"312 214 OFFCURVE",
"312 250 CURVE SMOOTH",
"312 1060 LINE",
"140 1060 LINE",
"140 254 LINE SMOOTH",
"140 82 OFFCURVE",
"204 -16 OFFCURVE",
"340 -16 CURVE SMOOTH"
);
}
);
width = 510;
}
);
},
{
glyphname = fl;
lastChange = "2021-05-03 01:08:42 +0000";
layers = (
{
background = {
components = (
{
name = f;
transform = "{1, 0, 0, 1, -2, 0}";
}
);
paths = (
{
closed = 1;
nodes = (
"1042 -8 OFFCURVE",
"1071 -4 OFFCURVE",
"1092 4 CURVE",
"1092 66 LINE",
"1079 57 OFFCURVE",
"1051 49 OFFCURVE",
"1022 50 CURVE SMOOTH",
"944 49 OFFCURVE",
"944 131 OFFCURVE",
"944 196 CURVE SMOOTH",
"944 1474 LINE",
"882 1474 LINE",
"882 188 LINE SMOOTH",
"883 45 OFFCURVE",
"918 -8 OFFCURVE",
"1018 -8 CURVE SMOOTH"
);
}
);
};
components = (
{
name = f;
}
);
layerId = "AB099EFE-E788-4EFC-8633-CF147CB782A6";
paths = (
{
closed = 1;
nodes = (
"902 -8 OFFCURVE",
"930 -4 OFFCURVE",
"948 4 CURVE",
"948 64 LINE",
"938 56 OFFCURVE",
"914 48 OFFCURVE",
"890 48 CURVE SMOOTH",
"824 48 OFFCURVE",
"824 112 OFFCURVE",
"824 174 CURVE SMOOTH",
"824 1474 LINE",
"764 1474 LINE",
"764 176 LINE SMOOTH",
"764 70 OFFCURVE",
"784 -8 OFFCURVE",
"882 -8 CURVE SMOOTH"
);
}
);
width = 1010;
},
{
background = {
paths = (
{
closed = 1;
nodes = (
"1425 -16 OFFCURVE",
"1483 -4 OFFCURVE",
"1528 12 CURVE",
"1528 286 LINE",
"1520 283 OFFCURVE",
"1503 279 OFFCURVE",
"1490 278 CURVE SMOOTH",
"1434 279 OFFCURVE",
"1417 324 OFFCURVE",
"1418 356 CURVE SMOOTH",
"1418 1474 LINE",
"1060 1474 LINE",
"1060 294 LINE SMOOTH",
"1061 131 OFFCURVE",
"1167 -16 OFFCURVE",
"1352 -16 CURVE SMOOTH"
);
}
);
};
components = (
{
name = f;
}
);
layerId = "2D8F7115-C311-411E-929D-56333CF7FFB2";
paths = (
{
closed = 1;
nodes = (
"1278 -16 OFFCURVE",
"1338 -4 OFFCURVE",
"1380 12 CURVE",
"1380 286 LINE",
"1374 284 OFFCURVE",
"1362 278 OFFCURVE",
"1348 278 CURVE SMOOTH",
"1314 278 OFFCURVE",
"1292 320 OFFCURVE",
"1292 356 CURVE SMOOTH",
"1292 1474 LINE",
"936 1474 LINE",
"936 294 LINE SMOOTH",
"936 132 OFFCURVE",
"1036 -16 OFFCURVE",
"1224 -16 CURVE SMOOTH"
);
}
);
width = 1408;
},
{
components = (
{
alignment = -1;
name = f;
}
);
layerId = "FD1CEFBD-BAB1-4C2A-A598-30E93F9A29F6";
paths = (
{
closed = 1;
nodes = (
"1034 -12 OFFCURVE",
"1072 -4 OFFCURVE",
"1102 8 CURVE",
"1102 152 LINE",
"1094 144 OFFCURVE",
"1074 136 OFFCURVE",
"1052 136 CURVE SMOOTH",
"1000 136 OFFCURVE",
"990 194 OFFCURVE",
"990 246 CURVE SMOOTH",
"990 1474 LINE",
"818 1474 LINE",
"818 222 LINE SMOOTH",
"818 70 OFFCURVE",
"880 -12 OFFCURVE",
"1000 -12 CURVE SMOOTH"
);
}
);
width = 1160;
}
);
leftKerningGroup = LAT_F_LC;
leftMetricsKey = f;
rightKerningGroup = LAT_L_LC;
rightMetricsKey = l;
unicode = FB02;
},
{
glyphname = r_slash.liga;
lastChange = "2021-05-03 01:08:42 +0000";
layers = (
{
components = (
{
name = slash;
transform = "{1, 0, 0, 1, 494, 0}";
}
);
guideLines = (
{
angle = 67.5;
position = "{96, -200}";
}
);
layerId = "AB099EFE-E788-4EFC-8633-CF147CB782A6";
paths = (
{
closed = 1;
nodes = (
"212 0 LINE",
"212 684 LINE SMOOTH",
"212 842 OFFCURVE",
"352 1010 OFFCURVE",
"504 1010 CURVE SMOOTH",
"554 1010 OFFCURVE",
"616 996 OFFCURVE",
"648 968 CURVE",
"674 1028 LINE",
"650 1044 OFFCURVE",
"586 1064 OFFCURVE",
"522 1064 CURVE SMOOTH",
"386 1064 OFFCURVE",
"262 982 OFFCURVE",
"192 832 CURVE",
"226 868 LINE",
"212 868 LINE",
"212 1048 LINE",
"152 1048 LINE",
"152 0 LINE"
);
}
);
width = 1138;
},
{
components = (
{
name = slash;
transform = "{1, 0, 0, 1, 686, 0}";
}
);
guideLines = (
{
angle = 67.5;
position = "{196, -200}";
}
);
layerId = "2D8F7115-C311-411E-929D-56333CF7FFB2";
paths = (
{
closed = 1;
nodes = (
"426 0 LINE",
"426 552 LINE SMOOTH",
"426 674 OFFCURVE",
"464 754 OFFCURVE",
"588 754 CURVE SMOOTH",
"624 754 OFFCURVE",
"680 750 OFFCURVE",
"732 716 CURVE",
"874 1064 LINE",
"854 1082 OFFCURVE",
"808 1098 OFFCURVE",
"712 1098 CURVE SMOOTH",
"540 1098 OFFCURVE",
"426 994 OFFCURVE",
"394 930 CURVE",
"456 958 LINE",
"406 958 LINE",
"406 1082 LINE",
"70 1082 LINE",
"70 0 LINE"
);
}
);
width = 1540;
},
{
components = (
{
alignment = -1;
name = slash;
transform = "{1, 0, 0, 1, 566, 0}";
}
);
layerId = "FD1CEFBD-BAB1-4C2A-A598-30E93F9A29F6";
paths = (
{
closed = 1;
nodes = (
"290 0 LINE",
"290 648 LINE SMOOTH",
"290 792 OFFCURVE",
"394 918 OFFCURVE",
"530 918 CURVE SMOOTH",
"572 918 OFFCURVE",
"628 906 OFFCURVE",
"666 880 CURVE",
"736 1044 LINE",
"716 1058 OFFCURVE",
"668 1078 OFFCURVE",
"590 1078 CURVE SMOOTH",
"426 1078 OFFCURVE",
"308 976 OFFCURVE",
"262 868 CURVE",
"324 918 LINE",
"284 918 LINE",
"284 1060 LINE",
"118 1060 LINE",
"118 0 LINE"
);
}
);
width = 1270;
}
);
leftKerningGroup = LAT_R_LC;
leftMetricsKey = r;
rightKerningGroup = PCT_SLASH;
rightMetricsKey = slash;
},
{
glyphname = ordfeminine;
lastChange = "2021-05-03 01:08:30 +0000";
layers = (
{
anchors = (
{
name = bottom;
position = "{330, 848}";
},
{
name = ogonek;
position = "{588, 840}";
},
{
name = top;
position = "{330, 1478}";
},
{
name = topright;
position = "{624, 1478}";
}
);
layerId = "AB099EFE-E788-4EFC-8633-CF147CB782A6";
paths = (
{
closed = 1;
nodes = (
"618 874 LINE",
"606 882 LINE SMOOTH",
"580 900 OFFCURVE",
"566 934 OFFCURVE",
"566 992 CURVE SMOOTH",
"566 1478 LINE",
"508 1478 LINE",
"508 1360 LINE",
"502 1360 LINE",
"512 1336 LINE",
"512 1012 LINE",
"498 962 LINE",
"516 962 LINE",
"512 970 LINE",
"518 896 OFFCURVE",
"544 846 OFFCURVE",
"578 832 CURVE SMOOTH",
"588 828 LINE"
);
},
{
closed = 1;
nodes = (
"446 828 OFFCURVE",
"552 942 OFFCURVE",
"552 1160 CURVE SMOOTH",
"552 1380 OFFCURVE",
"456 1490 OFFCURVE",
"322 1490 CURVE SMOOTH",
"184 1490 OFFCURVE",
"82 1352 OFFCURVE",
"82 1156 CURVE SMOOTH",
"82 968 OFFCURVE",
"182 828 OFFCURVE",
"322 828 CURVE SMOOTH"
);
},
{
closed = 1;
nodes = (
"218 882 OFFCURVE",
"140 998 OFFCURVE",
"140 1156 CURVE SMOOTH",
"140 1318 OFFCURVE",
"216 1436 OFFCURVE",
"324 1436 CURVE SMOOTH",
"436 1436 OFFCURVE",
"512 1328 OFFCURVE",
"512 1160 CURVE SMOOTH",
"512 996 OFFCURVE",
"432 882 OFFCURVE",
"324 882 CURVE SMOOTH"
);
}
);
userData = {
RMXScaler = {
adjustSpace = 12;
height = 60;
verticalShift = 414;
weight = 18;
width = 60;
};
};
width = 694;
},
{
anchors = (
{
name = bottom;
position = "{368, 812}";
},
{
name = ogonek;
position = "{608, 802}";
},
{
name = top;
position = "{368, 1474}";
},
{
name = topright;
position = "{690, 1474}";
}
);
layerId = "2D8F7115-C311-411E-929D-56333CF7FFB2";
paths = (
{
closed = 1;
nodes = (
"726 1012 LINE",
"698 1026 LINE SMOOTH",
"678 1036 OFFCURVE",
"670 1050 OFFCURVE",
"670 1110 CURVE SMOOTH",
"670 1474 LINE",
"418 1474 LINE",
"418 1426 LINE",
"384 1426 LINE",
"422 1372 LINE",
"422 974 LINE",
"396 898 LINE",
"458 898 LINE",
"442 898 LINE",
"468 856 OFFCURVE",
"524 822 OFFCURVE",
"586 806 CURVE SMOOTH",
"604 802 LINE"
);
},
{
closed = 1;
nodes = (
"432 802 OFFCURVE",
"516 976 OFFCURVE",
"516 1150 CURVE SMOOTH",
"516 1320 OFFCURVE",
"442 1486 OFFCURVE",
"290 1486 CURVE SMOOTH",
"154 1486 OFFCURVE",
"46 1346 OFFCURVE",
"46 1138 CURVE SMOOTH",
"46 942 OFFCURVE",
"142 802 OFFCURVE",
"276 802 CURVE SMOOTH"
);
},
{
closed = 1;
nodes = (
"326 1020 OFFCURVE",
"298 1074 OFFCURVE",
"298 1146 CURVE SMOOTH",
"298 1222 OFFCURVE",
"326 1270 OFFCURVE",
"362 1270 CURVE SMOOTH",
"406 1270 OFFCURVE",
"422 1216 OFFCURVE",
"422 1146 CURVE SMOOTH",
"422 1066 OFFCURVE",
"398 1020 OFFCURVE",
"362 1020 CURVE SMOOTH"
);
}
);
userData = {
RMXScaler = {
adjustSpace = 12;
height = 61;
verticalShift = 396;
weight = -200;
width = 60;
};
};
width = 780;
},
{
anchors = (
{
name = bottom;
position = "{332, 836}";
},
{
name = ogonek;
position = "{586, 828}";
},
{
name = top;
position = "{332, 1478}";
},
{
name = topright;
position = "{640, 1478}";
}
);
layerId = "FD1CEFBD-BAB1-4C2A-A598-30E93F9A29F6";
paths = (
{
closed = 1;
nodes = (
"650 930 LINE",
"630 940 LINE SMOOTH",
"606 952 OFFCURVE",
"594 980 OFFCURVE",
"594 1036 CURVE SMOOTH",
"594 1478 LINE",
"464 1478 LINE",
"464 1384 LINE",
"444 1384 LINE",
"468 1352 LINE",
"468 1000 LINE",
"446 938 LINE",
"486 938 LINE",
"474 942 LINE",
"486 884 OFFCURVE",
"524 840 OFFCURVE",
"570 824 CURVE SMOOTH",
"582 820 LINE"
);
},
{
closed = 1;
nodes = (
"430 820 OFFCURVE",
"526 954 OFFCURVE",
"526 1156 CURVE SMOOTH",
"526 1360 OFFCURVE",
"440 1490 OFFCURVE",
"300 1490 CURVE SMOOTH",
"160 1490 OFFCURVE",
"56 1350 OFFCURVE",
"56 1150 CURVE SMOOTH",
"56 954 OFFCURVE",
"156 820 OFFCURVE",
"294 820 CURVE SMOOTH"
);
},
{
closed = 1;
nodes = (
"246 938 OFFCURVE",
"188 1028 OFFCURVE",
"188 1150 CURVE SMOOTH",
"188 1282 OFFCURVE",
"246 1372 OFFCURVE",
"326 1372 CURVE SMOOTH",
"414 1372 OFFCURVE",
"468 1286 OFFCURVE",
"468 1156 CURVE SMOOTH",
"468 1026 OFFCURVE",
"408 938 OFFCURVE",
"326 938 CURVE SMOOTH"
);
}
);
width = 702;
}
);
leftKerningGroup = PCT_QUOTE;
rightKerningGroup = PCT_QUOTE;
unicode = 00AA;
userData = {
RMXScaler = {
source = a.ss02;
};
};
},
{
glyphname = ordmasculine;
lastChange = "2021-05-03 01:08:30 +0000";
layers = (
{
layerId = "AB099EFE-E788-4EFC-8633-CF147CB782A6";
paths = (
{
closed = 1;
nodes = (
"500 828 OFFCURVE",
"614 972 OFFCURVE",
"614 1160 CURVE SMOOTH",
"614 1352 OFFCURVE",
"500 1490 OFFCURVE",
"348 1490 CURVE SMOOTH",
"198 1490 OFFCURVE",
"82 1350 OFFCURVE",
"82 1160 CURVE SMOOTH",
"82 974 OFFCURVE",
"198 828 OFFCURVE",
"348 828 CURVE SMOOTH"
);
},
{
closed = 1;
nodes = (
"230 882 OFFCURVE",
"140 1004 OFFCURVE",
"140 1160 CURVE SMOOTH",
"140 1320 OFFCURVE",
"230 1436 OFFCURVE",
"348 1436 CURVE SMOOTH",
"468 1436 OFFCURVE",
"558 1320 OFFCURVE",
"558 1160 CURVE SMOOTH",
"558 1004 OFFCURVE",
"468 882 OFFCURVE",
"348 882 CURVE SMOOTH"
);
}
);
userData = {
RMXScaler = {
height = 60;
verticalShift = 400;
width = 60;
};
};
width = 696;
},
{
layerId = "2D8F7115-C311-411E-929D-56333CF7FFB2";
paths = (
{
closed = 1;
nodes = (
"548 802 OFFCURVE",
"684 950 OFFCURVE",
"684 1146 CURVE SMOOTH",
"684 1344 OFFCURVE",
"548 1490 OFFCURVE",
"364 1490 CURVE SMOOTH",
"184 1490 OFFCURVE",
"46 1344 OFFCURVE",
"46 1146 CURVE SMOOTH",
"46 950 OFFCURVE",
"184 802 OFFCURVE",
"364 802 CURVE SMOOTH"
);
},
{
closed = 1;
nodes = (
"322 1032 OFFCURVE",
"292 1084 OFFCURVE",
"292 1146 CURVE SMOOTH",
"292 1210 OFFCURVE",
"322 1262 OFFCURVE",
"364 1262 CURVE SMOOTH",
"406 1262 OFFCURVE",
"436 1212 OFFCURVE",
"436 1146 CURVE SMOOTH",
"436 1082 OFFCURVE",
"406 1032 OFFCURVE",
"364 1032 CURVE SMOOTH"
);
}
);
userData = {
RMXScaler = {
height = 60;
verticalShift = 390;
weight = -200;
width = 60;
};
};
width = 730;
},
{
layerId = "FD1CEFBD-BAB1-4C2A-A598-30E93F9A29F6";
paths = (
{
closed = 1;
nodes = (
"508 820 OFFCURVE",
"628 964 OFFCURVE",
"628 1156 CURVE SMOOTH",
"628 1348 OFFCURVE",
"508 1490 OFFCURVE",
"342 1490 CURVE SMOOTH",
"180 1490 OFFCURVE",
"56 1346 OFFCURVE",
"56 1156 CURVE SMOOTH",
"56 966 OFFCURVE",
"180 820 OFFCURVE",
"342 820 CURVE SMOOTH"
);
},
{
closed = 1;
nodes = (
"256 942 OFFCURVE",
"186 1032 OFFCURVE",
"186 1156 CURVE SMOOTH",
"186 1278 OFFCURVE",
"256 1368 OFFCURVE",
"342 1368 CURVE SMOOTH",
"432 1368 OFFCURVE",
"500 1278 OFFCURVE",
"500 1156 CURVE SMOOTH",
"500 1032 OFFCURVE",
"432 942 OFFCURVE",
"342 942 CURVE SMOOTH"
);
}
);
width = 686;
}
);
leftKerningGroup = PCT_QUOTE;
rightKerningGroup = PCT_QUOTE;
unicode = 00BA;
userData = {
RMXScaler = {
source = o;
};
};
},
